<svg width="1081" height="154" viewBox="0 0 1081 154" fill="none" xmlns="http://www.w3.org/2000/svg">
<path d="M210.25 28.25C209.283 26.2167 207.883 24.65 206.05 23.55C204.217 22.4167 202.083 21.85 199.65 21.85C197.217 21.85 195.017 22.4167 193.05 23.55C191.117 24.65 189.583 26.25 188.45 28.35C187.35 30.4167 186.8 32.8167 186.8 35.55C186.8 38.2833 187.35 40.6833 188.45 42.75C189.583 44.8167 191.117 46.4167 193.05 47.55C195.017 48.65 197.217 49.2 199.65 49.2C203.05 49.2 205.85 48.1833 208.05 46.15C210.25 44.1167 211.533 41.3667 211.9 37.9H198V34.2H216.75V37.7C216.483 40.5667 215.583 43.2 214.05 45.6C212.517 47.9667 210.5 49.85 208 51.25C205.5 52.6167 202.717 53.3 199.65 53.3C196.417 53.3 193.467 52.55 190.8 51.05C188.133 49.5167 186.017 47.4 184.45 44.7C182.917 42 182.15 38.95 182.15 35.55C182.15 32.15 182.917 29.1 184.45 26.4C186.017 23.6667 188.133 21.55 190.8 20.05C193.467 18.5167 196.417 17.75 199.65 17.75C203.35 17.75 206.617 18.6667 209.45 20.5C212.317 22.3333 214.4 24.9167 215.7 28.25H210.25ZM228.149 30.05C228.949 28.4833 230.083 27.2667 231.549 26.4C233.049 25.5333 234.866 25.1 236.999 25.1V29.8H235.799C230.699 29.8 228.149 32.5667 228.149 38.1V53H223.599V25.6H228.149V30.05ZM241.385 39.2C241.385 36.4 241.952 33.95 243.085 31.85C244.218 29.7167 245.768 28.0667 247.735 26.9C249.735 25.7333 251.952 25.15 254.385 25.15C256.785 25.15 258.868 25.6667 260.635 26.7C262.402 27.7333 263.718 29.0333 264.585 30.6V25.6H269.185V53H264.585V47.9C263.685 49.5 262.335 50.8333 260.535 51.9C258.768 52.9333 256.702 53.45 254.335 53.45C251.902 53.45 249.702 52.85 247.735 51.65C245.768 50.45 244.218 48.7667 243.085 46.6C241.952 44.4333 241.385 41.9667 241.385 39.2ZM264.585 39.25C264.585 37.1833 264.168 35.3833 263.335 33.85C262.502 32.3167 261.368 31.15 259.935 30.35C258.535 29.5167 256.985 29.1 255.285 29.1C253.585 29.1 252.035 29.5 250.635 30.3C249.235 31.1 248.118 32.2667 247.285 33.8C246.452 35.3333 246.035 37.1333 246.035 39.2C246.035 41.3 246.452 43.1333 247.285 44.7C248.118 46.2333 249.235 47.4167 250.635 48.25C252.035 49.05 253.585 49.45 255.285 49.45C256.985 49.45 258.535 49.05 259.935 48.25C261.368 47.4167 262.502 46.2333 263.335 44.7C264.168 43.1333 264.585 41.3167 264.585 39.25ZM282.257 30.65C283.157 29.0833 284.491 27.7833 286.257 26.75C288.057 25.6833 290.141 25.15 292.507 25.15C294.941 25.15 297.141 25.7333 299.107 26.9C301.107 28.0667 302.674 29.7167 303.807 31.85C304.941 33.95 305.507 36.4 305.507 39.2C305.507 41.9667 304.941 44.4333 303.807 46.6C302.674 48.7667 301.107 50.45 299.107 51.65C297.141 52.85 294.941 53.45 292.507 53.45C290.174 53.45 288.107 52.9333 286.307 51.9C284.541 50.8333 283.191 49.5167 282.257 47.95V66H277.707V25.6H282.257V30.65ZM300.857 39.2C300.857 37.1333 300.441 35.3333 299.607 33.8C298.774 32.2667 297.641 31.1 296.207 30.3C294.807 29.5 293.257 29.1 291.557 29.1C289.891 29.1 288.341 29.5167 286.907 30.35C285.507 31.15 284.374 32.3333 283.507 33.9C282.674 35.4333 282.257 37.2167 282.257 39.25C282.257 41.3167 282.674 43.1333 283.507 44.7C284.374 46.2333 285.507 47.4167 286.907 48.25C288.341 49.05 289.891 49.45 291.557 49.45C293.257 49.45 294.807 49.05 296.207 48.25C297.641 47.4167 298.774 46.2333 299.607 44.7C300.441 43.1333 300.857 41.3 300.857 39.2ZM325.93 25.1C327.996 25.1 329.863 25.55 331.53 26.45C333.196 27.3167 334.496 28.6333 335.43 30.4C336.396 32.1667 336.88 34.3167 336.88 36.85V53H332.38V37.5C332.38 34.7667 331.696 32.6833 330.33 31.25C328.963 29.7833 327.096 29.05 324.73 29.05C322.33 29.05 320.413 29.8 318.98 31.3C317.58 32.8 316.88 34.9833 316.88 37.85V53H312.33V16H316.88V29.5C317.78 28.1 319.013 27.0167 320.58 26.25C322.18 25.4833 323.963 25.1 325.93 25.1ZM347.496 21.15C346.629 21.15 345.896 20.85 345.296 20.25C344.696 19.65 344.396 18.9167 344.396 18.05C344.396 17.1833 344.696 16.45 345.296 15.85C345.896 15.25 346.629 14.95 347.496 14.95C348.329 14.95 349.029 15.25 349.596 15.85C350.196 16.45 350.496 17.1833 350.496 18.05C350.496 18.9167 350.196 19.65 349.596 20.25C349.029 20.85 348.329 21.15 347.496 21.15ZM349.696 25.6V53H345.146V25.6H349.696ZM356.584 39.25C356.584 36.4167 357.15 33.95 358.284 31.85C359.417 29.7167 360.984 28.0667 362.984 26.9C365.017 25.7333 367.334 25.15 369.934 25.15C373.3 25.15 376.067 25.9667 378.234 27.6C380.434 29.2333 381.884 31.5 382.584 34.4H377.684C377.217 32.7333 376.3 31.4167 374.934 30.45C373.6 29.4833 371.934 29 369.934 29C367.334 29 365.234 29.9 363.634 31.7C362.034 33.4667 361.234 35.9833 361.234 39.25C361.234 42.55 362.034 45.1 363.634 46.9C365.234 48.7 367.334 49.6 369.934 49.6C371.934 49.6 373.6 49.1333 374.934 48.2C376.267 47.2667 377.184 45.9333 377.684 44.2H382.584C381.85 47 380.384 49.25 378.184 50.95C375.984 52.6167 373.234 53.45 369.934 53.45C367.334 53.45 365.017 52.8667 362.984 51.7C360.984 50.5333 359.417 48.8833 358.284 46.75C357.15 44.6167 356.584 42.1167 356.584 39.25ZM414.501 18.15C418.301 18.15 421.585 18.8667 424.351 20.3C427.151 21.7 429.285 23.7167 430.751 26.35C432.251 28.9833 433.001 32.0833 433.001 35.65C433.001 39.2167 432.251 42.3167 430.751 44.95C429.285 47.55 427.151 49.55 424.351 50.95C421.585 52.3167 418.301 53 414.501 53H403.651V18.15H414.501ZM414.501 49.25C419.001 49.25 422.435 48.0667 424.801 45.7C427.168 43.3 428.351 39.95 428.351 35.65C428.351 31.3167 427.151 27.9333 424.751 25.5C422.385 23.0667 418.968 21.85 414.501 21.85H408.201V49.25H414.501ZM464.836 38.25C464.836 39.1167 464.786 40.0333 464.686 41H442.786C442.953 43.7 443.87 45.8167 445.536 47.35C447.236 48.85 449.286 49.6 451.686 49.6C453.653 49.6 455.286 49.15 456.586 48.25C457.92 47.3167 458.853 46.0833 459.386 44.55H464.286C463.553 47.1833 462.086 49.3333 459.886 51C457.686 52.6333 454.953 53.45 451.686 53.45C449.086 53.45 446.753 52.8667 444.686 51.7C442.653 50.5333 441.053 48.8833 439.886 46.75C438.72 44.5833 438.136 42.0833 438.136 39.25C438.136 36.4167 438.703 33.9333 439.836 31.8C440.97 29.6667 442.553 28.0333 444.586 26.9C446.653 25.7333 449.02 25.15 451.686 25.15C454.286 25.15 456.586 25.7167 458.586 26.85C460.586 27.9833 462.12 29.55 463.186 31.55C464.286 33.5167 464.836 35.75 464.836 38.25ZM460.136 37.3C460.136 35.5667 459.753 34.0833 458.986 32.85C458.22 31.5833 457.17 30.6333 455.836 30C454.536 29.3333 453.086 29 451.486 29C449.186 29 447.22 29.7333 445.586 31.2C443.986 32.6667 443.07 34.7 442.836 37.3H460.136ZM481.376 53.45C479.276 53.45 477.392 53.1 475.726 52.4C474.059 51.6667 472.742 50.6667 471.776 49.4C470.809 48.1 470.276 46.6167 470.176 44.95H474.876C475.009 46.3167 475.642 47.4333 476.776 48.3C477.942 49.1667 479.459 49.6 481.326 49.6C483.059 49.6 484.426 49.2167 485.426 48.45C486.426 47.6833 486.926 46.7167 486.926 45.55C486.926 44.35 486.392 43.4667 485.326 42.9C484.259 42.3 482.609 41.7167 480.376 41.15C478.342 40.6167 476.676 40.0833 475.376 39.55C474.109 38.9833 473.009 38.1667 472.076 37.1C471.176 36 470.726 34.5667 470.726 32.8C470.726 31.4 471.142 30.1167 471.976 28.95C472.809 27.7833 473.992 26.8667 475.526 26.2C477.059 25.5 478.809 25.15 480.776 25.15C483.809 25.15 486.259 25.9167 488.126 27.45C489.992 28.9833 490.992 31.0833 491.126 33.75H486.576C486.476 32.3167 485.892 31.1667 484.826 30.3C483.792 29.4333 482.392 29 480.626 29C478.992 29 477.692 29.35 476.726 30.05C475.759 30.75 475.276 31.6667 475.276 32.8C475.276 33.7 475.559 34.45 476.126 35.05C476.726 35.6167 477.459 36.0833 478.326 36.45C479.226 36.7833 480.459 37.1667 482.026 37.6C483.992 38.1333 485.592 38.6667 486.826 39.2C488.059 39.7 489.109 40.4667 489.976 41.5C490.876 42.5333 491.342 43.8833 491.376 45.55C491.376 47.05 490.959 48.4 490.126 49.6C489.292 50.8 488.109 51.75 486.576 52.45C485.076 53.1167 483.342 53.45 481.376 53.45ZM500.982 21.15C500.115 21.15 499.382 20.85 498.782 20.25C498.182 19.65 497.882 18.9167 497.882 18.05C497.882 17.1833 498.182 16.45 498.782 15.85C499.382 15.25 500.115 14.95 500.982 14.95C501.815 14.95 502.515 15.25 503.082 15.85C503.682 16.45 503.982 17.1833 503.982 18.05C503.982 18.9167 503.682 19.65 503.082 20.25C502.515 20.85 501.815 21.15 500.982 21.15ZM503.182 25.6V53H498.632V25.6H503.182ZM523.07 25.15C525.437 25.15 527.503 25.6667 529.27 26.7C531.07 27.7333 532.403 29.0333 533.27 30.6V25.6H537.87V53.6C537.87 56.1 537.337 58.3167 536.27 60.25C535.203 62.2167 533.67 63.75 531.67 64.85C529.703 65.95 527.403 66.5 524.77 66.5C521.17 66.5 518.17 65.65 515.77 63.95C513.37 62.25 511.953 59.9333 511.52 57H516.02C516.52 58.6667 517.553 60 519.12 61C520.687 62.0333 522.57 62.55 524.77 62.55C527.27 62.55 529.303 61.7667 530.87 60.2C532.47 58.6333 533.27 56.4333 533.27 53.6V47.85C532.37 49.45 531.037 50.7833 529.27 51.85C527.503 52.9167 525.437 53.45 523.07 53.45C520.637 53.45 518.42 52.85 516.42 51.65C514.453 50.45 512.903 48.7667 511.77 46.6C510.637 44.4333 510.07 41.9667 510.07 39.2C510.07 36.4 510.637 33.95 511.77 31.85C512.903 29.7167 514.453 28.0667 516.42 26.9C518.42 25.7333 520.637 25.15 523.07 25.15ZM533.27 39.25C533.27 37.1833 532.853 35.3833 532.02 33.85C531.187 32.3167 530.053 31.15 528.62 30.35C527.22 29.5167 525.67 29.1 523.97 29.1C522.27 29.1 520.72 29.5 519.32 30.3C517.92 31.1 516.803 32.2667 515.97 33.8C515.137 35.3333 514.72 37.1333 514.72 39.2C514.72 41.3 515.137 43.1333 515.97 44.7C516.803 46.2333 517.92 47.4167 519.32 48.25C520.72 49.05 522.27 49.45 523.97 49.45C525.67 49.45 527.22 49.05 528.62 48.25C530.053 47.4167 531.187 46.2333 532.02 44.7C532.853 43.1333 533.27 41.3167 533.27 39.25ZM559.742 25.1C563.076 25.1 565.776 26.1167 567.842 28.15C569.909 30.15 570.942 33.05 570.942 36.85V53H566.442V37.5C566.442 34.7667 565.759 32.6833 564.392 31.25C563.026 29.7833 561.159 29.05 558.792 29.05C556.392 29.05 554.476 29.8 553.042 31.3C551.642 32.8 550.942 34.9833 550.942 37.85V53H546.392V25.6H550.942V29.5C551.842 28.1 553.059 27.0167 554.592 26.25C556.159 25.4833 557.876 25.1 559.742 25.1Z" fill="black"/>
<path opacity="0.5" d="M180.532 87.04V85.878H183.164V96H181.876V87.04H180.532ZM185.698 94.978C186.884 94.026 187.812 93.2467 188.484 92.64C189.156 92.024 189.721 91.3847 190.178 90.722C190.645 90.05 190.878 89.392 190.878 88.748C190.878 88.1413 190.729 87.6653 190.43 87.32C190.141 86.9653 189.67 86.788 189.016 86.788C188.382 86.788 187.887 86.9887 187.532 87.39C187.187 87.782 187 88.3093 186.972 88.972H185.74C185.778 87.9267 186.095 87.1193 186.692 86.55C187.29 85.9807 188.06 85.696 189.002 85.696C189.964 85.696 190.724 85.962 191.284 86.494C191.854 87.026 192.138 87.7587 192.138 88.692C192.138 89.4667 191.905 90.2227 191.438 90.96C190.981 91.688 190.458 92.332 189.87 92.892C189.282 93.4427 188.531 94.0867 187.616 94.824H192.432V95.888H185.698V94.978ZM200.859 86.984H195.945V90.176C196.16 89.8773 196.477 89.6347 196.897 89.448C197.317 89.252 197.77 89.154 198.255 89.154C199.03 89.154 199.66 89.3173 200.145 89.644C200.63 89.9613 200.976 90.3767 201.181 90.89C201.396 91.394 201.503 91.9307 201.503 92.5C201.503 93.172 201.377 93.774 201.125 94.306C200.873 94.838 200.486 95.258 199.963 95.566C199.45 95.874 198.81 96.028 198.045 96.028C197.065 96.028 196.272 95.776 195.665 95.272C195.058 94.768 194.69 94.096 194.559 93.256H195.805C195.926 93.788 196.183 94.2033 196.575 94.502C196.967 94.8007 197.462 94.95 198.059 94.95C198.796 94.95 199.352 94.7307 199.725 94.292C200.098 93.844 200.285 93.256 200.285 92.528C200.285 91.8 200.098 91.24 199.725 90.848C199.352 90.4467 198.801 90.246 198.073 90.246C197.578 90.246 197.144 90.3673 196.771 90.61C196.407 90.8433 196.141 91.1653 195.973 91.576H194.769V85.864H200.859V86.984ZM207.663 92.15C207.663 91.3567 207.821 90.666 208.139 90.078C208.456 89.4807 208.895 89.0187 209.455 88.692C210.024 88.3653 210.673 88.202 211.401 88.202C212.343 88.202 213.118 88.4307 213.725 88.888C214.341 89.3453 214.747 89.98 214.943 90.792H213.571C213.44 90.3253 213.183 89.9567 212.801 89.686C212.427 89.4153 211.961 89.28 211.401 89.28C210.673 89.28 210.085 89.532 209.637 90.036C209.189 90.5307 208.965 91.2353 208.965 92.15C208.965 93.074 209.189 93.788 209.637 94.292C210.085 94.796 210.673 95.048 211.401 95.048C211.961 95.048 212.427 94.9173 212.801 94.656C213.174 94.3947 213.431 94.0213 213.571 93.536H214.943C214.737 94.32 214.327 94.95 213.711 95.426C213.095 95.8927 212.325 96.126 211.401 96.126C210.673 96.126 210.024 95.9627 209.455 95.636C208.895 95.3093 208.456 94.8473 208.139 94.25C207.821 93.6527 207.663 92.9527 207.663 92.15ZM220.488 96.126C219.77 96.126 219.116 95.9627 218.528 95.636C217.95 95.3093 217.492 94.8473 217.156 94.25C216.83 93.6433 216.666 92.9433 216.666 92.15C216.666 91.366 216.834 90.6753 217.17 90.078C217.516 89.4713 217.982 89.0093 218.57 88.692C219.158 88.3653 219.816 88.202 220.544 88.202C221.272 88.202 221.93 88.3653 222.518 88.692C223.106 89.0093 223.568 89.4667 223.904 90.064C224.25 90.6613 224.422 91.3567 224.422 92.15C224.422 92.9433 224.245 93.6433 223.89 94.25C223.545 94.8473 223.074 95.3093 222.476 95.636C221.879 95.9627 221.216 96.126 220.488 96.126ZM220.488 95.006C220.946 95.006 221.375 94.8987 221.776 94.684C222.178 94.4693 222.5 94.1473 222.742 93.718C222.994 93.2887 223.12 92.766 223.12 92.15C223.12 91.534 222.999 91.0113 222.756 90.582C222.514 90.1527 222.196 89.8353 221.804 89.63C221.412 89.4153 220.988 89.308 220.53 89.308C220.064 89.308 219.634 89.4153 219.242 89.63C218.86 89.8353 218.552 90.1527 218.318 90.582C218.085 91.0113 217.968 91.534 217.968 92.15C217.968 92.7753 218.08 93.3027 218.304 93.732C218.538 94.1613 218.846 94.4833 219.228 94.698C219.611 94.9033 220.031 95.006 220.488 95.006ZM233.402 88.328V96H232.128V94.866C231.885 95.258 231.544 95.566 231.106 95.79C230.676 96.0047 230.2 96.112 229.678 96.112C229.08 96.112 228.544 95.9907 228.068 95.748C227.592 95.496 227.214 95.1227 226.934 94.628C226.663 94.1333 226.528 93.5313 226.528 92.822V88.328H227.788V92.654C227.788 93.41 227.979 93.9933 228.362 94.404C228.744 94.8053 229.267 95.006 229.93 95.006C230.611 95.006 231.148 94.796 231.54 94.376C231.932 93.956 232.128 93.3447 232.128 92.542V88.328H233.402ZM237.327 89.574C237.551 89.1353 237.868 88.7947 238.279 88.552C238.699 88.3093 239.207 88.188 239.805 88.188V89.504H239.469C238.041 89.504 237.327 90.2787 237.327 91.828V96H236.053V88.328H237.327V89.574ZM244.491 96.126C243.903 96.126 243.376 96.028 242.909 95.832C242.443 95.6267 242.074 95.3467 241.803 94.992C241.533 94.628 241.383 94.2127 241.355 93.746H242.671C242.709 94.1287 242.886 94.4413 243.203 94.684C243.53 94.9267 243.955 95.048 244.477 95.048C244.963 95.048 245.345 94.9407 245.625 94.726C245.905 94.5113 246.045 94.2407 246.045 93.914C246.045 93.578 245.896 93.3307 245.597 93.172C245.299 93.004 244.837 92.8407 244.211 92.682C243.642 92.5327 243.175 92.3833 242.811 92.234C242.457 92.0753 242.149 91.8467 241.887 91.548C241.635 91.24 241.509 90.8387 241.509 90.344C241.509 89.952 241.626 89.5927 241.859 89.266C242.093 88.9393 242.424 88.6827 242.853 88.496C243.283 88.3 243.773 88.202 244.323 88.202C245.173 88.202 245.859 88.4167 246.381 88.846C246.904 89.2753 247.184 89.8633 247.221 90.61H245.947C245.919 90.2087 245.756 89.8867 245.457 89.644C245.168 89.4013 244.776 89.28 244.281 89.28C243.824 89.28 243.46 89.378 243.189 89.574C242.919 89.77 242.783 90.0267 242.783 90.344C242.783 90.596 242.863 90.806 243.021 90.974C243.189 91.1327 243.395 91.2633 243.637 91.366C243.889 91.4593 244.235 91.5667 244.673 91.688C245.224 91.8373 245.672 91.9867 246.017 92.136C246.363 92.276 246.657 92.4907 246.899 92.78C247.151 93.0693 247.282 93.4473 247.291 93.914C247.291 94.334 247.175 94.712 246.941 95.048C246.708 95.384 246.377 95.65 245.947 95.846C245.527 96.0327 245.042 96.126 244.491 96.126ZM256.59 91.87C256.59 92.1127 256.576 92.3693 256.548 92.64H250.416C250.462 93.396 250.719 93.9887 251.186 94.418C251.662 94.838 252.236 95.048 252.908 95.048C253.458 95.048 253.916 94.922 254.28 94.67C254.653 94.4087 254.914 94.0633 255.064 93.634H256.436C256.23 94.3713 255.82 94.9733 255.204 95.44C254.588 95.8973 253.822 96.126 252.908 96.126C252.18 96.126 251.526 95.9627 250.948 95.636C250.378 95.3093 249.93 94.8473 249.604 94.25C249.277 93.6433 249.114 92.9433 249.114 92.15C249.114 91.3567 249.272 90.6613 249.59 90.064C249.907 89.4667 250.35 89.0093 250.92 88.692C251.498 88.3653 252.161 88.202 252.908 88.202C253.636 88.202 254.28 88.3607 254.84 88.678C255.4 88.9953 255.829 89.434 256.128 89.994C256.436 90.5447 256.59 91.17 256.59 91.87ZM255.274 91.604C255.274 91.1187 255.166 90.7033 254.952 90.358C254.737 90.0033 254.443 89.7373 254.07 89.56C253.706 89.3733 253.3 89.28 252.852 89.28C252.208 89.28 251.657 89.4853 251.2 89.896C250.752 90.3067 250.495 90.876 250.43 91.604H255.274ZM261.487 96.126C260.899 96.126 260.372 96.028 259.905 95.832C259.439 95.6267 259.07 95.3467 258.799 94.992C258.529 94.628 258.379 94.2127 258.351 93.746H259.667C259.705 94.1287 259.882 94.4413 260.199 94.684C260.526 94.9267 260.951 95.048 261.473 95.048C261.959 95.048 262.341 94.9407 262.621 94.726C262.901 94.5113 263.041 94.2407 263.041 93.914C263.041 93.578 262.892 93.3307 262.593 93.172C262.295 93.004 261.833 92.8407 261.207 92.682C260.638 92.5327 260.171 92.3833 259.807 92.234C259.453 92.0753 259.145 91.8467 258.883 91.548C258.631 91.24 258.505 90.8387 258.505 90.344C258.505 89.952 258.622 89.5927 258.855 89.266C259.089 88.9393 259.42 88.6827 259.849 88.496C260.279 88.3 260.769 88.202 261.319 88.202C262.169 88.202 262.855 88.4167 263.377 88.846C263.9 89.2753 264.18 89.8633 264.217 90.61H262.943C262.915 90.2087 262.752 89.8867 262.453 89.644C262.164 89.4013 261.772 89.28 261.277 89.28C260.82 89.28 260.456 89.378 260.185 89.574C259.915 89.77 259.779 90.0267 259.779 90.344C259.779 90.596 259.859 90.806 260.017 90.974C260.185 91.1327 260.391 91.2633 260.633 91.366C260.885 91.4593 261.231 91.5667 261.669 91.688C262.22 91.8373 262.668 91.9867 263.013 92.136C263.359 92.276 263.653 92.4907 263.895 92.78C264.147 93.0693 264.278 93.4473 264.287 93.914C264.287 94.334 264.171 94.712 263.937 95.048C263.704 95.384 263.373 95.65 262.943 95.846C262.523 96.0327 262.038 96.126 261.487 96.126Z" fill="black"/>
<path opacity="0.34" d="M1.325 45.65C1.325 42.7667 1.84167 40.5083 2.875 38.875C3.925 37.2417 5.65833 36.425 8.075 36.425C10.4917 36.425 12.2167 37.2417 13.25 38.875C14.3 40.5083 14.825 42.7667 14.825 45.65C14.825 48.55 14.3 50.825 13.25 52.475C12.2167 54.125 10.4917 54.95 8.075 54.95C5.65833 54.95 3.925 54.125 2.875 52.475C1.84167 50.825 1.325 48.55 1.325 45.65ZM11.375 45.65C11.375 44.4167 11.2917 43.3833 11.125 42.55C10.975 41.7 10.6583 41.0083 10.175 40.475C9.70833 39.9417 9.00833 39.675 8.075 39.675C7.14167 39.675 6.43333 39.9417 5.95 40.475C5.48333 41.0083 5.16667 41.7 5 42.55C4.85 43.3833 4.775 44.4167 4.775 45.65C4.775 46.9167 4.85 47.9833 5 48.85C5.15 49.7 5.46667 50.3917 5.95 50.925C6.43333 51.4417 7.14167 51.7 8.075 51.7C9.00833 51.7 9.71667 51.4417 10.2 50.925C10.6833 50.3917 11 49.7 11.15 48.85C11.3 47.9833 11.375 46.9167 11.375 45.65ZM17.0621 40V36.775H23.0871V55H19.4871V40H17.0621Z" fill="black"/>
<path d="M1055.5 49.1052H1077.56" stroke="black" stroke-width="2" stroke-linecap="round" stroke-linejoin="round"/>
<path d="M1069.84 38.9995L1079.72 48.7262L1069.84 58.4529" stroke="black" stroke-width="2" stroke-linecap="round" stroke-linejoin="round"/>
<path opacity="0.4" d="M0 153H1080" stroke="black" stroke-width="0.5"/>
</svg>
