<svg width="1081" height="154" viewBox="0 0 1081 154" fill="none" xmlns="http://www.w3.org/2000/svg">
<path d="M207.15 28.35C207.15 31.25 206.15 33.6667 204.15 35.6C202.183 37.5 199.167 38.45 195.1 38.45H188.4V53H183.85V18.15H195.1C199.033 18.15 202.017 19.1 204.05 21C206.117 22.9 207.15 25.35 207.15 28.35ZM195.1 34.7C197.633 34.7 199.5 34.15 200.7 33.05C201.9 31.95 202.5 30.3833 202.5 28.35C202.5 24.05 200.033 21.9 195.1 21.9H188.4V34.7H195.1ZM227.238 25.1C229.305 25.1 231.172 25.55 232.838 26.45C234.505 27.3167 235.805 28.6333 236.738 30.4C237.705 32.1667 238.188 34.3167 238.188 36.85V53H233.688V37.5C233.688 34.7667 233.005 32.6833 231.638 31.25C230.272 29.7833 228.405 29.05 226.038 29.05C223.638 29.05 221.722 29.8 220.288 31.3C218.888 32.8 218.188 34.9833 218.188 37.85V53H213.638V16H218.188V29.5C219.088 28.1 220.322 27.0167 221.888 26.25C223.488 25.4833 225.272 25.1 227.238 25.1ZM258.404 53.45C255.838 53.45 253.504 52.8667 251.404 51.7C249.338 50.5333 247.704 48.8833 246.504 46.75C245.338 44.5833 244.754 42.0833 244.754 39.25C244.754 36.45 245.354 33.9833 246.554 31.85C247.788 29.6833 249.454 28.0333 251.554 26.9C253.654 25.7333 256.004 25.15 258.604 25.15C261.204 25.15 263.554 25.7333 265.654 26.9C267.754 28.0333 269.404 29.6667 270.604 31.8C271.838 33.9333 272.454 36.4167 272.454 39.25C272.454 42.0833 271.821 44.5833 270.554 46.75C269.321 48.8833 267.638 50.5333 265.504 51.7C263.371 52.8667 261.004 53.45 258.404 53.45ZM258.404 49.45C260.038 49.45 261.571 49.0667 263.004 48.3C264.438 47.5333 265.588 46.3833 266.454 44.85C267.354 43.3167 267.804 41.45 267.804 39.25C267.804 37.05 267.371 35.1833 266.504 33.65C265.638 32.1167 264.504 30.9833 263.104 30.25C261.704 29.4833 260.188 29.1 258.554 29.1C256.888 29.1 255.354 29.4833 253.954 30.25C252.588 30.9833 251.488 32.1167 250.654 33.65C249.821 35.1833 249.404 37.05 249.404 39.25C249.404 41.4833 249.804 43.3667 250.604 44.9C251.438 46.4333 252.538 47.5833 253.904 48.35C255.271 49.0833 256.771 49.45 258.404 49.45ZM284.82 29.35V45.5C284.82 46.8333 285.103 47.7833 285.67 48.35C286.237 48.8833 287.22 49.15 288.62 49.15H291.97V53H287.87C285.337 53 283.437 52.4167 282.17 51.25C280.903 50.0833 280.27 48.1667 280.27 45.5V29.35H276.72V25.6H280.27V18.7H284.82V25.6H291.97V29.35H284.82ZM310.266 53.45C307.699 53.45 305.366 52.8667 303.266 51.7C301.199 50.5333 299.566 48.8833 298.366 46.75C297.199 44.5833 296.616 42.0833 296.616 39.25C296.616 36.45 297.216 33.9833 298.416 31.85C299.649 29.6833 301.316 28.0333 303.416 26.9C305.516 25.7333 307.866 25.15 310.466 25.15C313.066 25.15 315.416 25.7333 317.516 26.9C319.616 28.0333 321.266 29.6667 322.466 31.8C323.699 33.9333 324.316 36.4167 324.316 39.25C324.316 42.0833 323.683 44.5833 322.416 46.75C321.183 48.8833 319.499 50.5333 317.366 51.7C315.233 52.8667 312.866 53.45 310.266 53.45ZM310.266 49.45C311.899 49.45 313.433 49.0667 314.866 48.3C316.299 47.5333 317.449 46.3833 318.316 44.85C319.216 43.3167 319.666 41.45 319.666 39.25C319.666 37.05 319.233 35.1833 318.366 33.65C317.499 32.1167 316.366 30.9833 314.966 30.25C313.566 29.4833 312.049 29.1 310.416 29.1C308.749 29.1 307.216 29.4833 305.816 30.25C304.449 30.9833 303.349 32.1167 302.516 33.65C301.683 35.1833 301.266 37.05 301.266 39.25C301.266 41.4833 301.666 43.3667 302.466 44.9C303.299 46.4333 304.399 47.5833 305.766 48.35C307.133 49.0833 308.633 49.45 310.266 49.45ZM342.432 25.15C344.799 25.15 346.865 25.6667 348.632 26.7C350.432 27.7333 351.765 29.0333 352.632 30.6V25.6H357.232V53.6C357.232 56.1 356.699 58.3167 355.632 60.25C354.565 62.2167 353.032 63.75 351.032 64.85C349.065 65.95 346.765 66.5 344.132 66.5C340.532 66.5 337.532 65.65 335.132 63.95C332.732 62.25 331.315 59.9333 330.882 57H335.382C335.882 58.6667 336.915 60 338.482 61C340.049 62.0333 341.932 62.55 344.132 62.55C346.632 62.55 348.665 61.7667 350.232 60.2C351.832 58.6333 352.632 56.4333 352.632 53.6V47.85C351.732 49.45 350.399 50.7833 348.632 51.85C346.865 52.9167 344.799 53.45 342.432 53.45C339.999 53.45 337.782 52.85 335.782 51.65C333.815 50.45 332.265 48.7667 331.132 46.6C329.999 44.4333 329.432 41.9667 329.432 39.2C329.432 36.4 329.999 33.95 331.132 31.85C332.265 29.7167 333.815 28.0667 335.782 26.9C337.782 25.7333 339.999 25.15 342.432 25.15ZM352.632 39.25C352.632 37.1833 352.215 35.3833 351.382 33.85C350.549 32.3167 349.415 31.15 347.982 30.35C346.582 29.5167 345.032 29.1 343.332 29.1C341.632 29.1 340.082 29.5 338.682 30.3C337.282 31.1 336.165 32.2667 335.332 33.8C334.499 35.3333 334.082 37.1333 334.082 39.2C334.082 41.3 334.499 43.1333 335.332 44.7C336.165 46.2333 337.282 47.4167 338.682 48.25C340.082 49.05 341.632 49.45 343.332 49.45C345.032 49.45 346.582 49.05 347.982 48.25C349.415 47.4167 350.549 46.2333 351.382 44.7C352.215 43.1333 352.632 41.3167 352.632 39.25ZM370.304 30.05C371.104 28.4833 372.238 27.2667 373.704 26.4C375.204 25.5333 377.021 25.1 379.154 25.1V29.8H377.954C372.854 29.8 370.304 32.5667 370.304 38.1V53H365.754V25.6H370.304V30.05ZM383.54 39.2C383.54 36.4 384.107 33.95 385.24 31.85C386.373 29.7167 387.923 28.0667 389.89 26.9C391.89 25.7333 394.107 25.15 396.54 25.15C398.94 25.15 401.023 25.6667 402.79 26.7C404.557 27.7333 405.873 29.0333 406.74 30.6V25.6H411.34V53H406.74V47.9C405.84 49.5 404.49 50.8333 402.69 51.9C400.923 52.9333 398.857 53.45 396.49 53.45C394.057 53.45 391.857 52.85 389.89 51.65C387.923 50.45 386.373 48.7667 385.24 46.6C384.107 44.4333 383.54 41.9667 383.54 39.2ZM406.74 39.25C406.74 37.1833 406.323 35.3833 405.49 33.85C404.657 32.3167 403.523 31.15 402.09 30.35C400.69 29.5167 399.14 29.1 397.44 29.1C395.74 29.1 394.19 29.5 392.79 30.3C391.39 31.1 390.273 32.2667 389.44 33.8C388.607 35.3333 388.19 37.1333 388.19 39.2C388.19 41.3 388.607 43.1333 389.44 44.7C390.273 46.2333 391.39 47.4167 392.79 48.25C394.19 49.05 395.74 49.45 397.44 49.45C399.14 49.45 400.69 49.05 402.09 48.25C403.523 47.4167 404.657 46.2333 405.49 44.7C406.323 43.1333 406.74 41.3167 406.74 39.25ZM424.412 30.65C425.312 29.0833 426.646 27.7833 428.412 26.75C430.212 25.6833 432.296 25.15 434.662 25.15C437.096 25.15 439.296 25.7333 441.262 26.9C443.262 28.0667 444.829 29.7167 445.962 31.85C447.096 33.95 447.662 36.4 447.662 39.2C447.662 41.9667 447.096 44.4333 445.962 46.6C444.829 48.7667 443.262 50.45 441.262 51.65C439.296 52.85 437.096 53.45 434.662 53.45C432.329 53.45 430.262 52.9333 428.462 51.9C426.696 50.8333 425.346 49.5167 424.412 47.95V66H419.862V25.6H424.412V30.65ZM443.012 39.2C443.012 37.1333 442.596 35.3333 441.762 33.8C440.929 32.2667 439.796 31.1 438.362 30.3C436.962 29.5 435.412 29.1 433.712 29.1C432.046 29.1 430.496 29.5167 429.062 30.35C427.662 31.15 426.529 32.3333 425.662 33.9C424.829 35.4333 424.412 37.2167 424.412 39.25C424.412 41.3167 424.829 43.1333 425.662 44.7C426.529 46.2333 427.662 47.4167 429.062 48.25C430.496 49.05 432.046 49.45 433.712 49.45C435.412 49.45 436.962 49.05 438.362 48.25C439.796 47.4167 440.929 46.2333 441.762 44.7C442.596 43.1333 443.012 41.3 443.012 39.2ZM468.085 25.1C470.151 25.1 472.018 25.55 473.685 26.45C475.351 27.3167 476.651 28.6333 477.585 30.4C478.551 32.1667 479.035 34.3167 479.035 36.85V53H474.535V37.5C474.535 34.7667 473.851 32.6833 472.485 31.25C471.118 29.7833 469.251 29.05 466.885 29.05C464.485 29.05 462.568 29.8 461.135 31.3C459.735 32.8 459.035 34.9833 459.035 37.85V53H454.485V16H459.035V29.5C459.935 28.1 461.168 27.0167 462.735 26.25C464.335 25.4833 466.118 25.1 468.085 25.1ZM510.901 25.6L494.401 65.9H489.701L495.101 52.7L484.051 25.6H489.101L497.701 47.8L506.201 25.6H510.901Z" fill="black"/>
<path opacity="0.5" d="M180.532 87.04V85.878H183.164V96H181.876V87.04H180.532ZM185.698 94.978C186.884 94.026 187.812 93.2467 188.484 92.64C189.156 92.024 189.721 91.3847 190.178 90.722C190.645 90.05 190.878 89.392 190.878 88.748C190.878 88.1413 190.729 87.6653 190.43 87.32C190.141 86.9653 189.67 86.788 189.016 86.788C188.382 86.788 187.887 86.9887 187.532 87.39C187.187 87.782 187 88.3093 186.972 88.972H185.74C185.778 87.9267 186.095 87.1193 186.692 86.55C187.29 85.9807 188.06 85.696 189.002 85.696C189.964 85.696 190.724 85.962 191.284 86.494C191.854 87.026 192.138 87.7587 192.138 88.692C192.138 89.4667 191.905 90.2227 191.438 90.96C190.981 91.688 190.458 92.332 189.87 92.892C189.282 93.4427 188.531 94.0867 187.616 94.824H192.432V95.888H185.698V94.978ZM200.859 86.984H195.945V90.176C196.16 89.8773 196.477 89.6347 196.897 89.448C197.317 89.252 197.77 89.154 198.255 89.154C199.03 89.154 199.66 89.3173 200.145 89.644C200.63 89.9613 200.976 90.3767 201.181 90.89C201.396 91.394 201.503 91.9307 201.503 92.5C201.503 93.172 201.377 93.774 201.125 94.306C200.873 94.838 200.486 95.258 199.963 95.566C199.45 95.874 198.81 96.028 198.045 96.028C197.065 96.028 196.272 95.776 195.665 95.272C195.058 94.768 194.69 94.096 194.559 93.256H195.805C195.926 93.788 196.183 94.2033 196.575 94.502C196.967 94.8007 197.462 94.95 198.059 94.95C198.796 94.95 199.352 94.7307 199.725 94.292C200.098 93.844 200.285 93.256 200.285 92.528C200.285 91.8 200.098 91.24 199.725 90.848C199.352 90.4467 198.801 90.246 198.073 90.246C197.578 90.246 197.144 90.3673 196.771 90.61C196.407 90.8433 196.141 91.1653 195.973 91.576H194.769V85.864H200.859V86.984ZM207.663 92.15C207.663 91.3567 207.821 90.666 208.139 90.078C208.456 89.4807 208.895 89.0187 209.455 88.692C210.024 88.3653 210.673 88.202 211.401 88.202C212.343 88.202 213.118 88.4307 213.725 88.888C214.341 89.3453 214.747 89.98 214.943 90.792H213.571C213.44 90.3253 213.183 89.9567 212.801 89.686C212.427 89.4153 211.961 89.28 211.401 89.28C210.673 89.28 210.085 89.532 209.637 90.036C209.189 90.5307 208.965 91.2353 208.965 92.15C208.965 93.074 209.189 93.788 209.637 94.292C210.085 94.796 210.673 95.048 211.401 95.048C211.961 95.048 212.427 94.9173 212.801 94.656C213.174 94.3947 213.431 94.0213 213.571 93.536H214.943C214.737 94.32 214.327 94.95 213.711 95.426C213.095 95.8927 212.325 96.126 211.401 96.126C210.673 96.126 210.024 95.9627 209.455 95.636C208.895 95.3093 208.456 94.8473 208.139 94.25C207.821 93.6527 207.663 92.9527 207.663 92.15ZM220.488 96.126C219.77 96.126 219.116 95.9627 218.528 95.636C217.95 95.3093 217.492 94.8473 217.156 94.25C216.83 93.6433 216.666 92.9433 216.666 92.15C216.666 91.366 216.834 90.6753 217.17 90.078C217.516 89.4713 217.982 89.0093 218.57 88.692C219.158 88.3653 219.816 88.202 220.544 88.202C221.272 88.202 221.93 88.3653 222.518 88.692C223.106 89.0093 223.568 89.4667 223.904 90.064C224.25 90.6613 224.422 91.3567 224.422 92.15C224.422 92.9433 224.245 93.6433 223.89 94.25C223.545 94.8473 223.074 95.3093 222.476 95.636C221.879 95.9627 221.216 96.126 220.488 96.126ZM220.488 95.006C220.946 95.006 221.375 94.8987 221.776 94.684C222.178 94.4693 222.5 94.1473 222.742 93.718C222.994 93.2887 223.12 92.766 223.12 92.15C223.12 91.534 222.999 91.0113 222.756 90.582C222.514 90.1527 222.196 89.8353 221.804 89.63C221.412 89.4153 220.988 89.308 220.53 89.308C220.064 89.308 219.634 89.4153 219.242 89.63C218.86 89.8353 218.552 90.1527 218.318 90.582C218.085 91.0113 217.968 91.534 217.968 92.15C217.968 92.7753 218.08 93.3027 218.304 93.732C218.538 94.1613 218.846 94.4833 219.228 94.698C219.611 94.9033 220.031 95.006 220.488 95.006ZM233.402 88.328V96H232.128V94.866C231.885 95.258 231.544 95.566 231.106 95.79C230.676 96.0047 230.2 96.112 229.678 96.112C229.08 96.112 228.544 95.9907 228.068 95.748C227.592 95.496 227.214 95.1227 226.934 94.628C226.663 94.1333 226.528 93.5313 226.528 92.822V88.328H227.788V92.654C227.788 93.41 227.979 93.9933 228.362 94.404C228.744 94.8053 229.267 95.006 229.93 95.006C230.611 95.006 231.148 94.796 231.54 94.376C231.932 93.956 232.128 93.3447 232.128 92.542V88.328H233.402ZM237.327 89.574C237.551 89.1353 237.868 88.7947 238.279 88.552C238.699 88.3093 239.207 88.188 239.805 88.188V89.504H239.469C238.041 89.504 237.327 90.2787 237.327 91.828V96H236.053V88.328H237.327V89.574ZM244.491 96.126C243.903 96.126 243.376 96.028 242.909 95.832C242.443 95.6267 242.074 95.3467 241.803 94.992C241.533 94.628 241.383 94.2127 241.355 93.746H242.671C242.709 94.1287 242.886 94.4413 243.203 94.684C243.53 94.9267 243.955 95.048 244.477 95.048C244.963 95.048 245.345 94.9407 245.625 94.726C245.905 94.5113 246.045 94.2407 246.045 93.914C246.045 93.578 245.896 93.3307 245.597 93.172C245.299 93.004 244.837 92.8407 244.211 92.682C243.642 92.5327 243.175 92.3833 242.811 92.234C242.457 92.0753 242.149 91.8467 241.887 91.548C241.635 91.24 241.509 90.8387 241.509 90.344C241.509 89.952 241.626 89.5927 241.859 89.266C242.093 88.9393 242.424 88.6827 242.853 88.496C243.283 88.3 243.773 88.202 244.323 88.202C245.173 88.202 245.859 88.4167 246.381 88.846C246.904 89.2753 247.184 89.8633 247.221 90.61H245.947C245.919 90.2087 245.756 89.8867 245.457 89.644C245.168 89.4013 244.776 89.28 244.281 89.28C243.824 89.28 243.46 89.378 243.189 89.574C242.919 89.77 242.783 90.0267 242.783 90.344C242.783 90.596 242.863 90.806 243.021 90.974C243.189 91.1327 243.395 91.2633 243.637 91.366C243.889 91.4593 244.235 91.5667 244.673 91.688C245.224 91.8373 245.672 91.9867 246.017 92.136C246.363 92.276 246.657 92.4907 246.899 92.78C247.151 93.0693 247.282 93.4473 247.291 93.914C247.291 94.334 247.175 94.712 246.941 95.048C246.708 95.384 246.377 95.65 245.947 95.846C245.527 96.0327 245.042 96.126 244.491 96.126ZM256.59 91.87C256.59 92.1127 256.576 92.3693 256.548 92.64H250.416C250.462 93.396 250.719 93.9887 251.186 94.418C251.662 94.838 252.236 95.048 252.908 95.048C253.458 95.048 253.916 94.922 254.28 94.67C254.653 94.4087 254.914 94.0633 255.064 93.634H256.436C256.23 94.3713 255.82 94.9733 255.204 95.44C254.588 95.8973 253.822 96.126 252.908 96.126C252.18 96.126 251.526 95.9627 250.948 95.636C250.378 95.3093 249.93 94.8473 249.604 94.25C249.277 93.6433 249.114 92.9433 249.114 92.15C249.114 91.3567 249.272 90.6613 249.59 90.064C249.907 89.4667 250.35 89.0093 250.92 88.692C251.498 88.3653 252.161 88.202 252.908 88.202C253.636 88.202 254.28 88.3607 254.84 88.678C255.4 88.9953 255.829 89.434 256.128 89.994C256.436 90.5447 256.59 91.17 256.59 91.87ZM255.274 91.604C255.274 91.1187 255.166 90.7033 254.952 90.358C254.737 90.0033 254.443 89.7373 254.07 89.56C253.706 89.3733 253.3 89.28 252.852 89.28C252.208 89.28 251.657 89.4853 251.2 89.896C250.752 90.3067 250.495 90.876 250.43 91.604H255.274ZM261.487 96.126C260.899 96.126 260.372 96.028 259.905 95.832C259.439 95.6267 259.07 95.3467 258.799 94.992C258.529 94.628 258.379 94.2127 258.351 93.746H259.667C259.705 94.1287 259.882 94.4413 260.199 94.684C260.526 94.9267 260.951 95.048 261.473 95.048C261.959 95.048 262.341 94.9407 262.621 94.726C262.901 94.5113 263.041 94.2407 263.041 93.914C263.041 93.578 262.892 93.3307 262.593 93.172C262.295 93.004 261.833 92.8407 261.207 92.682C260.638 92.5327 260.171 92.3833 259.807 92.234C259.453 92.0753 259.145 91.8467 258.883 91.548C258.631 91.24 258.505 90.8387 258.505 90.344C258.505 89.952 258.622 89.5927 258.855 89.266C259.089 88.9393 259.42 88.6827 259.849 88.496C260.279 88.3 260.769 88.202 261.319 88.202C262.169 88.202 262.855 88.4167 263.377 88.846C263.9 89.2753 264.18 89.8633 264.217 90.61H262.943C262.915 90.2087 262.752 89.8867 262.453 89.644C262.164 89.4013 261.772 89.28 261.277 89.28C260.82 89.28 260.456 89.378 260.185 89.574C259.915 89.77 259.779 90.0267 259.779 90.344C259.779 90.596 259.859 90.806 260.017 90.974C260.185 91.1327 260.391 91.2633 260.633 91.366C260.885 91.4593 261.231 91.5667 261.669 91.688C262.22 91.8373 262.668 91.9867 263.013 92.136C263.359 92.276 263.653 92.4907 263.895 92.78C264.147 93.0693 264.278 93.4473 264.287 93.914C264.287 94.334 264.171 94.712 263.937 95.048C263.704 95.384 263.373 95.65 262.943 95.846C262.523 96.0327 262.038 96.126 261.487 96.126Z" fill="black"/>
<path opacity="0.34" d="M1.325 45.65C1.325 42.7667 1.84167 40.5083 2.875 38.875C3.925 37.2417 5.65833 36.425 8.075 36.425C10.4917 36.425 12.2167 37.2417 13.25 38.875C14.3 40.5083 14.825 42.7667 14.825 45.65C14.825 48.55 14.3 50.825 13.25 52.475C12.2167 54.125 10.4917 54.95 8.075 54.95C5.65833 54.95 3.925 54.125 2.875 52.475C1.84167 50.825 1.325 48.55 1.325 45.65ZM11.375 45.65C11.375 44.4167 11.2917 43.3833 11.125 42.55C10.975 41.7 10.6583 41.0083 10.175 40.475C9.70833 39.9417 9.00833 39.675 8.075 39.675C7.14167 39.675 6.43333 39.9417 5.95 40.475C5.48333 41.0083 5.16667 41.7 5 42.55C4.85 43.3833 4.775 44.4167 4.775 45.65C4.775 46.9167 4.85 47.9833 5 48.85C5.15 49.7 5.46667 50.3917 5.95 50.925C6.43333 51.4417 7.14167 51.7 8.075 51.7C9.00833 51.7 9.71667 51.4417 10.2 50.925C10.6833 50.3917 11 49.7 11.15 48.85C11.3 47.9833 11.375 46.9167 11.375 45.65ZM18.5871 51.05C20.1871 49.7167 21.4621 48.6083 22.4121 47.725C23.3621 46.825 24.1538 45.8917 24.7871 44.925C25.4204 43.9583 25.7371 43.0083 25.7371 42.075C25.7371 41.225 25.5371 40.5583 25.1371 40.075C24.7371 39.5917 24.1204 39.35 23.2871 39.35C22.4538 39.35 21.8121 39.6333 21.3621 40.2C20.9121 40.75 20.6788 41.5083 20.6621 42.475H17.2621C17.3288 40.475 17.9204 38.9583 19.0371 37.925C20.1704 36.8917 21.6038 36.375 23.3371 36.375C25.2371 36.375 26.6954 36.8833 27.7121 37.9C28.7288 38.9 29.2371 40.225 29.2371 41.875C29.2371 43.175 28.8871 44.4167 28.1871 45.6C27.4871 46.7833 26.6871 47.8167 25.7871 48.7C24.8871 49.5667 23.7121 50.6167 22.2621 51.85H29.6371V54.75H17.2871V52.15L18.5871 51.05Z" fill="black"/>
<path d="M1055.5 49.1052H1077.56" stroke="black" stroke-width="2" stroke-linecap="round" stroke-linejoin="round"/>
<path d="M1069.84 38.9995L1079.72 48.7262L1069.84 58.4529" stroke="black" stroke-width="2" stroke-linecap="round" stroke-linejoin="round"/>
<path opacity="0.4" d="M0 153H1080" stroke="black" stroke-width="0.5"/>
</svg>
