<svg width="1081" height="103" viewBox="0 0 1081 103" fill="none" xmlns="http://www.w3.org/2000/svg">
<path d="M227.65 18.15L217.55 53H212.45L204.35 24.95L195.95 53L190.9 53.05L181.15 18.15H186L193.6 47.7L202 18.15H207.1L215.1 47.6L222.75 18.15H227.65ZM258.463 38.25C258.463 39.1167 258.413 40.0333 258.313 41H236.413C236.579 43.7 237.496 45.8167 239.163 47.35C240.863 48.85 242.913 49.6 245.313 49.6C247.279 49.6 248.913 49.15 250.213 48.25C251.546 47.3167 252.479 46.0833 253.013 44.55H257.913C257.179 47.1833 255.713 49.3333 253.513 51C251.313 52.6333 248.579 53.45 245.313 53.45C242.713 53.45 240.379 52.8667 238.313 51.7C236.279 50.5333 234.679 48.8833 233.513 46.75C232.346 44.5833 231.763 42.0833 231.763 39.25C231.763 36.4167 232.329 33.9333 233.463 31.8C234.596 29.6667 236.179 28.0333 238.213 26.9C240.279 25.7333 242.646 25.15 245.313 25.15C247.913 25.15 250.213 25.7167 252.213 26.85C254.213 27.9833 255.746 29.55 256.813 31.55C257.913 33.5167 258.463 35.75 258.463 38.25ZM253.763 37.3C253.763 35.5667 253.379 34.0833 252.613 32.85C251.846 31.5833 250.796 30.6333 249.463 30C248.163 29.3333 246.713 29 245.113 29C242.813 29 240.846 29.7333 239.213 31.2C237.613 32.6667 236.696 34.7 236.463 37.3H253.763ZM269.852 30.7C270.785 29.0667 272.152 27.7333 273.952 26.7C275.752 25.6667 277.802 25.15 280.102 25.15C282.568 25.15 284.785 25.7333 286.752 26.9C288.718 28.0667 290.268 29.7167 291.402 31.85C292.535 33.95 293.102 36.4 293.102 39.2C293.102 41.9667 292.535 44.4333 291.402 46.6C290.268 48.7667 288.702 50.45 286.702 51.65C284.735 52.85 282.535 53.45 280.102 53.45C277.735 53.45 275.652 52.9333 273.852 51.9C272.085 50.8667 270.752 49.55 269.852 47.95V53H265.302V16H269.852V30.7ZM288.452 39.2C288.452 37.1333 288.035 35.3333 287.202 33.8C286.368 32.2667 285.235 31.1 283.802 30.3C282.402 29.5 280.852 29.1 279.152 29.1C277.485 29.1 275.935 29.5167 274.502 30.35C273.102 31.15 271.968 32.3333 271.102 33.9C270.268 35.4333 269.852 37.2167 269.852 39.25C269.852 41.3167 270.268 43.1333 271.102 44.7C271.968 46.2333 273.102 47.4167 274.502 48.25C275.935 49.05 277.485 49.45 279.152 49.45C280.852 49.45 282.402 49.05 283.802 48.25C285.235 47.4167 286.368 46.2333 287.202 44.7C288.035 43.1333 288.452 41.3 288.452 39.2ZM324.938 18.15C328.738 18.15 332.021 18.8667 334.788 20.3C337.588 21.7 339.721 23.7167 341.188 26.35C342.688 28.9833 343.438 32.0833 343.438 35.65C343.438 39.2167 342.688 42.3167 341.188 44.95C339.721 47.55 337.588 49.55 334.788 50.95C332.021 52.3167 328.738 53 324.938 53H314.088V18.15H324.938ZM324.938 49.25C329.438 49.25 332.871 48.0667 335.238 45.7C337.604 43.3 338.788 39.95 338.788 35.65C338.788 31.3167 337.588 27.9333 335.188 25.5C332.821 23.0667 329.404 21.85 324.938 21.85H318.638V49.25H324.938ZM375.273 38.25C375.273 39.1167 375.223 40.0333 375.123 41H353.223C353.389 43.7 354.306 45.8167 355.973 47.35C357.673 48.85 359.723 49.6 362.123 49.6C364.089 49.6 365.723 49.15 367.023 48.25C368.356 47.3167 369.289 46.0833 369.823 44.55H374.723C373.989 47.1833 372.523 49.3333 370.323 51C368.123 52.6333 365.389 53.45 362.123 53.45C359.523 53.45 357.189 52.8667 355.123 51.7C353.089 50.5333 351.489 48.8833 350.323 46.75C349.156 44.5833 348.573 42.0833 348.573 39.25C348.573 36.4167 349.139 33.9333 350.273 31.8C351.406 29.6667 352.989 28.0333 355.023 26.9C357.089 25.7333 359.456 25.15 362.123 25.15C364.723 25.15 367.023 25.7167 369.023 26.85C371.023 27.9833 372.556 29.55 373.623 31.55C374.723 33.5167 375.273 35.75 375.273 38.25ZM370.573 37.3C370.573 35.5667 370.189 34.0833 369.423 32.85C368.656 31.5833 367.606 30.6333 366.273 30C364.973 29.3333 363.523 29 361.923 29C359.623 29 357.656 29.7333 356.023 31.2C354.423 32.6667 353.506 34.7 353.273 37.3H370.573ZM392.312 48.8L400.812 25.6H405.662L394.912 53H389.612L378.862 25.6H383.762L392.312 48.8ZM435.972 38.25C435.972 39.1167 435.922 40.0333 435.822 41H413.922C414.089 43.7 415.006 45.8167 416.672 47.35C418.372 48.85 420.422 49.6 422.822 49.6C424.789 49.6 426.422 49.15 427.722 48.25C429.056 47.3167 429.989 46.0833 430.522 44.55H435.422C434.689 47.1833 433.222 49.3333 431.022 51C428.822 52.6333 426.089 53.45 422.822 53.45C420.222 53.45 417.889 52.8667 415.822 51.7C413.789 50.5333 412.189 48.8833 411.022 46.75C409.856 44.5833 409.272 42.0833 409.272 39.25C409.272 36.4167 409.839 33.9333 410.972 31.8C412.106 29.6667 413.689 28.0333 415.722 26.9C417.789 25.7333 420.156 25.15 422.822 25.15C425.422 25.15 427.722 25.7167 429.722 26.85C431.722 27.9833 433.256 29.55 434.322 31.55C435.422 33.5167 435.972 35.75 435.972 38.25ZM431.272 37.3C431.272 35.5667 430.889 34.0833 430.122 32.85C429.356 31.5833 428.306 30.6333 426.972 30C425.672 29.3333 424.222 29 422.622 29C420.322 29 418.356 29.7333 416.722 31.2C415.122 32.6667 414.206 34.7 413.972 37.3H431.272ZM447.362 16V53H442.812V16H447.362ZM467.9 53.45C465.333 53.45 463 52.8667 460.9 51.7C458.833 50.5333 457.2 48.8833 456 46.75C454.833 44.5833 454.25 42.0833 454.25 39.25C454.25 36.45 454.85 33.9833 456.05 31.85C457.283 29.6833 458.95 28.0333 461.05 26.9C463.15 25.7333 465.5 25.15 468.1 25.15C470.7 25.15 473.05 25.7333 475.15 26.9C477.25 28.0333 478.9 29.6667 480.1 31.8C481.333 33.9333 481.95 36.4167 481.95 39.25C481.95 42.0833 481.316 44.5833 480.05 46.75C478.816 48.8833 477.133 50.5333 475 51.7C472.866 52.8667 470.5 53.45 467.9 53.45ZM467.9 49.45C469.533 49.45 471.066 49.0667 472.5 48.3C473.933 47.5333 475.083 46.3833 475.95 44.85C476.85 43.3167 477.3 41.45 477.3 39.25C477.3 37.05 476.866 35.1833 476 33.65C475.133 32.1167 474 30.9833 472.6 30.25C471.2 29.4833 469.683 29.1 468.05 29.1C466.383 29.1 464.85 29.4833 463.45 30.25C462.083 30.9833 460.983 32.1167 460.15 33.65C459.316 35.1833 458.9 37.05 458.9 39.25C458.9 41.4833 459.3 43.3667 460.1 44.9C460.933 46.4333 462.033 47.5833 463.4 48.35C464.766 49.0833 466.266 49.45 467.9 49.45ZM493.315 30.65C494.215 29.0833 495.549 27.7833 497.315 26.75C499.115 25.6833 501.199 25.15 503.565 25.15C505.999 25.15 508.199 25.7333 510.165 26.9C512.165 28.0667 513.732 29.7167 514.865 31.85C515.999 33.95 516.565 36.4 516.565 39.2C516.565 41.9667 515.999 44.4333 514.865 46.6C513.732 48.7667 512.165 50.45 510.165 51.65C508.199 52.85 505.999 53.45 503.565 53.45C501.232 53.45 499.165 52.9333 497.365 51.9C495.599 50.8333 494.249 49.5167 493.315 47.95V66H488.765V25.6H493.315V30.65ZM511.915 39.2C511.915 37.1333 511.499 35.3333 510.665 33.8C509.832 32.2667 508.699 31.1 507.265 30.3C505.865 29.5 504.315 29.1 502.615 29.1C500.949 29.1 499.399 29.5167 497.965 30.35C496.565 31.15 495.432 32.3333 494.565 33.9C493.732 35.4333 493.315 37.2167 493.315 39.25C493.315 41.3167 493.732 43.1333 494.565 44.7C495.432 46.2333 496.565 47.4167 497.965 48.25C499.399 49.05 500.949 49.45 502.615 49.45C504.315 49.45 505.865 49.05 507.265 48.25C508.699 47.4167 509.832 46.2333 510.665 44.7C511.499 43.1333 511.915 41.3 511.915 39.2ZM556.338 25.1C558.471 25.1 560.371 25.55 562.038 26.45C563.704 27.3167 565.021 28.6333 565.988 30.4C566.954 32.1667 567.438 34.3167 567.438 36.85V53H562.938V37.5C562.938 34.7667 562.254 32.6833 560.888 31.25C559.554 29.7833 557.738 29.05 555.438 29.05C553.071 29.05 551.188 29.8167 549.788 31.35C548.388 32.85 547.688 35.0333 547.688 37.9V53H543.188V37.5C543.188 34.7667 542.504 32.6833 541.138 31.25C539.804 29.7833 537.988 29.05 535.688 29.05C533.321 29.05 531.438 29.8167 530.038 31.35C528.638 32.85 527.938 35.0333 527.938 37.9V53H523.388V25.6H527.938V29.55C528.838 28.1167 530.038 27.0167 531.538 26.25C533.071 25.4833 534.754 25.1 536.588 25.1C538.888 25.1 540.921 25.6167 542.688 26.65C544.454 27.6833 545.771 29.2 546.638 31.2C547.404 29.2667 548.671 27.7667 550.438 26.7C552.204 25.6333 554.171 25.1 556.338 25.1ZM600.735 38.25C600.735 39.1167 600.685 40.0333 600.585 41H578.685C578.851 43.7 579.768 45.8167 581.435 47.35C583.135 48.85 585.185 49.6 587.585 49.6C589.551 49.6 591.185 49.15 592.485 48.25C593.818 47.3167 594.751 46.0833 595.285 44.55H600.185C599.451 47.1833 597.985 49.3333 595.785 51C593.585 52.6333 590.851 53.45 587.585 53.45C584.985 53.45 582.651 52.8667 580.585 51.7C578.551 50.5333 576.951 48.8833 575.785 46.75C574.618 44.5833 574.035 42.0833 574.035 39.25C574.035 36.4167 574.601 33.9333 575.735 31.8C576.868 29.6667 578.451 28.0333 580.485 26.9C582.551 25.7333 584.918 25.15 587.585 25.15C590.185 25.15 592.485 25.7167 594.485 26.85C596.485 27.9833 598.018 29.55 599.085 31.55C600.185 33.5167 600.735 35.75 600.735 38.25ZM596.035 37.3C596.035 35.5667 595.651 34.0833 594.885 32.85C594.118 31.5833 593.068 30.6333 591.735 30C590.435 29.3333 588.985 29 587.385 29C585.085 29 583.118 29.7333 581.485 31.2C579.885 32.6667 578.968 34.7 578.735 37.3H596.035ZM620.924 25.1C624.257 25.1 626.957 26.1167 629.024 28.15C631.091 30.15 632.124 33.05 632.124 36.85V53H627.624V37.5C627.624 34.7667 626.941 32.6833 625.574 31.25C624.207 29.7833 622.341 29.05 619.974 29.05C617.574 29.05 615.657 29.8 614.224 31.3C612.824 32.8 612.124 34.9833 612.124 37.85V53H607.574V25.6H612.124V29.5C613.024 28.1 614.241 27.0167 615.774 26.25C617.341 25.4833 619.057 25.1 620.924 25.1ZM645.94 29.35V45.5C645.94 46.8333 646.223 47.7833 646.79 48.35C647.356 48.8833 648.34 49.15 649.74 49.15H653.09V53H648.99C646.456 53 644.556 52.4167 643.29 51.25C642.023 50.0833 641.39 48.1667 641.39 45.5V29.35H637.84V25.6H641.39V18.7H645.94V25.6H653.09V29.35H645.94Z" fill="black"/>
<path opacity="0.5" d="M180.532 87.04V85.878H183.164V96H181.876V87.04H180.532ZM185.698 94.978C186.884 94.026 187.812 93.2467 188.484 92.64C189.156 92.024 189.721 91.3847 190.178 90.722C190.645 90.05 190.878 89.392 190.878 88.748C190.878 88.1413 190.729 87.6653 190.43 87.32C190.141 86.9653 189.67 86.788 189.016 86.788C188.382 86.788 187.887 86.9887 187.532 87.39C187.187 87.782 187 88.3093 186.972 88.972H185.74C185.778 87.9267 186.095 87.1193 186.692 86.55C187.29 85.9807 188.06 85.696 189.002 85.696C189.964 85.696 190.724 85.962 191.284 86.494C191.854 87.026 192.138 87.7587 192.138 88.692C192.138 89.4667 191.905 90.2227 191.438 90.96C190.981 91.688 190.458 92.332 189.87 92.892C189.282 93.4427 188.531 94.0867 187.616 94.824H192.432V95.888H185.698V94.978ZM200.859 86.984H195.945V90.176C196.16 89.8773 196.477 89.6347 196.897 89.448C197.317 89.252 197.77 89.154 198.255 89.154C199.03 89.154 199.66 89.3173 200.145 89.644C200.63 89.9613 200.976 90.3767 201.181 90.89C201.396 91.394 201.503 91.9307 201.503 92.5C201.503 93.172 201.377 93.774 201.125 94.306C200.873 94.838 200.486 95.258 199.963 95.566C199.45 95.874 198.81 96.028 198.045 96.028C197.065 96.028 196.272 95.776 195.665 95.272C195.058 94.768 194.69 94.096 194.559 93.256H195.805C195.926 93.788 196.183 94.2033 196.575 94.502C196.967 94.8007 197.462 94.95 198.059 94.95C198.796 94.95 199.352 94.7307 199.725 94.292C200.098 93.844 200.285 93.256 200.285 92.528C200.285 91.8 200.098 91.24 199.725 90.848C199.352 90.4467 198.801 90.246 198.073 90.246C197.578 90.246 197.144 90.3673 196.771 90.61C196.407 90.8433 196.141 91.1653 195.973 91.576H194.769V85.864H200.859V86.984ZM207.663 92.15C207.663 91.3567 207.821 90.666 208.139 90.078C208.456 89.4807 208.895 89.0187 209.455 88.692C210.024 88.3653 210.673 88.202 211.401 88.202C212.343 88.202 213.118 88.4307 213.725 88.888C214.341 89.3453 214.747 89.98 214.943 90.792H213.571C213.44 90.3253 213.183 89.9567 212.801 89.686C212.427 89.4153 211.961 89.28 211.401 89.28C210.673 89.28 210.085 89.532 209.637 90.036C209.189 90.5307 208.965 91.2353 208.965 92.15C208.965 93.074 209.189 93.788 209.637 94.292C210.085 94.796 210.673 95.048 211.401 95.048C211.961 95.048 212.427 94.9173 212.801 94.656C213.174 94.3947 213.431 94.0213 213.571 93.536H214.943C214.737 94.32 214.327 94.95 213.711 95.426C213.095 95.8927 212.325 96.126 211.401 96.126C210.673 96.126 210.024 95.9627 209.455 95.636C208.895 95.3093 208.456 94.8473 208.139 94.25C207.821 93.6527 207.663 92.9527 207.663 92.15ZM220.488 96.126C219.77 96.126 219.116 95.9627 218.528 95.636C217.95 95.3093 217.492 94.8473 217.156 94.25C216.83 93.6433 216.666 92.9433 216.666 92.15C216.666 91.366 216.834 90.6753 217.17 90.078C217.516 89.4713 217.982 89.0093 218.57 88.692C219.158 88.3653 219.816 88.202 220.544 88.202C221.272 88.202 221.93 88.3653 222.518 88.692C223.106 89.0093 223.568 89.4667 223.904 90.064C224.25 90.6613 224.422 91.3567 224.422 92.15C224.422 92.9433 224.245 93.6433 223.89 94.25C223.545 94.8473 223.074 95.3093 222.476 95.636C221.879 95.9627 221.216 96.126 220.488 96.126ZM220.488 95.006C220.946 95.006 221.375 94.8987 221.776 94.684C222.178 94.4693 222.5 94.1473 222.742 93.718C222.994 93.2887 223.12 92.766 223.12 92.15C223.12 91.534 222.999 91.0113 222.756 90.582C222.514 90.1527 222.196 89.8353 221.804 89.63C221.412 89.4153 220.988 89.308 220.53 89.308C220.064 89.308 219.634 89.4153 219.242 89.63C218.86 89.8353 218.552 90.1527 218.318 90.582C218.085 91.0113 217.968 91.534 217.968 92.15C217.968 92.7753 218.08 93.3027 218.304 93.732C218.538 94.1613 218.846 94.4833 219.228 94.698C219.611 94.9033 220.031 95.006 220.488 95.006ZM233.402 88.328V96H232.128V94.866C231.885 95.258 231.544 95.566 231.106 95.79C230.676 96.0047 230.2 96.112 229.678 96.112C229.08 96.112 228.544 95.9907 228.068 95.748C227.592 95.496 227.214 95.1227 226.934 94.628C226.663 94.1333 226.528 93.5313 226.528 92.822V88.328H227.788V92.654C227.788 93.41 227.979 93.9933 228.362 94.404C228.744 94.8053 229.267 95.006 229.93 95.006C230.611 95.006 231.148 94.796 231.54 94.376C231.932 93.956 232.128 93.3447 232.128 92.542V88.328H233.402ZM237.327 89.574C237.551 89.1353 237.868 88.7947 238.279 88.552C238.699 88.3093 239.207 88.188 239.805 88.188V89.504H239.469C238.041 89.504 237.327 90.2787 237.327 91.828V96H236.053V88.328H237.327V89.574ZM244.491 96.126C243.903 96.126 243.376 96.028 242.909 95.832C242.443 95.6267 242.074 95.3467 241.803 94.992C241.533 94.628 241.383 94.2127 241.355 93.746H242.671C242.709 94.1287 242.886 94.4413 243.203 94.684C243.53 94.9267 243.955 95.048 244.477 95.048C244.963 95.048 245.345 94.9407 245.625 94.726C245.905 94.5113 246.045 94.2407 246.045 93.914C246.045 93.578 245.896 93.3307 245.597 93.172C245.299 93.004 244.837 92.8407 244.211 92.682C243.642 92.5327 243.175 92.3833 242.811 92.234C242.457 92.0753 242.149 91.8467 241.887 91.548C241.635 91.24 241.509 90.8387 241.509 90.344C241.509 89.952 241.626 89.5927 241.859 89.266C242.093 88.9393 242.424 88.6827 242.853 88.496C243.283 88.3 243.773 88.202 244.323 88.202C245.173 88.202 245.859 88.4167 246.381 88.846C246.904 89.2753 247.184 89.8633 247.221 90.61H245.947C245.919 90.2087 245.756 89.8867 245.457 89.644C245.168 89.4013 244.776 89.28 244.281 89.28C243.824 89.28 243.46 89.378 243.189 89.574C242.919 89.77 242.783 90.0267 242.783 90.344C242.783 90.596 242.863 90.806 243.021 90.974C243.189 91.1327 243.395 91.2633 243.637 91.366C243.889 91.4593 244.235 91.5667 244.673 91.688C245.224 91.8373 245.672 91.9867 246.017 92.136C246.363 92.276 246.657 92.4907 246.899 92.78C247.151 93.0693 247.282 93.4473 247.291 93.914C247.291 94.334 247.175 94.712 246.941 95.048C246.708 95.384 246.377 95.65 245.947 95.846C245.527 96.0327 245.042 96.126 244.491 96.126ZM256.59 91.87C256.59 92.1127 256.576 92.3693 256.548 92.64H250.416C250.462 93.396 250.719 93.9887 251.186 94.418C251.662 94.838 252.236 95.048 252.908 95.048C253.458 95.048 253.916 94.922 254.28 94.67C254.653 94.4087 254.914 94.0633 255.064 93.634H256.436C256.23 94.3713 255.82 94.9733 255.204 95.44C254.588 95.8973 253.822 96.126 252.908 96.126C252.18 96.126 251.526 95.9627 250.948 95.636C250.378 95.3093 249.93 94.8473 249.604 94.25C249.277 93.6433 249.114 92.9433 249.114 92.15C249.114 91.3567 249.272 90.6613 249.59 90.064C249.907 89.4667 250.35 89.0093 250.92 88.692C251.498 88.3653 252.161 88.202 252.908 88.202C253.636 88.202 254.28 88.3607 254.84 88.678C255.4 88.9953 255.829 89.434 256.128 89.994C256.436 90.5447 256.59 91.17 256.59 91.87ZM255.274 91.604C255.274 91.1187 255.166 90.7033 254.952 90.358C254.737 90.0033 254.443 89.7373 254.07 89.56C253.706 89.3733 253.3 89.28 252.852 89.28C252.208 89.28 251.657 89.4853 251.2 89.896C250.752 90.3067 250.495 90.876 250.43 91.604H255.274ZM261.487 96.126C260.899 96.126 260.372 96.028 259.905 95.832C259.439 95.6267 259.07 95.3467 258.799 94.992C258.529 94.628 258.379 94.2127 258.351 93.746H259.667C259.705 94.1287 259.882 94.4413 260.199 94.684C260.526 94.9267 260.951 95.048 261.473 95.048C261.959 95.048 262.341 94.9407 262.621 94.726C262.901 94.5113 263.041 94.2407 263.041 93.914C263.041 93.578 262.892 93.3307 262.593 93.172C262.295 93.004 261.833 92.8407 261.207 92.682C260.638 92.5327 260.171 92.3833 259.807 92.234C259.453 92.0753 259.145 91.8467 258.883 91.548C258.631 91.24 258.505 90.8387 258.505 90.344C258.505 89.952 258.622 89.5927 258.855 89.266C259.089 88.9393 259.42 88.6827 259.849 88.496C260.279 88.3 260.769 88.202 261.319 88.202C262.169 88.202 262.855 88.4167 263.377 88.846C263.9 89.2753 264.18 89.8633 264.217 90.61H262.943C262.915 90.2087 262.752 89.8867 262.453 89.644C262.164 89.4013 261.772 89.28 261.277 89.28C260.82 89.28 260.456 89.378 260.185 89.574C259.915 89.77 259.779 90.0267 259.779 90.344C259.779 90.596 259.859 90.806 260.017 90.974C260.185 91.1327 260.391 91.2633 260.633 91.366C260.885 91.4593 261.231 91.5667 261.669 91.688C262.22 91.8373 262.668 91.9867 263.013 92.136C263.359 92.276 263.653 92.4907 263.895 92.78C264.147 93.0693 264.278 93.4473 264.287 93.914C264.287 94.334 264.171 94.712 263.937 95.048C263.704 95.384 263.373 95.65 262.943 95.846C262.523 96.0327 262.038 96.126 261.487 96.126Z" fill="black"/>
<path opacity="0.34" d="M1.325 45.65C1.325 42.7667 1.84167 40.5083 2.875 38.875C3.925 37.2417 5.65833 36.425 8.075 36.425C10.4917 36.425 12.2167 37.2417 13.25 38.875C14.3 40.5083 14.825 42.7667 14.825 45.65C14.825 48.55 14.3 50.825 13.25 52.475C12.2167 54.125 10.4917 54.95 8.075 54.95C5.65833 54.95 3.925 54.125 2.875 52.475C1.84167 50.825 1.325 48.55 1.325 45.65ZM11.375 45.65C11.375 44.4167 11.2917 43.3833 11.125 42.55C10.975 41.7 10.6583 41.0083 10.175 40.475C9.70833 39.9417 9.00833 39.675 8.075 39.675C7.14167 39.675 6.43333 39.9417 5.95 40.475C5.48333 41.0083 5.16667 41.7 5 42.55C4.85 43.3833 4.775 44.4167 4.775 45.65C4.775 46.9167 4.85 47.9833 5 48.85C5.15 49.7 5.46667 50.3917 5.95 50.925C6.43333 51.4417 7.14167 51.7 8.075 51.7C9.00833 51.7 9.71667 51.4417 10.2 50.925C10.6833 50.3917 11 49.7 11.15 48.85C11.3 47.9833 11.375 46.9167 11.375 45.65ZM17.3371 51.45V48.7L25.5121 37H29.5871V48.4H31.7871V51.45H29.5871V55H26.0871V51.45H17.3371ZM26.3121 40.75L21.1871 48.4H26.3121V40.75Z" fill="black"/>
<path d="M1055.5 49.1051H1077.56" stroke="black" stroke-width="2" stroke-linecap="round" stroke-linejoin="round"/>
<path d="M1069.84 38.9994L1079.72 48.7261L1069.84 58.4528" stroke="black" stroke-width="2" stroke-linecap="round" stroke-linejoin="round"/>
</svg>
