<svg width="1081" height="154" viewBox="0 0 1081 154" fill="none" xmlns="http://www.w3.org/2000/svg">
<path d="M188.4 18.15V53H183.85V18.15H188.4ZM201.538 16V53H196.988V16H201.538ZM214.676 16V53H210.126V16H214.676ZM247.564 25.6V53H243.014V48.95C242.147 50.35 240.931 51.45 239.364 52.25C237.831 53.0167 236.131 53.4 234.264 53.4C232.131 53.4 230.214 52.9667 228.514 52.1C226.814 51.2 225.464 49.8667 224.464 48.1C223.497 46.3333 223.014 44.1833 223.014 41.65V25.6H227.514V41.05C227.514 43.75 228.197 45.8333 229.564 47.3C230.931 48.7333 232.797 49.45 235.164 49.45C237.597 49.45 239.514 48.7 240.914 47.2C242.314 45.7 243.014 43.5167 243.014 40.65V25.6H247.564ZM265.78 53.45C263.68 53.45 261.796 53.1 260.13 52.4C258.463 51.6667 257.146 50.6667 256.18 49.4C255.213 48.1 254.68 46.6167 254.58 44.95H259.28C259.413 46.3167 260.046 47.4333 261.18 48.3C262.346 49.1667 263.863 49.6 265.73 49.6C267.463 49.6 268.83 49.2167 269.83 48.45C270.83 47.6833 271.33 46.7167 271.33 45.55C271.33 44.35 270.796 43.4667 269.73 42.9C268.663 42.3 267.013 41.7167 264.78 41.15C262.746 40.6167 261.08 40.0833 259.78 39.55C258.513 38.9833 257.413 38.1667 256.48 37.1C255.58 36 255.13 34.5667 255.13 32.8C255.13 31.4 255.546 30.1167 256.38 28.95C257.213 27.7833 258.396 26.8667 259.93 26.2C261.463 25.5 263.213 25.15 265.18 25.15C268.213 25.15 270.663 25.9167 272.53 27.45C274.396 28.9833 275.396 31.0833 275.53 33.75H270.98C270.88 32.3167 270.296 31.1667 269.23 30.3C268.196 29.4333 266.796 29 265.03 29C263.396 29 262.096 29.35 261.13 30.05C260.163 30.75 259.68 31.6667 259.68 32.8C259.68 33.7 259.963 34.45 260.53 35.05C261.13 35.6167 261.863 36.0833 262.73 36.45C263.63 36.7833 264.863 37.1667 266.43 37.6C268.396 38.1333 269.996 38.6667 271.23 39.2C272.463 39.7 273.513 40.4667 274.38 41.5C275.28 42.5333 275.746 43.8833 275.78 45.55C275.78 47.05 275.363 48.4 274.53 49.6C273.696 50.8 272.513 51.75 270.98 52.45C269.48 53.1167 267.746 53.45 265.78 53.45ZM288.586 29.35V45.5C288.586 46.8333 288.87 47.7833 289.436 48.35C290.003 48.8833 290.986 49.15 292.386 49.15H295.736V53H291.636C289.103 53 287.203 52.4167 285.936 51.25C284.67 50.0833 284.036 48.1667 284.036 45.5V29.35H280.486V25.6H284.036V18.7H288.586V25.6H295.736V29.35H288.586ZM306.632 30.05C307.432 28.4833 308.566 27.2667 310.032 26.4C311.532 25.5333 313.349 25.1 315.482 25.1V29.8H314.282C309.182 29.8 306.632 32.5667 306.632 38.1V53H302.082V25.6H306.632V30.05ZM319.868 39.2C319.868 36.4 320.435 33.95 321.568 31.85C322.701 29.7167 324.251 28.0667 326.218 26.9C328.218 25.7333 330.435 25.15 332.868 25.15C335.268 25.15 337.351 25.6667 339.118 26.7C340.885 27.7333 342.201 29.0333 343.068 30.6V25.6H347.668V53H343.068V47.9C342.168 49.5 340.818 50.8333 339.018 51.9C337.251 52.9333 335.185 53.45 332.818 53.45C330.385 53.45 328.185 52.85 326.218 51.65C324.251 50.45 322.701 48.7667 321.568 46.6C320.435 44.4333 319.868 41.9667 319.868 39.2ZM343.068 39.25C343.068 37.1833 342.651 35.3833 341.818 33.85C340.985 32.3167 339.851 31.15 338.418 30.35C337.018 29.5167 335.468 29.1 333.768 29.1C332.068 29.1 330.518 29.5 329.118 30.3C327.718 31.1 326.601 32.2667 325.768 33.8C324.935 35.3333 324.518 37.1333 324.518 39.2C324.518 41.3 324.935 43.1333 325.768 44.7C326.601 46.2333 327.718 47.4167 329.118 48.25C330.518 49.05 332.068 49.45 333.768 49.45C335.468 49.45 337.018 49.05 338.418 48.25C339.851 47.4167 340.985 46.2333 341.818 44.7C342.651 43.1333 343.068 41.3167 343.068 39.25ZM361.741 29.35V45.5C361.741 46.8333 362.024 47.7833 362.591 48.35C363.157 48.8833 364.141 49.15 365.54 49.15H368.891V53H364.791C362.257 53 360.357 52.4167 359.091 51.25C357.824 50.0833 357.191 48.1667 357.191 45.5V29.35H353.64V25.6H357.191V18.7H361.741V25.6H368.891V29.35H361.741ZM377.587 21.15C376.72 21.15 375.987 20.85 375.387 20.25C374.787 19.65 374.487 18.9167 374.487 18.05C374.487 17.1833 374.787 16.45 375.387 15.85C375.987 15.25 376.72 14.95 377.587 14.95C378.42 14.95 379.12 15.25 379.687 15.85C380.287 16.45 380.587 17.1833 380.587 18.05C380.587 18.9167 380.287 19.65 379.687 20.25C379.12 20.85 378.42 21.15 377.587 21.15ZM379.787 25.6V53H375.237V25.6H379.787ZM400.325 53.45C397.758 53.45 395.425 52.8667 393.325 51.7C391.258 50.5333 389.625 48.8833 388.425 46.75C387.258 44.5833 386.675 42.0833 386.675 39.25C386.675 36.45 387.275 33.9833 388.475 31.85C389.708 29.6833 391.375 28.0333 393.475 26.9C395.575 25.7333 397.925 25.15 400.525 25.15C403.125 25.15 405.475 25.7333 407.575 26.9C409.675 28.0333 411.325 29.6667 412.525 31.8C413.758 33.9333 414.375 36.4167 414.375 39.25C414.375 42.0833 413.741 44.5833 412.475 46.75C411.241 48.8833 409.558 50.5333 407.425 51.7C405.291 52.8667 402.925 53.45 400.325 53.45ZM400.325 49.45C401.958 49.45 403.491 49.0667 404.925 48.3C406.358 47.5333 407.508 46.3833 408.375 44.85C409.275 43.3167 409.725 41.45 409.725 39.25C409.725 37.05 409.291 35.1833 408.425 33.65C407.558 32.1167 406.425 30.9833 405.025 30.25C403.625 29.4833 402.108 29.1 400.475 29.1C398.808 29.1 397.275 29.4833 395.875 30.25C394.508 30.9833 393.408 32.1167 392.575 33.65C391.741 35.1833 391.325 37.05 391.325 39.25C391.325 41.4833 391.725 43.3667 392.525 44.9C393.358 46.4333 394.458 47.5833 395.825 48.35C397.191 49.0833 398.691 49.45 400.325 49.45ZM434.541 25.1C437.874 25.1 440.574 26.1167 442.641 28.15C444.707 30.15 445.741 33.05 445.741 36.85V53H441.241V37.5C441.241 34.7667 440.557 32.6833 439.191 31.25C437.824 29.7833 435.957 29.05 433.591 29.05C431.191 29.05 429.274 29.8 427.841 31.3C426.441 32.8 425.741 34.9833 425.741 37.85V53H421.191V25.6H425.741V29.5C426.641 28.1 427.857 27.0167 429.391 26.25C430.957 25.4833 432.674 25.1 434.541 25.1Z" fill="black"/>
<path opacity="0.5" d="M180.532 87.04V85.878H183.164V96H181.876V87.04H180.532ZM185.698 94.978C186.884 94.026 187.812 93.2467 188.484 92.64C189.156 92.024 189.721 91.3847 190.178 90.722C190.645 90.05 190.878 89.392 190.878 88.748C190.878 88.1413 190.729 87.6653 190.43 87.32C190.141 86.9653 189.67 86.788 189.016 86.788C188.382 86.788 187.887 86.9887 187.532 87.39C187.187 87.782 187 88.3093 186.972 88.972H185.74C185.778 87.9267 186.095 87.1193 186.692 86.55C187.29 85.9807 188.06 85.696 189.002 85.696C189.964 85.696 190.724 85.962 191.284 86.494C191.854 87.026 192.138 87.7587 192.138 88.692C192.138 89.4667 191.905 90.2227 191.438 90.96C190.981 91.688 190.458 92.332 189.87 92.892C189.282 93.4427 188.531 94.0867 187.616 94.824H192.432V95.888H185.698V94.978ZM200.859 86.984H195.945V90.176C196.16 89.8773 196.477 89.6347 196.897 89.448C197.317 89.252 197.77 89.154 198.255 89.154C199.03 89.154 199.66 89.3173 200.145 89.644C200.63 89.9613 200.976 90.3767 201.181 90.89C201.396 91.394 201.503 91.9307 201.503 92.5C201.503 93.172 201.377 93.774 201.125 94.306C200.873 94.838 200.486 95.258 199.963 95.566C199.45 95.874 198.81 96.028 198.045 96.028C197.065 96.028 196.272 95.776 195.665 95.272C195.058 94.768 194.69 94.096 194.559 93.256H195.805C195.926 93.788 196.183 94.2033 196.575 94.502C196.967 94.8007 197.462 94.95 198.059 94.95C198.796 94.95 199.352 94.7307 199.725 94.292C200.098 93.844 200.285 93.256 200.285 92.528C200.285 91.8 200.098 91.24 199.725 90.848C199.352 90.4467 198.801 90.246 198.073 90.246C197.578 90.246 197.144 90.3673 196.771 90.61C196.407 90.8433 196.141 91.1653 195.973 91.576H194.769V85.864H200.859V86.984ZM207.663 92.15C207.663 91.3567 207.821 90.666 208.139 90.078C208.456 89.4807 208.895 89.0187 209.455 88.692C210.024 88.3653 210.673 88.202 211.401 88.202C212.343 88.202 213.118 88.4307 213.725 88.888C214.341 89.3453 214.747 89.98 214.943 90.792H213.571C213.44 90.3253 213.183 89.9567 212.801 89.686C212.427 89.4153 211.961 89.28 211.401 89.28C210.673 89.28 210.085 89.532 209.637 90.036C209.189 90.5307 208.965 91.2353 208.965 92.15C208.965 93.074 209.189 93.788 209.637 94.292C210.085 94.796 210.673 95.048 211.401 95.048C211.961 95.048 212.427 94.9173 212.801 94.656C213.174 94.3947 213.431 94.0213 213.571 93.536H214.943C214.737 94.32 214.327 94.95 213.711 95.426C213.095 95.8927 212.325 96.126 211.401 96.126C210.673 96.126 210.024 95.9627 209.455 95.636C208.895 95.3093 208.456 94.8473 208.139 94.25C207.821 93.6527 207.663 92.9527 207.663 92.15ZM220.488 96.126C219.77 96.126 219.116 95.9627 218.528 95.636C217.95 95.3093 217.492 94.8473 217.156 94.25C216.83 93.6433 216.666 92.9433 216.666 92.15C216.666 91.366 216.834 90.6753 217.17 90.078C217.516 89.4713 217.982 89.0093 218.57 88.692C219.158 88.3653 219.816 88.202 220.544 88.202C221.272 88.202 221.93 88.3653 222.518 88.692C223.106 89.0093 223.568 89.4667 223.904 90.064C224.25 90.6613 224.422 91.3567 224.422 92.15C224.422 92.9433 224.245 93.6433 223.89 94.25C223.545 94.8473 223.074 95.3093 222.476 95.636C221.879 95.9627 221.216 96.126 220.488 96.126ZM220.488 95.006C220.946 95.006 221.375 94.8987 221.776 94.684C222.178 94.4693 222.5 94.1473 222.742 93.718C222.994 93.2887 223.12 92.766 223.12 92.15C223.12 91.534 222.999 91.0113 222.756 90.582C222.514 90.1527 222.196 89.8353 221.804 89.63C221.412 89.4153 220.988 89.308 220.53 89.308C220.064 89.308 219.634 89.4153 219.242 89.63C218.86 89.8353 218.552 90.1527 218.318 90.582C218.085 91.0113 217.968 91.534 217.968 92.15C217.968 92.7753 218.08 93.3027 218.304 93.732C218.538 94.1613 218.846 94.4833 219.228 94.698C219.611 94.9033 220.031 95.006 220.488 95.006ZM233.402 88.328V96H232.128V94.866C231.885 95.258 231.544 95.566 231.106 95.79C230.676 96.0047 230.2 96.112 229.678 96.112C229.08 96.112 228.544 95.9907 228.068 95.748C227.592 95.496 227.214 95.1227 226.934 94.628C226.663 94.1333 226.528 93.5313 226.528 92.822V88.328H227.788V92.654C227.788 93.41 227.979 93.9933 228.362 94.404C228.744 94.8053 229.267 95.006 229.93 95.006C230.611 95.006 231.148 94.796 231.54 94.376C231.932 93.956 232.128 93.3447 232.128 92.542V88.328H233.402ZM237.327 89.574C237.551 89.1353 237.868 88.7947 238.279 88.552C238.699 88.3093 239.207 88.188 239.805 88.188V89.504H239.469C238.041 89.504 237.327 90.2787 237.327 91.828V96H236.053V88.328H237.327V89.574ZM244.491 96.126C243.903 96.126 243.376 96.028 242.909 95.832C242.443 95.6267 242.074 95.3467 241.803 94.992C241.533 94.628 241.383 94.2127 241.355 93.746H242.671C242.709 94.1287 242.886 94.4413 243.203 94.684C243.53 94.9267 243.955 95.048 244.477 95.048C244.963 95.048 245.345 94.9407 245.625 94.726C245.905 94.5113 246.045 94.2407 246.045 93.914C246.045 93.578 245.896 93.3307 245.597 93.172C245.299 93.004 244.837 92.8407 244.211 92.682C243.642 92.5327 243.175 92.3833 242.811 92.234C242.457 92.0753 242.149 91.8467 241.887 91.548C241.635 91.24 241.509 90.8387 241.509 90.344C241.509 89.952 241.626 89.5927 241.859 89.266C242.093 88.9393 242.424 88.6827 242.853 88.496C243.283 88.3 243.773 88.202 244.323 88.202C245.173 88.202 245.859 88.4167 246.381 88.846C246.904 89.2753 247.184 89.8633 247.221 90.61H245.947C245.919 90.2087 245.756 89.8867 245.457 89.644C245.168 89.4013 244.776 89.28 244.281 89.28C243.824 89.28 243.46 89.378 243.189 89.574C242.919 89.77 242.783 90.0267 242.783 90.344C242.783 90.596 242.863 90.806 243.021 90.974C243.189 91.1327 243.395 91.2633 243.637 91.366C243.889 91.4593 244.235 91.5667 244.673 91.688C245.224 91.8373 245.672 91.9867 246.017 92.136C246.363 92.276 246.657 92.4907 246.899 92.78C247.151 93.0693 247.282 93.4473 247.291 93.914C247.291 94.334 247.175 94.712 246.941 95.048C246.708 95.384 246.377 95.65 245.947 95.846C245.527 96.0327 245.042 96.126 244.491 96.126ZM256.59 91.87C256.59 92.1127 256.576 92.3693 256.548 92.64H250.416C250.462 93.396 250.719 93.9887 251.186 94.418C251.662 94.838 252.236 95.048 252.908 95.048C253.458 95.048 253.916 94.922 254.28 94.67C254.653 94.4087 254.914 94.0633 255.064 93.634H256.436C256.23 94.3713 255.82 94.9733 255.204 95.44C254.588 95.8973 253.822 96.126 252.908 96.126C252.18 96.126 251.526 95.9627 250.948 95.636C250.378 95.3093 249.93 94.8473 249.604 94.25C249.277 93.6433 249.114 92.9433 249.114 92.15C249.114 91.3567 249.272 90.6613 249.59 90.064C249.907 89.4667 250.35 89.0093 250.92 88.692C251.498 88.3653 252.161 88.202 252.908 88.202C253.636 88.202 254.28 88.3607 254.84 88.678C255.4 88.9953 255.829 89.434 256.128 89.994C256.436 90.5447 256.59 91.17 256.59 91.87ZM255.274 91.604C255.274 91.1187 255.166 90.7033 254.952 90.358C254.737 90.0033 254.443 89.7373 254.07 89.56C253.706 89.3733 253.3 89.28 252.852 89.28C252.208 89.28 251.657 89.4853 251.2 89.896C250.752 90.3067 250.495 90.876 250.43 91.604H255.274ZM261.487 96.126C260.899 96.126 260.372 96.028 259.905 95.832C259.439 95.6267 259.07 95.3467 258.799 94.992C258.529 94.628 258.379 94.2127 258.351 93.746H259.667C259.705 94.1287 259.882 94.4413 260.199 94.684C260.526 94.9267 260.951 95.048 261.473 95.048C261.959 95.048 262.341 94.9407 262.621 94.726C262.901 94.5113 263.041 94.2407 263.041 93.914C263.041 93.578 262.892 93.3307 262.593 93.172C262.295 93.004 261.833 92.8407 261.207 92.682C260.638 92.5327 260.171 92.3833 259.807 92.234C259.453 92.0753 259.145 91.8467 258.883 91.548C258.631 91.24 258.505 90.8387 258.505 90.344C258.505 89.952 258.622 89.5927 258.855 89.266C259.089 88.9393 259.42 88.6827 259.849 88.496C260.279 88.3 260.769 88.202 261.319 88.202C262.169 88.202 262.855 88.4167 263.377 88.846C263.9 89.2753 264.18 89.8633 264.217 90.61H262.943C262.915 90.2087 262.752 89.8867 262.453 89.644C262.164 89.4013 261.772 89.28 261.277 89.28C260.82 89.28 260.456 89.378 260.185 89.574C259.915 89.77 259.779 90.0267 259.779 90.344C259.779 90.596 259.859 90.806 260.017 90.974C260.185 91.1327 260.391 91.2633 260.633 91.366C260.885 91.4593 261.231 91.5667 261.669 91.688C262.22 91.8373 262.668 91.9867 263.013 92.136C263.359 92.276 263.653 92.4907 263.895 92.78C264.147 93.0693 264.278 93.4473 264.287 93.914C264.287 94.334 264.171 94.712 263.937 95.048C263.704 95.384 263.373 95.65 262.943 95.846C262.523 96.0327 262.038 96.126 261.487 96.126Z" fill="black"/>
<path opacity="0.34" d="M1.325 45.65C1.325 42.7667 1.84167 40.5083 2.875 38.875C3.925 37.2417 5.65833 36.425 8.075 36.425C10.4917 36.425 12.2167 37.2417 13.25 38.875C14.3 40.5083 14.825 42.7667 14.825 45.65C14.825 48.55 14.3 50.825 13.25 52.475C12.2167 54.125 10.4917 54.95 8.075 54.95C5.65833 54.95 3.925 54.125 2.875 52.475C1.84167 50.825 1.325 48.55 1.325 45.65ZM11.375 45.65C11.375 44.4167 11.2917 43.3833 11.125 42.55C10.975 41.7 10.6583 41.0083 10.175 40.475C9.70833 39.9417 9.00833 39.675 8.075 39.675C7.14167 39.675 6.43333 39.9417 5.95 40.475C5.48333 41.0083 5.16667 41.7 5 42.55C4.85 43.3833 4.775 44.4167 4.775 45.65C4.775 46.9167 4.85 47.9833 5 48.85C5.15 49.7 5.46667 50.3917 5.95 50.925C6.43333 51.4417 7.14167 51.7 8.075 51.7C9.00833 51.7 9.71667 51.4417 10.2 50.925C10.6833 50.3917 11 49.7 11.15 48.85C11.3 47.9833 11.375 46.9167 11.375 45.65ZM17.5371 41.575C17.6204 39.9083 18.2038 38.625 19.2871 37.725C20.3871 36.8083 21.8288 36.35 23.6121 36.35C24.8288 36.35 25.8704 36.5667 26.7371 37C27.6038 37.4167 28.2538 37.9917 28.6871 38.725C29.1371 39.4417 29.3621 40.2583 29.3621 41.175C29.3621 42.225 29.0871 43.1167 28.5371 43.85C28.0038 44.5667 27.3621 45.05 26.6121 45.3V45.4C27.5788 45.7 28.3288 46.2333 28.8621 47C29.4121 47.7667 29.6871 48.75 29.6871 49.95C29.6871 50.95 29.4538 51.8417 28.9871 52.625C28.5371 53.4083 27.8621 54.025 26.9621 54.475C26.0788 54.9083 25.0121 55.125 23.7621 55.125C21.8788 55.125 20.3454 54.65 19.1621 53.7C17.9788 52.75 17.3538 51.35 17.2871 49.5H20.6871C20.7204 50.3167 20.9954 50.975 21.5121 51.475C22.0454 51.9583 22.7704 52.2 23.6871 52.2C24.5371 52.2 25.1871 51.9667 25.6371 51.5C26.1038 51.0167 26.3371 50.4 26.3371 49.65C26.3371 48.65 26.0204 47.9333 25.3871 47.5C24.7538 47.0667 23.7704 46.85 22.4371 46.85H21.7121V43.975H22.4371C24.8038 43.975 25.9871 43.1833 25.9871 41.6C25.9871 40.8833 25.7704 40.325 25.3371 39.925C24.9204 39.525 24.3121 39.325 23.5121 39.325C22.7288 39.325 22.1204 39.5417 21.6871 39.975C21.2704 40.3917 21.0288 40.925 20.9621 41.575H17.5371Z" fill="black"/>
<path d="M1055.5 49.1052H1077.56" stroke="black" stroke-width="2" stroke-linecap="round" stroke-linejoin="round"/>
<path d="M1069.84 38.9995L1079.72 48.7262L1069.84 58.4529" stroke="black" stroke-width="2" stroke-linecap="round" stroke-linejoin="round"/>
<path opacity="0.4" d="M0 153H1080" stroke="black" stroke-width="0.5"/>
</svg>
