<svg width="50" height="50" viewBox="0 0 50 50" fill="none" xmlns="http://www.w3.org/2000/svg">
<circle cx="25" cy="25" r="25" fill="white"/>
<path d="M17.6598 24.96C17.6598 23.5733 17.9598 22.34 18.5598 21.26C19.1598 20.1667 19.9931 19.32 21.0598 18.72C22.1398 18.1067 23.3598 17.8 24.7198 17.8C26.3864 17.8 27.8131 18.24 28.9998 19.12C30.1864 20 30.9798 21.2 31.3798 22.72H27.6198C27.3398 22.1333 26.9398 21.6867 26.4198 21.38C25.9131 21.0733 25.3331 20.92 24.6798 20.92C23.6264 20.92 22.7731 21.2867 22.1198 22.02C21.4664 22.7533 21.1398 23.7333 21.1398 24.96C21.1398 26.1867 21.4664 27.1667 22.1198 27.9C22.7731 28.6333 23.6264 29 24.6798 29C25.3331 29 25.9131 28.8467 26.4198 28.54C26.9398 28.2333 27.3398 27.7867 27.6198 27.2H31.3798C30.9798 28.72 30.1864 29.92 28.9998 30.8C27.8131 31.6667 26.3864 32.1 24.7198 32.1C23.3598 32.1 22.1398 31.8 21.0598 31.2C19.9931 30.5867 19.1598 29.74 18.5598 28.66C17.9598 27.58 17.6598 26.3467 17.6598 24.96Z" fill="#1A1A1A"/>
</svg>
