<svg width="180" height="180" viewBox="0 0 180 180" fill="none" xmlns="http://www.w3.org/2000/svg">
<rect width="180" height="180" fill="#FEBE02"/>
<path d="M43.424 94.248V106.008C43.424 107.64 42.952 108.912 42.008 109.824C41.064 110.72 39.8 111.168 38.216 111.168C36.616 111.168 35.32 110.704 34.328 109.776C33.352 108.848 32.864 107.552 32.864 105.888H36.224C36.24 106.608 36.408 107.168 36.728 107.568C37.064 107.968 37.544 108.168 38.168 108.168C38.776 108.168 39.24 107.976 39.56 107.592C39.88 107.208 40.04 106.68 40.04 106.008V94.248H43.424ZM53.2475 111.216C51.9675 111.216 50.8155 110.936 49.7915 110.376C48.7675 109.8 47.9595 108.992 47.3675 107.952C46.7915 106.912 46.5035 105.712 46.5035 104.352C46.5035 102.992 46.7995 101.792 47.3915 100.752C47.9995 99.712 48.8235 98.912 49.8635 98.352C50.9035 97.776 52.0635 97.488 53.3435 97.488C54.6235 97.488 55.7835 97.776 56.8235 98.352C57.8635 98.912 58.6795 99.712 59.2715 100.752C59.8795 101.792 60.1835 102.992 60.1835 104.352C60.1835 105.712 59.8715 106.912 59.2475 107.952C58.6395 108.992 57.8075 109.8 56.7515 110.376C55.7115 110.936 54.5435 111.216 53.2475 111.216ZM53.2475 108.288C53.8555 108.288 54.4235 108.144 54.9515 107.856C55.4955 107.552 55.9275 107.104 56.2475 106.512C56.5675 105.92 56.7275 105.2 56.7275 104.352C56.7275 103.088 56.3915 102.12 55.7195 101.448C55.0635 100.76 54.2555 100.416 53.2955 100.416C52.3355 100.416 51.5275 100.76 50.8715 101.448C50.2315 102.12 49.9115 103.088 49.9115 104.352C49.9115 105.616 50.2235 106.592 50.8475 107.28C51.4875 107.952 52.2875 108.288 53.2475 108.288ZM64.3522 96.12C63.7602 96.12 63.2642 95.936 62.8642 95.568C62.4802 95.184 62.2882 94.712 62.2882 94.152C62.2882 93.592 62.4802 93.128 62.8642 92.76C63.2642 92.376 63.7602 92.184 64.3522 92.184C64.9442 92.184 65.4322 92.376 65.8162 92.76C66.2162 93.128 66.4162 93.592 66.4162 94.152C66.4162 94.712 66.2162 95.184 65.8162 95.568C65.4322 95.936 64.9442 96.12 64.3522 96.12ZM66.0082 97.704V111H62.6482V97.704H66.0082ZM76.6959 97.512C78.2799 97.512 79.5599 98.016 80.5359 99.024C81.5119 100.016 81.9999 101.408 81.9999 103.2V111H78.6399V103.656C78.6399 102.6 78.3759 101.792 77.8479 101.232C77.3199 100.656 76.5999 100.368 75.6879 100.368C74.7599 100.368 74.0239 100.656 73.4799 101.232C72.9519 101.792 72.6879 102.6 72.6879 103.656V111H69.3279V97.704H72.6879V99.36C73.1359 98.784 73.7039 98.336 74.3919 98.016C75.0959 97.68 75.8639 97.512 76.6959 97.512ZM45.056 124.248V126.96H40.592V141H37.232V126.96H32.768V124.248H45.056ZM54.9956 127.512C56.0036 127.512 56.8996 127.736 57.6836 128.184C58.4676 128.616 59.0756 129.264 59.5076 130.128C59.9556 130.976 60.1796 132 60.1796 133.2V141H56.8196V133.656C56.8196 132.6 56.5556 131.792 56.0276 131.232C55.4996 130.656 54.7796 130.368 53.8676 130.368C52.9396 130.368 52.2036 130.656 51.6596 131.232C51.1316 131.792 50.8676 132.6 50.8676 133.656V141H47.5076V123.24H50.8676V129.36C51.2996 128.784 51.8756 128.336 52.5956 128.016C53.3156 127.68 54.1156 127.512 54.9956 127.512ZM75.7348 134.064C75.7348 134.544 75.7028 134.976 75.6388 135.36H65.9188C65.9988 136.32 66.3348 137.072 66.9268 137.616C67.5188 138.16 68.2468 138.432 69.1108 138.432C70.3588 138.432 71.2468 137.896 71.7748 136.824H75.3988C75.0148 138.104 74.2788 139.16 73.1908 139.992C72.1028 140.808 70.7668 141.216 69.1828 141.216C67.9028 141.216 66.7508 140.936 65.7268 140.376C64.7188 139.8 63.9268 138.992 63.3508 137.952C62.7908 136.912 62.5107 135.712 62.5107 134.352C62.5107 132.976 62.7908 131.768 63.3508 130.728C63.9108 129.688 64.6948 128.888 65.7028 128.328C66.7108 127.768 67.8708 127.488 69.1828 127.488C70.4468 127.488 71.5748 127.76 72.5668 128.304C73.5748 128.848 74.3508 129.624 74.8948 130.632C75.4548 131.624 75.7348 132.768 75.7348 134.064ZM72.2548 133.104C72.2388 132.24 71.9268 131.552 71.3188 131.04C70.7108 130.512 69.9668 130.248 69.0868 130.248C68.2548 130.248 67.5508 130.504 66.9748 131.016C66.4148 131.512 66.0708 132.208 65.9428 133.104H72.2548ZM83.09 132.6C83.09 130.952 83.458 129.48 84.194 128.184C84.946 126.872 85.962 125.856 87.242 125.136C88.538 124.4 89.986 124.032 91.586 124.032C93.458 124.032 95.098 124.512 96.506 125.472C97.914 126.432 98.898 127.76 99.458 129.456H95.594C95.21 128.656 94.666 128.056 93.962 127.656C93.274 127.256 92.474 127.056 91.562 127.056C90.586 127.056 89.714 127.288 88.946 127.752C88.194 128.2 87.602 128.84 87.17 129.672C86.754 130.504 86.546 131.48 86.546 132.6C86.546 133.704 86.754 134.68 87.17 135.528C87.602 136.36 88.194 137.008 88.946 137.472C89.714 137.92 90.586 138.144 91.562 138.144C92.474 138.144 93.274 137.944 93.962 137.544C94.666 137.128 95.21 136.52 95.594 135.72H99.458C98.898 137.432 97.914 138.768 96.506 139.728C95.114 140.672 93.474 141.144 91.586 141.144C89.986 141.144 88.538 140.784 87.242 140.064C85.962 139.328 84.946 138.312 84.194 137.016C83.458 135.72 83.09 134.248 83.09 132.6ZM105.688 123.24V141H102.328V123.24H105.688ZM108.144 134.304C108.144 132.96 108.408 131.768 108.936 130.728C109.48 129.688 110.208 128.888 111.12 128.328C112.048 127.768 113.08 127.488 114.216 127.488C115.208 127.488 116.072 127.688 116.808 128.088C117.56 128.488 118.16 128.992 118.608 129.6V127.704H121.992V141H118.608V139.056C118.176 139.68 117.576 140.2 116.808 140.616C116.056 141.016 115.184 141.216 114.192 141.216C113.072 141.216 112.048 140.928 111.12 140.352C110.208 139.776 109.48 138.968 108.936 137.928C108.408 136.872 108.144 135.664 108.144 134.304ZM118.608 134.352C118.608 133.536 118.448 132.84 118.128 132.264C117.808 131.672 117.376 131.224 116.832 130.92C116.288 130.6 115.704 130.44 115.08 130.44C114.456 130.44 113.88 130.592 113.352 130.896C112.824 131.2 112.392 131.648 112.056 132.24C111.736 132.816 111.576 133.504 111.576 134.304C111.576 135.104 111.736 135.808 112.056 136.416C112.392 137.008 112.824 137.464 113.352 137.784C113.896 138.104 114.472 138.264 115.08 138.264C115.704 138.264 116.288 138.112 116.832 137.808C117.376 137.488 117.808 137.04 118.128 136.464C118.448 135.872 118.608 135.168 118.608 134.352ZM130.361 141.216C129.273 141.216 128.297 141.024 127.433 140.64C126.569 140.24 125.881 139.704 125.369 139.032C124.873 138.36 124.601 137.616 124.553 136.8H127.937C128.001 137.312 128.249 137.736 128.681 138.072C129.129 138.408 129.681 138.576 130.337 138.576C130.977 138.576 131.473 138.448 131.825 138.192C132.193 137.936 132.377 137.608 132.377 137.208C132.377 136.776 132.153 136.456 131.705 136.248C131.273 136.024 130.577 135.784 129.617 135.528C128.625 135.288 127.809 135.04 127.169 134.784C126.545 134.528 126.001 134.136 125.537 133.608C125.089 133.08 124.865 132.368 124.865 131.472C124.865 130.736 125.073 130.064 125.489 129.456C125.921 128.848 126.529 128.368 127.313 128.016C128.113 127.664 129.049 127.488 130.121 127.488C131.705 127.488 132.969 127.888 133.913 128.688C134.857 129.472 135.377 130.536 135.473 131.88H132.257C132.209 131.352 131.985 130.936 131.585 130.632C131.201 130.312 130.681 130.152 130.025 130.152C129.417 130.152 128.945 130.264 128.609 130.488C128.289 130.712 128.129 131.024 128.129 131.424C128.129 131.872 128.353 132.216 128.801 132.456C129.249 132.68 129.945 132.912 130.889 133.152C131.849 133.392 132.641 133.64 133.265 133.896C133.889 134.152 134.425 134.552 134.873 135.096C135.337 135.624 135.577 136.328 135.593 137.208C135.593 137.976 135.377 138.664 134.945 139.272C134.529 139.88 133.921 140.36 133.121 140.712C132.337 141.048 131.417 141.216 130.361 141.216ZM143.439 141.216C142.351 141.216 141.375 141.024 140.511 140.64C139.647 140.24 138.959 139.704 138.447 139.032C137.951 138.36 137.679 137.616 137.631 136.8H141.015C141.079 137.312 141.327 137.736 141.759 138.072C142.207 138.408 142.759 138.576 143.415 138.576C144.055 138.576 144.551 138.448 144.903 138.192C145.271 137.936 145.455 137.608 145.455 137.208C145.455 136.776 145.231 136.456 144.783 136.248C144.351 136.024 143.655 135.784 142.695 135.528C141.703 135.288 140.887 135.04 140.247 134.784C139.623 134.528 139.079 134.136 138.615 133.608C138.167 133.08 137.943 132.368 137.943 131.472C137.943 130.736 138.151 130.064 138.567 129.456C138.999 128.848 139.607 128.368 140.391 128.016C141.191 127.664 142.127 127.488 143.199 127.488C144.783 127.488 146.047 127.888 146.991 128.688C147.935 129.472 148.455 130.536 148.551 131.88H145.335C145.287 131.352 145.063 130.936 144.663 130.632C144.279 130.312 143.759 130.152 143.103 130.152C142.495 130.152 142.023 130.264 141.687 130.488C141.367 130.712 141.207 131.024 141.207 131.424C141.207 131.872 141.431 132.216 141.879 132.456C142.327 132.68 143.023 132.912 143.967 133.152C144.927 133.392 145.719 133.64 146.343 133.896C146.967 134.152 147.503 134.552 147.951 135.096C148.415 135.624 148.655 136.328 148.671 137.208C148.671 137.976 148.455 138.664 148.023 139.272C147.607 139.88 146.999 140.36 146.199 140.712C145.415 141.048 144.495 141.216 143.439 141.216Z" fill="#1A1A1A"/>
<path d="M32.5 39.5701H47.5" stroke="#1A1A1A" stroke-width="2" stroke-linecap="round" stroke-linejoin="round"/>
<path d="M42.25 32.833L48.9675 39.3175L42.25 45.8019" stroke="#1A1A1A" stroke-width="2" stroke-linecap="round" stroke-linejoin="round"/>
</svg>
