<svg width="311" height="116" viewBox="0 0 311 116" fill="none" xmlns="http://www.w3.org/2000/svg">
<g clip-path="url(#clip0_0_15)">
<path opacity="0.8" d="M21.602 49.136C21.602 48.352 21.7607 47.666 22.078 47.078C22.3953 46.4807 22.8293 46.0187 23.38 45.692C23.94 45.3653 24.5653 45.202 25.256 45.202C25.9187 45.202 26.4973 45.3513 26.992 45.65C27.496 45.9393 27.8647 46.2987 28.098 46.728V45.328H29.386V56.64H28.098V51.586C27.8553 52.0153 27.482 52.3793 26.978 52.678C26.474 52.9767 25.886 53.126 25.214 53.126C24.542 53.126 23.9307 52.958 23.38 52.622C22.8293 52.286 22.3953 51.8147 22.078 51.208C21.7607 50.6013 21.602 49.9107 21.602 49.136ZM28.098 49.15C28.098 48.5713 27.9813 48.0673 27.748 47.638C27.5147 47.2087 27.1973 46.882 26.796 46.658C26.404 46.4247 25.97 46.308 25.494 46.308C25.018 46.308 24.584 46.42 24.192 46.644C23.8 46.868 23.4873 47.1947 23.254 47.624C23.0207 48.0533 22.904 48.5573 22.904 49.136C22.904 49.724 23.0207 50.2373 23.254 50.676C23.4873 51.1053 23.8 51.4367 24.192 51.67C24.584 51.894 25.018 52.006 25.494 52.006C25.97 52.006 26.404 51.894 26.796 51.67C27.1973 51.4367 27.5147 51.1053 27.748 50.676C27.9813 50.2373 28.098 49.7287 28.098 49.15ZM38.666 45.328V53H37.392V51.866C37.1493 52.258 36.8087 52.566 36.37 52.79C35.9407 53.0047 35.4647 53.112 34.942 53.112C34.3447 53.112 33.808 52.9907 33.332 52.748C32.856 52.496 32.478 52.1227 32.198 51.628C31.9273 51.1333 31.792 50.5313 31.792 49.822V45.328H33.052V49.654C33.052 50.41 33.2433 50.9933 33.626 51.404C34.0087 51.8053 34.5313 52.006 35.194 52.006C35.8753 52.006 36.412 51.796 36.804 51.376C37.196 50.956 37.392 50.3447 37.392 49.542V45.328H38.666ZM41.7982 44.082C41.5555 44.082 41.3502 43.998 41.1822 43.83C41.0142 43.662 40.9302 43.4567 40.9302 43.214C40.9302 42.9713 41.0142 42.766 41.1822 42.598C41.3502 42.43 41.5555 42.346 41.7982 42.346C42.0315 42.346 42.2275 42.43 42.3862 42.598C42.5542 42.766 42.6382 42.9713 42.6382 43.214C42.6382 43.4567 42.5542 43.662 42.3862 43.83C42.2275 43.998 42.0315 44.082 41.7982 44.082ZM42.4142 45.328V53H41.1402V45.328H42.4142ZM47.6246 53.126C47.0366 53.126 46.5092 53.028 46.0426 52.832C45.5759 52.6267 45.2072 52.3467 44.9366 51.992C44.6659 51.628 44.5166 51.2127 44.4886 50.746H45.8046C45.8419 51.1287 46.0192 51.4413 46.3366 51.684C46.6632 51.9267 47.0879 52.048 47.6106 52.048C48.0959 52.048 48.4786 51.9407 48.7586 51.726C49.0386 51.5113 49.1786 51.2407 49.1786 50.914C49.1786 50.578 49.0292 50.3307 48.7306 50.172C48.4319 50.004 47.9699 49.8407 47.3446 49.682C46.7752 49.5327 46.3086 49.3833 45.9446 49.234C45.5899 49.0753 45.2819 48.8467 45.0206 48.548C44.7686 48.24 44.6426 47.8387 44.6426 47.344C44.6426 46.952 44.7592 46.5927 44.9926 46.266C45.2259 45.9393 45.5572 45.6827 45.9866 45.496C46.4159 45.3 46.9059 45.202 47.4566 45.202C48.3059 45.202 48.9919 45.4167 49.5146 45.846C50.0372 46.2753 50.3172 46.8633 50.3546 47.61H49.0806C49.0526 47.2087 48.8892 46.8867 48.5906 46.644C48.3012 46.4013 47.9092 46.28 47.4146 46.28C46.9572 46.28 46.5932 46.378 46.3226 46.574C46.0519 46.77 45.9166 47.0267 45.9166 47.344C45.9166 47.596 45.9959 47.806 46.1546 47.974C46.3226 48.1327 46.5279 48.2633 46.7706 48.366C47.0226 48.4593 47.3679 48.5667 47.8066 48.688C48.3572 48.8373 48.8052 48.9867 49.1506 49.136C49.4959 49.276 49.7899 49.4907 50.0326 49.78C50.2846 50.0693 50.4152 50.4473 50.4246 50.914C50.4246 51.334 50.3079 51.712 50.0746 52.048C49.8412 52.384 49.5099 52.65 49.0806 52.846C48.6606 53.0327 48.1752 53.126 47.6246 53.126ZM60.3396 45.188C61.2729 45.188 62.0289 45.4727 62.6076 46.042C63.1863 46.602 63.4756 47.414 63.4756 48.478V53H62.2156V48.66C62.2156 47.8947 62.0243 47.3113 61.6416 46.91C61.2589 46.4993 60.7363 46.294 60.0736 46.294C59.4016 46.294 58.8649 46.504 58.4636 46.924C58.0716 47.344 57.8756 47.9553 57.8756 48.758V53H56.6016V45.328H57.8756V46.42C58.1276 46.028 58.4683 45.7247 58.8976 45.51C59.3363 45.2953 59.8169 45.188 60.3396 45.188ZM69.2257 53.126C68.5071 53.126 67.8537 52.9627 67.2657 52.636C66.6871 52.3093 66.2297 51.8473 65.8937 51.25C65.5671 50.6433 65.4037 49.9433 65.4037 49.15C65.4037 48.366 65.5717 47.6753 65.9077 47.078C66.2531 46.4713 66.7197 46.0093 67.3077 45.692C67.8957 45.3653 68.5537 45.202 69.2817 45.202C70.0097 45.202 70.6677 45.3653 71.2557 45.692C71.8437 46.0093 72.3057 46.4667 72.6417 47.064C72.9871 47.6613 73.1597 48.3567 73.1597 49.15C73.1597 49.9433 72.9824 50.6433 72.6277 51.25C72.2824 51.8473 71.8111 52.3093 71.2137 52.636C70.6164 52.9627 69.9537 53.126 69.2257 53.126ZM69.2257 52.006C69.6831 52.006 70.1124 51.8987 70.5137 51.684C70.9151 51.4693 71.2371 51.1473 71.4797 50.718C71.7317 50.2887 71.8577 49.766 71.8577 49.15C71.8577 48.534 71.7364 48.0113 71.4937 47.582C71.2511 47.1527 70.9337 46.8353 70.5417 46.63C70.1497 46.4153 69.7251 46.308 69.2677 46.308C68.8011 46.308 68.3717 46.4153 67.9797 46.63C67.5971 46.8353 67.2891 47.1527 67.0557 47.582C66.8224 48.0113 66.7057 48.534 66.7057 49.15C66.7057 49.7753 66.8177 50.3027 67.0417 50.732C67.2751 51.1613 67.5831 51.4833 67.9657 51.698C68.3484 51.9033 68.7684 52.006 69.2257 52.006ZM77.8739 53.126C77.2859 53.126 76.7586 53.028 76.2919 52.832C75.8252 52.6267 75.4566 52.3467 75.1859 51.992C74.9152 51.628 74.7659 51.2127 74.7379 50.746H76.0539C76.0912 51.1287 76.2686 51.4413 76.5859 51.684C76.9126 51.9267 77.3372 52.048 77.8599 52.048C78.3452 52.048 78.7279 51.9407 79.0079 51.726C79.2879 51.5113 79.4279 51.2407 79.4279 50.914C79.4279 50.578 79.2786 50.3307 78.9799 50.172C78.6812 50.004 78.2192 49.8407 77.5939 49.682C77.0246 49.5327 76.5579 49.3833 76.1939 49.234C75.8392 49.0753 75.5312 48.8467 75.2699 48.548C75.0179 48.24 74.8919 47.8387 74.8919 47.344C74.8919 46.952 75.0086 46.5927 75.2419 46.266C75.4752 45.9393 75.8066 45.6827 76.2359 45.496C76.6652 45.3 77.1552 45.202 77.7059 45.202C78.5552 45.202 79.2412 45.4167 79.7639 45.846C80.2866 46.2753 80.5666 46.8633 80.6039 47.61H79.3299C79.3019 47.2087 79.1386 46.8867 78.8399 46.644C78.5506 46.4013 78.1586 46.28 77.6639 46.28C77.2066 46.28 76.8426 46.378 76.5719 46.574C76.3012 46.77 76.1659 47.0267 76.1659 47.344C76.1659 47.596 76.2452 47.806 76.4039 47.974C76.5719 48.1327 76.7772 48.2633 77.0199 48.366C77.2719 48.4593 77.6172 48.5667 78.0559 48.688C78.6066 48.8373 79.0546 48.9867 79.3999 49.136C79.7452 49.276 80.0392 49.4907 80.2819 49.78C80.5339 50.0693 80.6646 50.4473 80.6739 50.914C80.6739 51.334 80.5572 51.712 80.3239 52.048C80.0906 52.384 79.7592 52.65 79.3299 52.846C78.9099 53.0327 78.4246 53.126 77.8739 53.126ZM84.3494 46.378V50.9C84.3494 51.2733 84.4288 51.5393 84.5874 51.698C84.7461 51.8473 85.0214 51.922 85.4134 51.922H86.3514V53H85.2034C84.4941 53 83.9621 52.8367 83.6074 52.51C83.2528 52.1833 83.0754 51.6467 83.0754 50.9V46.378H82.0814V45.328H83.0754V43.396H84.3494V45.328H86.3514V46.378H84.3494ZM89.4921 46.574C89.7161 46.1353 90.0334 45.7947 90.4441 45.552C90.8641 45.3093 91.3728 45.188 91.9701 45.188V46.504H91.6341C90.2061 46.504 89.4921 47.2787 89.4921 48.828V53H88.2181V45.328H89.4921V46.574ZM100.568 45.328V53H99.2938V51.866C99.0512 52.258 98.7105 52.566 98.2718 52.79C97.8425 53.0047 97.3665 53.112 96.8438 53.112C96.2465 53.112 95.7098 52.9907 95.2338 52.748C94.7578 52.496 94.3798 52.1227 94.0998 51.628C93.8292 51.1333 93.6938 50.5313 93.6938 49.822V45.328H94.9538V49.654C94.9538 50.41 95.1452 50.9933 95.5278 51.404C95.9105 51.8053 96.4332 52.006 97.0958 52.006C97.7772 52.006 98.3138 51.796 98.7058 51.376C99.0978 50.956 99.2938 50.3447 99.2938 49.542V45.328H100.568ZM102.566 49.136C102.566 48.352 102.725 47.666 103.042 47.078C103.359 46.4807 103.793 46.0187 104.344 45.692C104.904 45.3653 105.529 45.202 106.22 45.202C106.817 45.202 107.373 45.342 107.886 45.622C108.399 45.8927 108.791 46.252 109.062 46.7V42.64H110.35V53H109.062V51.558C108.81 52.0153 108.437 52.3933 107.942 52.692C107.447 52.9813 106.869 53.126 106.206 53.126C105.525 53.126 104.904 52.958 104.344 52.622C103.793 52.286 103.359 51.8147 103.042 51.208C102.725 50.6013 102.566 49.9107 102.566 49.136ZM109.062 49.15C109.062 48.5713 108.945 48.0673 108.712 47.638C108.479 47.2087 108.161 46.882 107.76 46.658C107.368 46.4247 106.934 46.308 106.458 46.308C105.982 46.308 105.548 46.42 105.156 46.644C104.764 46.868 104.451 47.1947 104.218 47.624C103.985 48.0533 103.868 48.5573 103.868 49.136C103.868 49.724 103.985 50.2373 104.218 50.676C104.451 51.1053 104.764 51.4367 105.156 51.67C105.548 51.894 105.982 52.006 106.458 52.006C106.934 52.006 107.368 51.894 107.76 51.67C108.161 51.4367 108.479 51.1053 108.712 50.676C108.945 50.2373 109.062 49.7287 109.062 49.15ZM123.882 48.87C123.882 49.1127 123.868 49.3693 123.84 49.64H117.708C117.754 50.396 118.011 50.9887 118.478 51.418C118.954 51.838 119.528 52.048 120.2 52.048C120.75 52.048 121.208 51.922 121.572 51.67C121.945 51.4087 122.206 51.0633 122.356 50.634H123.728C123.522 51.3713 123.112 51.9733 122.496 52.44C121.88 52.8973 121.114 53.126 120.2 53.126C119.472 53.126 118.818 52.9627 118.24 52.636C117.67 52.3093 117.222 51.8473 116.896 51.25C116.569 50.6433 116.406 49.9433 116.406 49.15C116.406 48.3567 116.564 47.6613 116.882 47.064C117.199 46.4667 117.642 46.0093 118.212 45.692C118.79 45.3653 119.453 45.202 120.2 45.202C120.928 45.202 121.572 45.3607 122.132 45.678C122.692 45.9953 123.121 46.434 123.42 46.994C123.728 47.5447 123.882 48.17 123.882 48.87ZM122.566 48.604C122.566 48.1187 122.458 47.7033 122.244 47.358C122.029 47.0033 121.735 46.7373 121.362 46.56C120.998 46.3733 120.592 46.28 120.144 46.28C119.5 46.28 118.949 46.4853 118.492 46.896C118.044 47.3067 117.787 47.876 117.722 48.604H122.566ZM129.89 53L128.07 50.144L126.32 53H124.99L127.468 49.192L124.99 45.328H126.432L128.252 48.17L129.988 45.328H131.318L128.854 49.122L131.332 53H129.89ZM139.909 48.87C139.909 49.1127 139.895 49.3693 139.867 49.64H133.735C133.781 50.396 134.038 50.9887 134.505 51.418C134.981 51.838 135.555 52.048 136.227 52.048C136.777 52.048 137.235 51.922 137.599 51.67C137.972 51.4087 138.233 51.0633 138.383 50.634H139.755C139.549 51.3713 139.139 51.9733 138.523 52.44C137.907 52.8973 137.141 53.126 136.227 53.126C135.499 53.126 134.845 52.9627 134.267 52.636C133.697 52.3093 133.249 51.8473 132.923 51.25C132.596 50.6433 132.433 49.9433 132.433 49.15C132.433 48.3567 132.591 47.6613 132.909 47.064C133.226 46.4667 133.669 46.0093 134.239 45.692C134.817 45.3653 135.48 45.202 136.227 45.202C136.955 45.202 137.599 45.3607 138.159 45.678C138.719 45.9953 139.148 46.434 139.447 46.994C139.755 47.5447 139.909 48.17 139.909 48.87ZM138.593 48.604C138.593 48.1187 138.485 47.7033 138.271 47.358C138.056 47.0033 137.762 46.7373 137.389 46.56C137.025 46.3733 136.619 46.28 136.171 46.28C135.527 46.28 134.976 46.4853 134.519 46.896C134.071 47.3067 133.814 47.876 133.749 48.604H138.593ZM143.187 46.574C143.411 46.1353 143.729 45.7947 144.139 45.552C144.559 45.3093 145.068 45.188 145.665 45.188V46.504H145.329C143.901 46.504 143.187 47.2787 143.187 48.828V53H141.913V45.328H143.187V46.574ZM146.983 49.15C146.983 48.3567 147.142 47.666 147.459 47.078C147.776 46.4807 148.215 46.0187 148.775 45.692C149.344 45.3653 149.993 45.202 150.721 45.202C151.664 45.202 152.438 45.4307 153.045 45.888C153.661 46.3453 154.067 46.98 154.263 47.792H152.891C152.76 47.3253 152.504 46.9567 152.121 46.686C151.748 46.4153 151.281 46.28 150.721 46.28C149.993 46.28 149.405 46.532 148.957 47.036C148.509 47.5307 148.285 48.2353 148.285 49.15C148.285 50.074 148.509 50.788 148.957 51.292C149.405 51.796 149.993 52.048 150.721 52.048C151.281 52.048 151.748 51.9173 152.121 51.656C152.494 51.3947 152.751 51.0213 152.891 50.536H154.263C154.058 51.32 153.647 51.95 153.031 52.426C152.415 52.8927 151.645 53.126 150.721 53.126C149.993 53.126 149.344 52.9627 148.775 52.636C148.215 52.3093 147.776 51.8473 147.459 51.25C147.142 50.6527 146.983 49.9527 146.983 49.15ZM156.944 44.082C156.701 44.082 156.496 43.998 156.328 43.83C156.16 43.662 156.076 43.4567 156.076 43.214C156.076 42.9713 156.16 42.766 156.328 42.598C156.496 42.43 156.701 42.346 156.944 42.346C157.177 42.346 157.373 42.43 157.532 42.598C157.7 42.766 157.784 42.9713 157.784 43.214C157.784 43.4567 157.7 43.662 157.532 43.83C157.373 43.998 157.177 44.082 156.944 44.082ZM157.56 45.328V53H156.286V45.328H157.56ZM161.608 46.378V50.9C161.608 51.2733 161.688 51.5393 161.846 51.698C162.005 51.8473 162.28 51.922 162.672 51.922H163.61V53H162.462C161.753 53 161.221 52.8367 160.866 52.51C160.512 52.1833 160.334 51.6467 160.334 50.9V46.378H159.34V45.328H160.334V43.396H161.608V45.328H163.61V46.378H161.608ZM165.001 49.136C165.001 48.352 165.16 47.666 165.477 47.078C165.794 46.4807 166.228 46.0187 166.779 45.692C167.339 45.3653 167.96 45.202 168.641 45.202C169.313 45.202 169.896 45.3467 170.391 45.636C170.886 45.9253 171.254 46.2893 171.497 46.728V45.328H172.785V53H171.497V51.572C171.245 52.02 170.867 52.3933 170.363 52.692C169.868 52.9813 169.29 53.126 168.627 53.126C167.946 53.126 167.33 52.958 166.779 52.622C166.228 52.286 165.794 51.8147 165.477 51.208C165.16 50.6013 165.001 49.9107 165.001 49.136ZM171.497 49.15C171.497 48.5713 171.38 48.0673 171.147 47.638C170.914 47.2087 170.596 46.882 170.195 46.658C169.803 46.4247 169.369 46.308 168.893 46.308C168.417 46.308 167.983 46.42 167.591 46.644C167.199 46.868 166.886 47.1947 166.653 47.624C166.42 48.0533 166.303 48.5573 166.303 49.136C166.303 49.724 166.42 50.2373 166.653 50.676C166.886 51.1053 167.199 51.4367 167.591 51.67C167.983 51.894 168.417 52.006 168.893 52.006C169.369 52.006 169.803 51.894 170.195 51.67C170.596 51.4367 170.914 51.1053 171.147 50.676C171.38 50.2373 171.497 49.7287 171.497 49.15ZM176.815 46.378V50.9C176.815 51.2733 176.894 51.5393 177.053 51.698C177.212 51.8473 177.487 51.922 177.879 51.922H178.817V53H177.669C176.96 53 176.428 52.8367 176.073 52.51C175.718 52.1833 175.541 51.6467 175.541 50.9V46.378H174.547V45.328H175.541V43.396H176.815V45.328H178.817V46.378H176.815ZM181.342 44.082C181.099 44.082 180.894 43.998 180.726 43.83C180.558 43.662 180.474 43.4567 180.474 43.214C180.474 42.9713 180.558 42.766 180.726 42.598C180.894 42.43 181.099 42.346 181.342 42.346C181.575 42.346 181.771 42.43 181.93 42.598C182.098 42.766 182.182 42.9713 182.182 43.214C182.182 43.4567 182.098 43.662 181.93 43.83C181.771 43.998 181.575 44.082 181.342 44.082ZM181.958 45.328V53H180.684V45.328H181.958ZM187.798 53.126C187.079 53.126 186.426 52.9627 185.838 52.636C185.259 52.3093 184.802 51.8473 184.466 51.25C184.139 50.6433 183.976 49.9433 183.976 49.15C183.976 48.366 184.144 47.6753 184.48 47.078C184.825 46.4713 185.292 46.0093 185.88 45.692C186.468 45.3653 187.126 45.202 187.854 45.202C188.582 45.202 189.24 45.3653 189.828 45.692C190.416 46.0093 190.878 46.4667 191.214 47.064C191.559 47.6613 191.732 48.3567 191.732 49.15C191.732 49.9433 191.555 50.6433 191.2 51.25C190.855 51.8473 190.383 52.3093 189.786 52.636C189.189 52.9627 188.526 53.126 187.798 53.126ZM187.798 52.006C188.255 52.006 188.685 51.8987 189.086 51.684C189.487 51.4693 189.809 51.1473 190.052 50.718C190.304 50.2887 190.43 49.766 190.43 49.15C190.43 48.534 190.309 48.0113 190.066 47.582C189.823 47.1527 189.506 46.8353 189.114 46.63C188.722 46.4153 188.297 46.308 187.84 46.308C187.373 46.308 186.944 46.4153 186.552 46.63C186.169 46.8353 185.861 47.1527 185.628 47.582C185.395 48.0113 185.278 48.534 185.278 49.15C185.278 49.7753 185.39 50.3027 185.614 50.732C185.847 51.1613 186.155 51.4833 186.538 51.698C186.921 51.9033 187.341 52.006 187.798 52.006ZM197.468 45.188C198.402 45.188 199.158 45.4727 199.736 46.042C200.315 46.602 200.604 47.414 200.604 48.478V53H199.344V48.66C199.344 47.8947 199.153 47.3113 198.77 46.91C198.388 46.4993 197.865 46.294 197.202 46.294C196.53 46.294 195.994 46.504 195.592 46.924C195.2 47.344 195.004 47.9553 195.004 48.758V53H193.73V45.328H195.004V46.42C195.256 46.028 195.597 45.7247 196.026 45.51C196.465 45.2953 196.946 45.188 197.468 45.188ZM213.868 45.328V53H212.594V51.866C212.351 52.258 212.011 52.566 211.572 52.79C211.143 53.0047 210.667 53.112 210.144 53.112C209.547 53.112 209.01 52.9907 208.534 52.748C208.058 52.496 207.68 52.1227 207.4 51.628C207.129 51.1333 206.994 50.5313 206.994 49.822V45.328H208.254V49.654C208.254 50.41 208.445 50.9933 208.828 51.404C209.211 51.8053 209.733 52.006 210.396 52.006C211.077 52.006 211.614 51.796 212.006 51.376C212.398 50.956 212.594 50.3447 212.594 49.542V45.328H213.868ZM217.616 42.64V53H216.342V42.64H217.616ZM221.384 42.64V53H220.11V42.64H221.384ZM223.403 49.136C223.403 48.352 223.562 47.666 223.879 47.078C224.196 46.4807 224.63 46.0187 225.181 45.692C225.741 45.3653 226.362 45.202 227.043 45.202C227.715 45.202 228.298 45.3467 228.793 45.636C229.288 45.9253 229.656 46.2893 229.899 46.728V45.328H231.187V53H229.899V51.572C229.647 52.02 229.269 52.3933 228.765 52.692C228.27 52.9813 227.692 53.126 227.029 53.126C226.348 53.126 225.732 52.958 225.181 52.622C224.63 52.286 224.196 51.8147 223.879 51.208C223.562 50.6013 223.403 49.9107 223.403 49.136ZM229.899 49.15C229.899 48.5713 229.782 48.0673 229.549 47.638C229.316 47.2087 228.998 46.882 228.597 46.658C228.205 46.4247 227.771 46.308 227.295 46.308C226.819 46.308 226.385 46.42 225.993 46.644C225.601 46.868 225.288 47.1947 225.055 47.624C224.822 48.0533 224.705 48.5573 224.705 49.136C224.705 49.724 224.822 50.2373 225.055 50.676C225.288 51.1053 225.601 51.4367 225.993 51.67C226.385 51.894 226.819 52.006 227.295 52.006C227.771 52.006 228.205 51.894 228.597 51.67C228.998 51.4367 229.316 51.1053 229.549 50.676C229.782 50.2373 229.899 49.7287 229.899 49.15ZM242.889 45.188C243.486 45.188 244.018 45.314 244.485 45.566C244.952 45.8087 245.32 46.1773 245.591 46.672C245.862 47.1667 245.997 47.7687 245.997 48.478V53H244.737V48.66C244.737 47.8947 244.546 47.3113 244.163 46.91C243.79 46.4993 243.281 46.294 242.637 46.294C241.974 46.294 241.447 46.5087 241.055 46.938C240.663 47.358 240.467 47.9693 240.467 48.772V53H239.207V48.66C239.207 47.8947 239.016 47.3113 238.633 46.91C238.26 46.4993 237.751 46.294 237.107 46.294C236.444 46.294 235.917 46.5087 235.525 46.938C235.133 47.358 234.937 47.9693 234.937 48.772V53H233.663V45.328H234.937V46.434C235.189 46.0327 235.525 45.7247 235.945 45.51C236.374 45.2953 236.846 45.188 237.359 45.188C238.003 45.188 238.572 45.3327 239.067 45.622C239.562 45.9113 239.93 46.336 240.173 46.896C240.388 46.3547 240.742 45.9347 241.237 45.636C241.732 45.3373 242.282 45.188 242.889 45.188ZM247.934 49.15C247.934 48.3567 248.092 47.666 248.41 47.078C248.727 46.4807 249.166 46.0187 249.726 45.692C250.295 45.3653 250.944 45.202 251.672 45.202C252.614 45.202 253.389 45.4307 253.996 45.888C254.612 46.3453 255.018 46.98 255.214 47.792H253.842C253.711 47.3253 253.454 46.9567 253.072 46.686C252.698 46.4153 252.232 46.28 251.672 46.28C250.944 46.28 250.356 46.532 249.908 47.036C249.46 47.5307 249.236 48.2353 249.236 49.15C249.236 50.074 249.46 50.788 249.908 51.292C250.356 51.796 250.944 52.048 251.672 52.048C252.232 52.048 252.698 51.9173 253.072 51.656C253.445 51.3947 253.702 51.0213 253.842 50.536H255.214C255.008 51.32 254.598 51.95 253.982 52.426C253.366 52.8927 252.596 53.126 251.672 53.126C250.944 53.126 250.295 52.9627 249.726 52.636C249.166 52.3093 248.727 51.8473 248.41 51.25C248.092 50.6527 247.934 49.9527 247.934 49.15ZM260.583 53.126C259.864 53.126 259.211 52.9627 258.623 52.636C258.044 52.3093 257.587 51.8473 257.251 51.25C256.924 50.6433 256.761 49.9433 256.761 49.15C256.761 48.366 256.929 47.6753 257.265 47.078C257.61 46.4713 258.077 46.0093 258.665 45.692C259.253 45.3653 259.911 45.202 260.639 45.202C261.367 45.202 262.025 45.3653 262.613 45.692C263.201 46.0093 263.663 46.4667 263.999 47.064C264.344 47.6613 264.517 48.3567 264.517 49.15C264.517 49.9433 264.339 50.6433 263.985 51.25C263.639 51.8473 263.168 52.3093 262.571 52.636C261.973 52.9627 261.311 53.126 260.583 53.126ZM260.583 52.006C261.04 52.006 261.469 51.8987 261.871 51.684C262.272 51.4693 262.594 51.1473 262.837 50.718C263.089 50.2887 263.215 49.766 263.215 49.15C263.215 48.534 263.093 48.0113 262.851 47.582C262.608 47.1527 262.291 46.8353 261.899 46.63C261.507 46.4153 261.082 46.308 260.625 46.308C260.158 46.308 259.729 46.4153 259.337 46.63C258.954 46.8353 258.646 47.1527 258.413 47.582C258.179 48.0113 258.063 48.534 258.063 49.15C258.063 49.7753 258.175 50.3027 258.399 50.732C258.632 51.1613 258.94 51.4833 259.323 51.698C259.705 51.9033 260.125 52.006 260.583 52.006ZM23.352 69.64V80H22.078V69.64H23.352ZM25.3704 76.136C25.3704 75.352 25.5291 74.666 25.8464 74.078C26.1637 73.4807 26.5977 73.0187 27.1484 72.692C27.7084 72.3653 28.3291 72.202 29.0104 72.202C29.6824 72.202 30.2657 72.3467 30.7604 72.636C31.2551 72.9253 31.6237 73.2893 31.8664 73.728V72.328H33.1544V80H31.8664V78.572C31.6144 79.02 31.2364 79.3933 30.7324 79.692C30.2377 79.9813 29.6591 80.126 28.9964 80.126C28.3151 80.126 27.6991 79.958 27.1484 79.622C26.5977 79.286 26.1637 78.8147 25.8464 78.208C25.5291 77.6013 25.3704 76.9107 25.3704 76.136ZM31.8664 76.15C31.8664 75.5713 31.7497 75.0673 31.5164 74.638C31.2831 74.2087 30.9657 73.882 30.5644 73.658C30.1724 73.4247 29.7384 73.308 29.2624 73.308C28.7864 73.308 28.3524 73.42 27.9604 73.644C27.5684 73.868 27.2557 74.1947 27.0224 74.624C26.7891 75.0533 26.6724 75.5573 26.6724 76.136C26.6724 76.724 26.7891 77.2373 27.0224 77.676C27.2557 78.1053 27.5684 78.4367 27.9604 78.67C28.3524 78.894 28.7864 79.006 29.2624 79.006C29.7384 79.006 30.1724 78.894 30.5644 78.67C30.9657 78.4367 31.2831 78.1053 31.5164 77.676C31.7497 77.2373 31.8664 76.7287 31.8664 76.15ZM36.9044 73.756C37.1657 73.2987 37.5484 72.9253 38.0524 72.636C38.5564 72.3467 39.1304 72.202 39.7744 72.202C40.4651 72.202 41.0857 72.3653 41.6364 72.692C42.1871 73.0187 42.6211 73.4807 42.9384 74.078C43.2557 74.666 43.4144 75.352 43.4144 76.136C43.4144 76.9107 43.2557 77.6013 42.9384 78.208C42.6211 78.8147 42.1824 79.286 41.6224 79.622C41.0717 79.958 40.4557 80.126 39.7744 80.126C39.1117 80.126 38.5284 79.9813 38.0244 79.692C37.5297 79.4027 37.1564 79.034 36.9044 78.586V80H35.6304V69.64H36.9044V73.756ZM42.1124 76.136C42.1124 75.5573 41.9957 75.0533 41.7624 74.624C41.5291 74.1947 41.2117 73.868 40.8104 73.644C40.4184 73.42 39.9844 73.308 39.5084 73.308C39.0417 73.308 38.6077 73.4247 38.2064 73.658C37.8144 73.882 37.4971 74.2133 37.2544 74.652C37.0211 75.0813 36.9044 75.5807 36.9044 76.15C36.9044 76.7287 37.0211 77.2373 37.2544 77.676C37.4971 78.1053 37.8144 78.4367 38.2064 78.67C38.6077 78.894 39.0417 79.006 39.5084 79.006C39.9844 79.006 40.4184 78.894 40.8104 78.67C41.2117 78.4367 41.5291 78.1053 41.7624 77.676C41.9957 77.2373 42.1124 76.724 42.1124 76.136ZM48.7604 80.126C48.0418 80.126 47.3884 79.9627 46.8004 79.636C46.2218 79.3093 45.7644 78.8473 45.4284 78.25C45.1018 77.6433 44.9384 76.9433 44.9384 76.15C44.9384 75.366 45.1064 74.6753 45.4424 74.078C45.7878 73.4713 46.2544 73.0093 46.8424 72.692C47.4304 72.3653 48.0884 72.202 48.8164 72.202C49.5444 72.202 50.2024 72.3653 50.7904 72.692C51.3784 73.0093 51.8404 73.4667 52.1764 74.064C52.5218 74.6613 52.6944 75.3567 52.6944 76.15C52.6944 76.9433 52.5171 77.6433 52.1624 78.25C51.8171 78.8473 51.3458 79.3093 50.7484 79.636C50.1511 79.9627 49.4884 80.126 48.7604 80.126ZM48.7604 79.006C49.2178 79.006 49.6471 78.8987 50.0484 78.684C50.4498 78.4693 50.7718 78.1473 51.0144 77.718C51.2664 77.2887 51.3924 76.766 51.3924 76.15C51.3924 75.534 51.2711 75.0113 51.0284 74.582C50.7858 74.1527 50.4684 73.8353 50.0764 73.63C49.6844 73.4153 49.2598 73.308 48.8024 73.308C48.3358 73.308 47.9064 73.4153 47.5144 73.63C47.1318 73.8353 46.8238 74.1527 46.5904 74.582C46.3571 75.0113 46.2404 75.534 46.2404 76.15C46.2404 76.7753 46.3524 77.3027 46.5764 77.732C46.8098 78.1613 47.1178 78.4833 47.5004 78.698C47.8831 78.9033 48.3031 79.006 48.7604 79.006ZM55.9666 73.574C56.1906 73.1353 56.5079 72.7947 56.9186 72.552C57.3386 72.3093 57.8472 72.188 58.4446 72.188V73.504H58.1086C56.6806 73.504 55.9666 74.2787 55.9666 75.828V80H54.6926V72.328H55.9666V73.574ZM60.8963 71.082C60.6536 71.082 60.4483 70.998 60.2803 70.83C60.1123 70.662 60.0283 70.4567 60.0283 70.214C60.0283 69.9713 60.1123 69.766 60.2803 69.598C60.4483 69.43 60.6536 69.346 60.8963 69.346C61.1296 69.346 61.3256 69.43 61.4843 69.598C61.6523 69.766 61.7363 69.9713 61.7363 70.214C61.7363 70.4567 61.6523 70.662 61.4843 70.83C61.3256 70.998 61.1296 71.082 60.8963 71.082ZM61.5123 72.328V80H60.2383V72.328H61.5123ZM66.7227 80.126C66.1347 80.126 65.6074 80.028 65.1407 79.832C64.674 79.6267 64.3054 79.3467 64.0347 78.992C63.764 78.628 63.6147 78.2127 63.5867 77.746H64.9027C64.94 78.1287 65.1174 78.4413 65.4347 78.684C65.7614 78.9267 66.186 79.048 66.7087 79.048C67.194 79.048 67.5767 78.9407 67.8567 78.726C68.1367 78.5113 68.2767 78.2407 68.2767 77.914C68.2767 77.578 68.1274 77.3307 67.8287 77.172C67.53 77.004 67.068 76.8407 66.4427 76.682C65.8734 76.5327 65.4067 76.3833 65.0427 76.234C64.688 76.0753 64.38 75.8467 64.1187 75.548C63.8667 75.24 63.7407 74.8387 63.7407 74.344C63.7407 73.952 63.8574 73.5927 64.0907 73.266C64.324 72.9393 64.6554 72.6827 65.0847 72.496C65.514 72.3 66.004 72.202 66.5547 72.202C67.404 72.202 68.09 72.4167 68.6127 72.846C69.1354 73.2753 69.4154 73.8633 69.4527 74.61H68.1787C68.1507 74.2087 67.9874 73.8867 67.6887 73.644C67.3994 73.4013 67.0074 73.28 66.5127 73.28C66.0554 73.28 65.6914 73.378 65.4207 73.574C65.15 73.77 65.0147 74.0267 65.0147 74.344C65.0147 74.596 65.094 74.806 65.2527 74.974C65.4207 75.1327 65.626 75.2633 65.8687 75.366C66.1207 75.4593 66.466 75.5667 66.9047 75.688C67.4554 75.8373 67.9034 75.9867 68.2487 76.136C68.594 76.276 68.888 76.4907 69.1307 76.78C69.3827 77.0693 69.5134 77.4473 69.5227 77.914C69.5227 78.334 69.406 78.712 69.1727 79.048C68.9394 79.384 68.608 79.65 68.1787 79.846C67.7587 80.0327 67.2734 80.126 66.7227 80.126ZM79.4377 72.188C80.3711 72.188 81.1271 72.4727 81.7057 73.042C82.2844 73.602 82.5737 74.414 82.5737 75.478V80H81.3137V75.66C81.3137 74.8947 81.1224 74.3113 80.7397 73.91C80.3571 73.4993 79.8344 73.294 79.1717 73.294C78.4997 73.294 77.9631 73.504 77.5617 73.924C77.1697 74.344 76.9737 74.9553 76.9737 75.758V80H75.6997V72.328H76.9737V73.42C77.2257 73.028 77.5664 72.7247 77.9957 72.51C78.4344 72.2953 78.9151 72.188 79.4377 72.188ZM85.6359 71.082C85.3932 71.082 85.1879 70.998 85.0199 70.83C84.8519 70.662 84.7679 70.4567 84.7679 70.214C84.7679 69.9713 84.8519 69.766 85.0199 69.598C85.1879 69.43 85.3932 69.346 85.6359 69.346C85.8692 69.346 86.0652 69.43 86.2239 69.598C86.3919 69.766 86.4759 69.9713 86.4759 70.214C86.4759 70.4567 86.3919 70.662 86.2239 70.83C86.0652 70.998 85.8692 71.082 85.6359 71.082ZM86.2519 72.328V80H84.9779V72.328H86.2519ZM91.4623 80.126C90.8743 80.126 90.3469 80.028 89.8803 79.832C89.4136 79.6267 89.0449 79.3467 88.7743 78.992C88.5036 78.628 88.3543 78.2127 88.3263 77.746H89.6423C89.6796 78.1287 89.8569 78.4413 90.1743 78.684C90.5009 78.9267 90.9256 79.048 91.4483 79.048C91.9336 79.048 92.3163 78.9407 92.5963 78.726C92.8763 78.5113 93.0163 78.2407 93.0163 77.914C93.0163 77.578 92.8669 77.3307 92.5683 77.172C92.2696 77.004 91.8076 76.8407 91.1823 76.682C90.6129 76.5327 90.1463 76.3833 89.7823 76.234C89.4276 76.0753 89.1196 75.8467 88.8583 75.548C88.6063 75.24 88.4803 74.8387 88.4803 74.344C88.4803 73.952 88.5969 73.5927 88.8303 73.266C89.0636 72.9393 89.3949 72.6827 89.8243 72.496C90.2536 72.3 90.7436 72.202 91.2943 72.202C92.1436 72.202 92.8296 72.4167 93.3523 72.846C93.8749 73.2753 94.1549 73.8633 94.1923 74.61H92.9183C92.8903 74.2087 92.7269 73.8867 92.4283 73.644C92.1389 73.4013 91.7469 73.28 91.2523 73.28C90.7949 73.28 90.4309 73.378 90.1603 73.574C89.8896 73.77 89.7543 74.0267 89.7543 74.344C89.7543 74.596 89.8336 74.806 89.9923 74.974C90.1603 75.1327 90.3656 75.2633 90.6083 75.366C90.8603 75.4593 91.2056 75.5667 91.6443 75.688C92.1949 75.8373 92.6429 75.9867 92.9883 76.136C93.3336 76.276 93.6276 76.4907 93.8703 76.78C94.1223 77.0693 94.2529 77.4473 94.2623 77.914C94.2623 78.334 94.1456 78.712 93.9123 79.048C93.6789 79.384 93.3476 79.65 92.9183 79.846C92.4983 80.0327 92.0129 80.126 91.4623 80.126ZM97.0418 71.082C96.7991 71.082 96.5938 70.998 96.4258 70.83C96.2578 70.662 96.1738 70.4567 96.1738 70.214C96.1738 69.9713 96.2578 69.766 96.4258 69.598C96.5938 69.43 96.7991 69.346 97.0418 69.346C97.2751 69.346 97.4711 69.43 97.6298 69.598C97.7978 69.766 97.8818 69.9713 97.8818 70.214C97.8818 70.4567 97.7978 70.662 97.6298 70.83C97.4711 70.998 97.2751 71.082 97.0418 71.082ZM97.6578 72.328V80H96.3838V72.328H97.6578ZM111.012 72.328V80H109.738V78.866C109.495 79.258 109.154 79.566 108.716 79.79C108.286 80.0047 107.81 80.112 107.288 80.112C106.69 80.112 106.154 79.9907 105.678 79.748C105.202 79.496 104.824 79.1227 104.544 78.628C104.273 78.1333 104.138 77.5313 104.138 76.822V72.328H105.398V76.654C105.398 77.41 105.589 77.9933 105.972 78.404C106.354 78.8053 106.877 79.006 107.54 79.006C108.221 79.006 108.758 78.796 109.15 78.376C109.542 77.956 109.738 77.3447 109.738 76.542V72.328H111.012ZM115.04 73.378V77.9C115.04 78.2733 115.119 78.5393 115.278 78.698C115.437 78.8473 115.712 78.922 116.104 78.922H117.042V80H115.894C115.185 80 114.653 79.8367 114.298 79.51C113.943 79.1833 113.766 78.6467 113.766 77.9V73.378H112.772V72.328H113.766V70.396H115.04V72.328H117.042V73.378H115.04ZM122.488 76.136C122.488 75.352 122.647 74.666 122.964 74.078C123.281 73.4807 123.715 73.0187 124.266 72.692C124.826 72.3653 125.447 72.202 126.128 72.202C126.8 72.202 127.383 72.3467 127.878 72.636C128.373 72.9253 128.741 73.2893 128.984 73.728V72.328H130.272V80H128.984V78.572C128.732 79.02 128.354 79.3933 127.85 79.692C127.355 79.9813 126.777 80.126 126.114 80.126C125.433 80.126 124.817 79.958 124.266 79.622C123.715 79.286 123.281 78.8147 122.964 78.208C122.647 77.6013 122.488 76.9107 122.488 76.136ZM128.984 76.15C128.984 75.5713 128.867 75.0673 128.634 74.638C128.401 74.2087 128.083 73.882 127.682 73.658C127.29 73.4247 126.856 73.308 126.38 73.308C125.904 73.308 125.47 73.42 125.078 73.644C124.686 73.868 124.373 74.1947 124.14 74.624C123.907 75.0533 123.79 75.5573 123.79 76.136C123.79 76.724 123.907 77.2373 124.14 77.676C124.373 78.1053 124.686 78.4367 125.078 78.67C125.47 78.894 125.904 79.006 126.38 79.006C126.856 79.006 127.29 78.894 127.682 78.67C128.083 78.4367 128.401 78.1053 128.634 77.676C128.867 77.2373 128.984 76.7287 128.984 76.15ZM134.022 69.64V80H132.748V69.64H134.022ZM137.174 71.082C136.932 71.082 136.726 70.998 136.558 70.83C136.39 70.662 136.306 70.4567 136.306 70.214C136.306 69.9713 136.39 69.766 136.558 69.598C136.726 69.43 136.932 69.346 137.174 69.346C137.408 69.346 137.604 69.43 137.762 69.598C137.93 69.766 138.014 69.9713 138.014 70.214C138.014 70.4567 137.93 70.662 137.762 70.83C137.604 70.998 137.408 71.082 137.174 71.082ZM137.79 72.328V80H136.516V72.328H137.79ZM139.809 76.136C139.809 75.352 139.967 74.666 140.285 74.078C140.602 73.4807 141.036 73.0187 141.587 72.692C142.147 72.3653 142.772 72.202 143.463 72.202C144.125 72.202 144.704 72.3513 145.199 72.65C145.703 72.9393 146.071 73.2987 146.305 73.728V72.328H147.593V83.64H146.305V78.586C146.062 79.0153 145.689 79.3793 145.185 79.678C144.681 79.9767 144.093 80.126 143.421 80.126C142.749 80.126 142.137 79.958 141.587 79.622C141.036 79.286 140.602 78.8147 140.285 78.208C139.967 77.6013 139.809 76.9107 139.809 76.136ZM146.305 76.15C146.305 75.5713 146.188 75.0673 145.955 74.638C145.721 74.2087 145.404 73.882 145.003 73.658C144.611 73.4247 144.177 73.308 143.701 73.308C143.225 73.308 142.791 73.42 142.399 73.644C142.007 73.868 141.694 74.1947 141.461 74.624C141.227 75.0533 141.111 75.5573 141.111 76.136C141.111 76.724 141.227 77.2373 141.461 77.676C141.694 78.1053 142.007 78.4367 142.399 78.67C142.791 78.894 143.225 79.006 143.701 79.006C144.177 79.006 144.611 78.894 145.003 78.67C145.404 78.4367 145.721 78.1053 145.955 77.676C146.188 77.2373 146.305 76.7287 146.305 76.15ZM156.873 72.328V80H155.599V78.866C155.356 79.258 155.016 79.566 154.577 79.79C154.148 80.0047 153.672 80.112 153.149 80.112C152.552 80.112 152.015 79.9907 151.539 79.748C151.063 79.496 150.685 79.1227 150.405 78.628C150.134 78.1333 149.999 77.5313 149.999 76.822V72.328H151.259V76.654C151.259 77.41 151.45 77.9933 151.833 78.404C152.216 78.8053 152.738 79.006 153.401 79.006C154.082 79.006 154.619 78.796 155.011 78.376C155.403 77.956 155.599 77.3447 155.599 76.542V72.328H156.873ZM160.005 71.082C159.762 71.082 159.557 70.998 159.389 70.83C159.221 70.662 159.137 70.4567 159.137 70.214C159.137 69.9713 159.221 69.766 159.389 69.598C159.557 69.43 159.762 69.346 160.005 69.346C160.238 69.346 160.434 69.43 160.593 69.598C160.761 69.766 160.845 69.9713 160.845 70.214C160.845 70.4567 160.761 70.662 160.593 70.83C160.434 70.998 160.238 71.082 160.005 71.082ZM160.621 72.328V80H159.347V72.328H160.621ZM164.389 73.742C164.641 73.3033 165.015 72.9393 165.509 72.65C166.013 72.3513 166.597 72.202 167.259 72.202C167.941 72.202 168.557 72.3653 169.107 72.692C169.667 73.0187 170.106 73.4807 170.423 74.078C170.741 74.666 170.899 75.352 170.899 76.136C170.899 76.9107 170.741 77.6013 170.423 78.208C170.106 78.8147 169.667 79.286 169.107 79.622C168.557 79.958 167.941 80.126 167.259 80.126C166.606 80.126 166.027 79.9813 165.523 79.692C165.029 79.3933 164.651 79.0247 164.389 78.586V83.64H163.115V72.328H164.389V73.742ZM169.597 76.136C169.597 75.5573 169.481 75.0533 169.247 74.624C169.014 74.1947 168.697 73.868 168.295 73.644C167.903 73.42 167.469 73.308 166.993 73.308C166.527 73.308 166.093 73.4247 165.691 73.658C165.299 73.882 164.982 74.2133 164.739 74.652C164.506 75.0813 164.389 75.5807 164.389 76.15C164.389 76.7287 164.506 77.2373 164.739 77.676C164.982 78.1053 165.299 78.4367 165.691 78.67C166.093 78.894 166.527 79.006 166.993 79.006C167.469 79.006 167.903 78.894 168.295 78.67C168.697 78.4367 169.014 78.1053 169.247 77.676C169.481 77.2373 169.597 76.724 169.597 76.136ZM183.955 75.87C183.955 76.1127 183.941 76.3693 183.913 76.64H177.781C177.828 77.396 178.084 77.9887 178.551 78.418C179.027 78.838 179.601 79.048 180.273 79.048C180.824 79.048 181.281 78.922 181.645 78.67C182.018 78.4087 182.28 78.0633 182.429 77.634H183.801C183.596 78.3713 183.185 78.9733 182.569 79.44C181.953 79.8973 181.188 80.126 180.273 80.126C179.545 80.126 178.892 79.9627 178.313 79.636C177.744 79.3093 177.296 78.8473 176.969 78.25C176.642 77.6433 176.479 76.9433 176.479 76.15C176.479 75.3567 176.638 74.6613 176.955 74.064C177.272 73.4667 177.716 73.0093 178.285 72.692C178.864 72.3653 179.526 72.202 180.273 72.202C181.001 72.202 181.645 72.3607 182.205 72.678C182.765 72.9953 183.194 73.434 183.493 73.994C183.801 74.5447 183.955 75.17 183.955 75.87ZM182.639 75.604C182.639 75.1187 182.532 74.7033 182.317 74.358C182.102 74.0033 181.808 73.7373 181.435 73.56C181.071 73.3733 180.665 73.28 180.217 73.28C179.573 73.28 179.022 73.4853 178.565 73.896C178.117 74.3067 177.86 74.876 177.795 75.604H182.639ZM189.964 80L188.144 77.144L186.394 80H185.064L187.542 76.192L185.064 72.328H186.506L188.326 75.17L190.062 72.328H191.392L188.928 76.122L191.406 80H189.964ZM204.037 75.87C204.037 76.1127 204.023 76.3693 203.995 76.64H197.863C197.91 77.396 198.167 77.9887 198.633 78.418C199.109 78.838 199.683 79.048 200.355 79.048C200.906 79.048 201.363 78.922 201.727 78.67C202.101 78.4087 202.362 78.0633 202.511 77.634H203.883C203.678 78.3713 203.267 78.9733 202.651 79.44C202.035 79.8973 201.27 80.126 200.355 80.126C199.627 80.126 198.974 79.9627 198.395 79.636C197.826 79.3093 197.378 78.8473 197.051 78.25C196.725 77.6433 196.561 76.9433 196.561 76.15C196.561 75.3567 196.72 74.6613 197.037 74.064C197.355 73.4667 197.798 73.0093 198.367 72.692C198.946 72.3653 199.609 72.202 200.355 72.202C201.083 72.202 201.727 72.3607 202.287 72.678C202.847 72.9953 203.277 73.434 203.575 73.994C203.883 74.5447 204.037 75.17 204.037 75.87ZM202.721 75.604C202.721 75.1187 202.614 74.7033 202.399 74.358C202.185 74.0033 201.891 73.7373 201.517 73.56C201.153 73.3733 200.747 73.28 200.299 73.28C199.655 73.28 199.105 73.4853 198.647 73.896C198.199 74.3067 197.943 74.876 197.877 75.604H202.721ZM205.566 76.136C205.566 75.352 205.725 74.666 206.042 74.078C206.359 73.4807 206.793 73.0187 207.344 72.692C207.904 72.3653 208.525 72.202 209.206 72.202C209.878 72.202 210.461 72.3467 210.956 72.636C211.451 72.9253 211.819 73.2893 212.062 73.728V72.328H213.35V80H212.062V78.572C211.81 79.02 211.432 79.3933 210.928 79.692C210.433 79.9813 209.855 80.126 209.192 80.126C208.511 80.126 207.895 79.958 207.344 79.622C206.793 79.286 206.359 78.8147 206.042 78.208C205.725 77.6013 205.566 76.9107 205.566 76.136ZM212.062 76.15C212.062 75.5713 211.945 75.0673 211.712 74.638C211.479 74.2087 211.161 73.882 210.76 73.658C210.368 73.4247 209.934 73.308 209.458 73.308C208.982 73.308 208.548 73.42 208.156 73.644C207.764 73.868 207.451 74.1947 207.218 74.624C206.985 75.0533 206.868 75.5573 206.868 76.136C206.868 76.724 206.985 77.2373 207.218 77.676C207.451 78.1053 207.764 78.4367 208.156 78.67C208.548 78.894 208.982 79.006 209.458 79.006C209.934 79.006 210.368 78.894 210.76 78.67C211.161 78.4367 211.479 78.1053 211.712 77.676C211.945 77.2373 212.062 76.7287 212.062 76.15ZM219.406 76.15C219.406 75.3567 219.564 74.666 219.882 74.078C220.199 73.4807 220.638 73.0187 221.198 72.692C221.767 72.3653 222.416 72.202 223.144 72.202C224.086 72.202 224.861 72.4307 225.468 72.888C226.084 73.3453 226.49 73.98 226.686 74.792H225.314C225.183 74.3253 224.926 73.9567 224.544 73.686C224.17 73.4153 223.704 73.28 223.144 73.28C222.416 73.28 221.828 73.532 221.38 74.036C220.932 74.5307 220.708 75.2353 220.708 76.15C220.708 77.074 220.932 77.788 221.38 78.292C221.828 78.796 222.416 79.048 223.144 79.048C223.704 79.048 224.17 78.9173 224.544 78.656C224.917 78.3947 225.174 78.0213 225.314 77.536H226.686C226.48 78.32 226.07 78.95 225.454 79.426C224.838 79.8927 224.068 80.126 223.144 80.126C222.416 80.126 221.767 79.9627 221.198 79.636C220.638 79.3093 220.199 78.8473 219.882 78.25C219.564 77.6527 219.406 76.9527 219.406 76.15ZM232.055 80.126C231.336 80.126 230.683 79.9627 230.095 79.636C229.516 79.3093 229.059 78.8473 228.723 78.25C228.396 77.6433 228.233 76.9433 228.233 76.15C228.233 75.366 228.401 74.6753 228.737 74.078C229.082 73.4713 229.549 73.0093 230.137 72.692C230.725 72.3653 231.383 72.202 232.111 72.202C232.839 72.202 233.497 72.3653 234.085 72.692C234.673 73.0093 235.135 73.4667 235.471 74.064C235.816 74.6613 235.989 75.3567 235.989 76.15C235.989 76.9433 235.811 77.6433 235.457 78.25C235.111 78.8473 234.64 79.3093 234.043 79.636C233.445 79.9627 232.783 80.126 232.055 80.126ZM232.055 79.006C232.512 79.006 232.941 78.8987 233.343 78.684C233.744 78.4693 234.066 78.1473 234.309 77.718C234.561 77.2887 234.687 76.766 234.687 76.15C234.687 75.534 234.565 75.0113 234.323 74.582C234.08 74.1527 233.763 73.8353 233.371 73.63C232.979 73.4153 232.554 73.308 232.097 73.308C231.63 73.308 231.201 73.4153 230.809 73.63C230.426 73.8353 230.118 74.1527 229.885 74.582C229.651 75.0113 229.535 75.534 229.535 76.15C229.535 76.7753 229.647 77.3027 229.871 77.732C230.104 78.1613 230.412 78.4833 230.795 78.698C231.177 78.9033 231.597 79.006 232.055 79.006ZM247.213 72.188C247.81 72.188 248.342 72.314 248.809 72.566C249.275 72.8087 249.644 73.1773 249.915 73.672C250.185 74.1667 250.321 74.7687 250.321 75.478V80H249.061V75.66C249.061 74.8947 248.869 74.3113 248.487 73.91C248.113 73.4993 247.605 73.294 246.961 73.294C246.298 73.294 245.771 73.5087 245.379 73.938C244.987 74.358 244.791 74.9693 244.791 75.772V80H243.531V75.66C243.531 74.8947 243.339 74.3113 242.957 73.91C242.583 73.4993 242.075 73.294 241.431 73.294C240.768 73.294 240.241 73.5087 239.849 73.938C239.457 74.358 239.261 74.9693 239.261 75.772V80H237.987V72.328H239.261V73.434C239.513 73.0327 239.849 72.7247 240.269 72.51C240.698 72.2953 241.169 72.188 241.683 72.188C242.327 72.188 242.896 72.3327 243.391 72.622C243.885 72.9113 244.254 73.336 244.497 73.896C244.711 73.3547 245.066 72.9347 245.561 72.636C246.055 72.3373 246.606 72.188 247.213 72.188ZM261.96 72.188C262.557 72.188 263.089 72.314 263.556 72.566C264.022 72.8087 264.391 73.1773 264.662 73.672C264.932 74.1667 265.068 74.7687 265.068 75.478V80H263.808V75.66C263.808 74.8947 263.616 74.3113 263.234 73.91C262.86 73.4993 262.352 73.294 261.708 73.294C261.045 73.294 260.518 73.5087 260.126 73.938C259.734 74.358 259.538 74.9693 259.538 75.772V80H258.278V75.66C258.278 74.8947 258.086 74.3113 257.704 73.91C257.33 73.4993 256.822 73.294 256.178 73.294C255.515 73.294 254.988 73.5087 254.596 73.938C254.204 74.358 254.008 74.9693 254.008 75.772V80H252.734V72.328H254.008V73.434C254.26 73.0327 254.596 72.7247 255.016 72.51C255.445 72.2953 255.916 72.188 256.43 72.188C257.074 72.188 257.643 72.3327 258.138 72.622C258.632 72.9113 259.001 73.336 259.244 73.896C259.458 73.3547 259.813 72.9347 260.308 72.636C260.802 72.3373 261.353 72.188 261.96 72.188ZM270.827 80.126C270.108 80.126 269.455 79.9627 268.867 79.636C268.288 79.3093 267.831 78.8473 267.495 78.25C267.168 77.6433 267.005 76.9433 267.005 76.15C267.005 75.366 267.173 74.6753 267.509 74.078C267.854 73.4713 268.321 73.0093 268.909 72.692C269.497 72.3653 270.155 72.202 270.883 72.202C271.611 72.202 272.269 72.3653 272.857 72.692C273.445 73.0093 273.907 73.4667 274.243 74.064C274.588 74.6613 274.761 75.3567 274.761 76.15C274.761 76.9433 274.583 77.6433 274.229 78.25C273.883 78.8473 273.412 79.3093 272.815 79.636C272.217 79.9627 271.555 80.126 270.827 80.126ZM270.827 79.006C271.284 79.006 271.713 78.8987 272.115 78.684C272.516 78.4693 272.838 78.1473 273.081 77.718C273.333 77.2887 273.459 76.766 273.459 76.15C273.459 75.534 273.337 75.0113 273.095 74.582C272.852 74.1527 272.535 73.8353 272.143 73.63C271.751 73.4153 271.326 73.308 270.869 73.308C270.402 73.308 269.973 73.4153 269.581 73.63C269.198 73.8353 268.89 74.1527 268.657 74.582C268.423 75.0113 268.307 75.534 268.307 76.15C268.307 76.7753 268.419 77.3027 268.643 77.732C268.876 78.1613 269.184 78.4833 269.567 78.698C269.949 78.9033 270.369 79.006 270.827 79.006ZM276.283 76.136C276.283 75.352 276.441 74.666 276.759 74.078C277.076 73.4807 277.51 73.0187 278.061 72.692C278.621 72.3653 279.246 72.202 279.937 72.202C280.534 72.202 281.089 72.342 281.603 72.622C282.116 72.8927 282.508 73.252 282.779 73.7V69.64H284.067V80H282.779V78.558C282.527 79.0153 282.153 79.3933 281.659 79.692C281.164 79.9813 280.585 80.126 279.923 80.126C279.241 80.126 278.621 79.958 278.061 79.622C277.51 79.286 277.076 78.8147 276.759 78.208C276.441 77.6013 276.283 76.9107 276.283 76.136ZM282.779 76.15C282.779 75.5713 282.662 75.0673 282.429 74.638C282.195 74.2087 281.878 73.882 281.477 73.658C281.085 73.4247 280.651 73.308 280.175 73.308C279.699 73.308 279.265 73.42 278.873 73.644C278.481 73.868 278.168 74.1947 277.935 74.624C277.701 75.0533 277.585 75.5573 277.585 76.136C277.585 76.724 277.701 77.2373 277.935 77.676C278.168 78.1053 278.481 78.4367 278.873 78.67C279.265 78.894 279.699 79.006 280.175 79.006C280.651 79.006 281.085 78.894 281.477 78.67C281.878 78.4367 282.195 78.1053 282.429 77.676C282.662 77.2373 282.779 76.7287 282.779 76.15ZM289.889 80.126C289.17 80.126 288.517 79.9627 287.929 79.636C287.35 79.3093 286.893 78.8473 286.557 78.25C286.23 77.6433 286.067 76.9433 286.067 76.15C286.067 75.366 286.235 74.6753 286.571 74.078C286.916 73.4713 287.383 73.0093 287.971 72.692C288.559 72.3653 289.217 72.202 289.945 72.202C290.673 72.202 291.331 72.3653 291.919 72.692C292.507 73.0093 292.969 73.4667 293.305 74.064C293.65 74.6613 293.823 75.3567 293.823 76.15C293.823 76.9433 293.645 77.6433 293.291 78.25C292.945 78.8473 292.474 79.3093 291.877 79.636C291.279 79.9627 290.617 80.126 289.889 80.126ZM289.889 79.006C290.346 79.006 290.775 78.8987 291.177 78.684C291.578 78.4693 291.9 78.1473 292.143 77.718C292.395 77.2887 292.521 76.766 292.521 76.15C292.521 75.534 292.399 75.0113 292.157 74.582C291.914 74.1527 291.597 73.8353 291.205 73.63C290.813 73.4153 290.388 73.308 289.931 73.308C289.464 73.308 289.035 73.4153 288.643 73.63C288.26 73.8353 287.952 74.1527 287.719 74.582C287.485 75.0113 287.369 75.534 287.369 76.15C287.369 76.7753 287.481 77.3027 287.705 77.732C287.938 78.1613 288.246 78.4833 288.629 78.698C289.011 78.9033 289.431 79.006 289.889 79.006ZM21.602 103.15C21.602 102.357 21.7607 101.666 22.078 101.078C22.3953 100.481 22.834 100.019 23.394 99.692C23.9633 99.3653 24.612 99.202 25.34 99.202C26.2827 99.202 27.0573 99.4307 27.664 99.888C28.28 100.345 28.686 100.98 28.882 101.792H27.51C27.3793 101.325 27.1227 100.957 26.74 100.686C26.3667 100.415 25.9 100.28 25.34 100.28C24.612 100.28 24.024 100.532 23.576 101.036C23.128 101.531 22.904 102.235 22.904 103.15C22.904 104.074 23.128 104.788 23.576 105.292C24.024 105.796 24.612 106.048 25.34 106.048C25.9 106.048 26.3667 105.917 26.74 105.656C27.1133 105.395 27.37 105.021 27.51 104.536H28.882C28.6767 105.32 28.266 105.95 27.65 106.426C27.034 106.893 26.264 107.126 25.34 107.126C24.612 107.126 23.9633 106.963 23.394 106.636C22.834 106.309 22.3953 105.847 22.078 105.25C21.7607 104.653 21.602 103.953 21.602 103.15ZM34.251 107.126C33.5323 107.126 32.879 106.963 32.291 106.636C31.7123 106.309 31.255 105.847 30.919 105.25C30.5923 104.643 30.429 103.943 30.429 103.15C30.429 102.366 30.597 101.675 30.933 101.078C31.2783 100.471 31.745 100.009 32.333 99.692C32.921 99.3653 33.579 99.202 34.307 99.202C35.035 99.202 35.693 99.3653 36.281 99.692C36.869 100.009 37.331 100.467 37.667 101.064C38.0123 101.661 38.185 102.357 38.185 103.15C38.185 103.943 38.0077 104.643 37.653 105.25C37.3077 105.847 36.8363 106.309 36.239 106.636C35.6417 106.963 34.979 107.126 34.251 107.126ZM34.251 106.006C34.7083 106.006 35.1377 105.899 35.539 105.684C35.9403 105.469 36.2623 105.147 36.505 104.718C36.757 104.289 36.883 103.766 36.883 103.15C36.883 102.534 36.7617 102.011 36.519 101.582C36.2763 101.153 35.959 100.835 35.567 100.63C35.175 100.415 34.7503 100.308 34.293 100.308C33.8263 100.308 33.397 100.415 33.005 100.63C32.6223 100.835 32.3143 101.153 32.081 101.582C31.8477 102.011 31.731 102.534 31.731 103.15C31.731 103.775 31.843 104.303 32.067 104.732C32.3003 105.161 32.6083 105.483 32.991 105.698C33.3737 105.903 33.7937 106.006 34.251 106.006ZM43.9211 99.188C44.8545 99.188 45.6105 99.4727 46.1891 100.042C46.7678 100.602 47.0571 101.414 47.0571 102.478V107H45.7971V102.66C45.7971 101.895 45.6058 101.311 45.2231 100.91C44.8405 100.499 44.3178 100.294 43.6551 100.294C42.9831 100.294 42.4465 100.504 42.0451 100.924C41.6531 101.344 41.4571 101.955 41.4571 102.758V107H40.1831V99.328H41.4571V100.42C41.7091 100.028 42.0498 99.7247 42.4791 99.51C42.9178 99.2953 43.3985 99.188 43.9211 99.188ZM52.1773 107.126C51.5893 107.126 51.062 107.028 50.5953 106.832C50.1286 106.627 49.76 106.347 49.4893 105.992C49.2186 105.628 49.0693 105.213 49.0413 104.746H50.3573C50.3946 105.129 50.572 105.441 50.8893 105.684C51.216 105.927 51.6406 106.048 52.1633 106.048C52.6486 106.048 53.0313 105.941 53.3113 105.726C53.5913 105.511 53.7313 105.241 53.7313 104.914C53.7313 104.578 53.582 104.331 53.2833 104.172C52.9846 104.004 52.5226 103.841 51.8973 103.682C51.328 103.533 50.8613 103.383 50.4973 103.234C50.1426 103.075 49.8346 102.847 49.5733 102.548C49.3213 102.24 49.1953 101.839 49.1953 101.344C49.1953 100.952 49.312 100.593 49.5453 100.266C49.7786 99.9393 50.11 99.6827 50.5393 99.496C50.9686 99.3 51.4586 99.202 52.0093 99.202C52.8586 99.202 53.5446 99.4167 54.0673 99.846C54.59 100.275 54.87 100.863 54.9073 101.61H53.6333C53.6053 101.209 53.442 100.887 53.1433 100.644C52.854 100.401 52.462 100.28 51.9673 100.28C51.51 100.28 51.146 100.378 50.8753 100.574C50.6046 100.77 50.4693 101.027 50.4693 101.344C50.4693 101.596 50.5486 101.806 50.7073 101.974C50.8753 102.133 51.0806 102.263 51.3233 102.366C51.5753 102.459 51.9206 102.567 52.3593 102.688C52.91 102.837 53.358 102.987 53.7033 103.136C54.0486 103.276 54.3426 103.491 54.5853 103.78C54.8373 104.069 54.968 104.447 54.9773 104.914C54.9773 105.334 54.8606 105.712 54.6273 106.048C54.394 106.384 54.0626 106.65 53.6333 106.846C53.2133 107.033 52.728 107.126 52.1773 107.126ZM64.0988 102.87C64.0988 103.113 64.0848 103.369 64.0568 103.64H57.9248C57.9715 104.396 58.2282 104.989 58.6948 105.418C59.1708 105.838 59.7448 106.048 60.4168 106.048C60.9675 106.048 61.4248 105.922 61.7888 105.67C62.1622 105.409 62.4235 105.063 62.5728 104.634H63.9448C63.7395 105.371 63.3288 105.973 62.7128 106.44C62.0968 106.897 61.3315 107.126 60.4168 107.126C59.6888 107.126 59.0355 106.963 58.4568 106.636C57.8875 106.309 57.4395 105.847 57.1128 105.25C56.7862 104.643 56.6228 103.943 56.6228 103.15C56.6228 102.357 56.7815 101.661 57.0988 101.064C57.4162 100.467 57.8595 100.009 58.4288 99.692C59.0075 99.3653 59.6702 99.202 60.4168 99.202C61.1448 99.202 61.7888 99.3607 62.3488 99.678C62.9088 99.9953 63.3382 100.434 63.6368 100.994C63.9448 101.545 64.0988 102.17 64.0988 102.87ZM62.7828 102.604C62.7828 102.119 62.6755 101.703 62.4608 101.358C62.2462 101.003 61.9522 100.737 61.5788 100.56C61.2148 100.373 60.8088 100.28 60.3608 100.28C59.7168 100.28 59.1662 100.485 58.7088 100.896C58.2608 101.307 58.0042 101.876 57.9388 102.604H62.7828ZM65.6275 103.136C65.6275 102.352 65.7862 101.666 66.1035 101.078C66.4209 100.481 66.8549 100.019 67.4055 99.692C67.9655 99.3653 68.5909 99.202 69.2815 99.202C69.9442 99.202 70.5229 99.3513 71.0175 99.65C71.5215 99.9393 71.8902 100.299 72.1235 100.728V99.328H73.4115V110.64H72.1235V105.586C71.8809 106.015 71.5075 106.379 71.0035 106.678C70.4995 106.977 69.9115 107.126 69.2395 107.126C68.5675 107.126 67.9562 106.958 67.4055 106.622C66.8549 106.286 66.4209 105.815 66.1035 105.208C65.7862 104.601 65.6275 103.911 65.6275 103.136ZM72.1235 103.15C72.1235 102.571 72.0069 102.067 71.7735 101.638C71.5402 101.209 71.2229 100.882 70.8215 100.658C70.4295 100.425 69.9955 100.308 69.5195 100.308C69.0435 100.308 68.6095 100.42 68.2175 100.644C67.8255 100.868 67.5129 101.195 67.2795 101.624C67.0462 102.053 66.9295 102.557 66.9295 103.136C66.9295 103.724 67.0462 104.237 67.2795 104.676C67.5129 105.105 67.8255 105.437 68.2175 105.67C68.6095 105.894 69.0435 106.006 69.5195 106.006C69.9955 106.006 70.4295 105.894 70.8215 105.67C71.2229 105.437 71.5402 105.105 71.7735 104.676C72.0069 104.237 72.1235 103.729 72.1235 103.15ZM82.6916 99.328V107H81.4176V105.866C81.1749 106.258 80.8342 106.566 80.3956 106.79C79.9662 107.005 79.4902 107.112 78.9676 107.112C78.3702 107.112 77.8336 106.991 77.3576 106.748C76.8816 106.496 76.5036 106.123 76.2236 105.628C75.9529 105.133 75.8176 104.531 75.8176 103.822V99.328H77.0776V103.654C77.0776 104.41 77.2689 104.993 77.6516 105.404C78.0342 105.805 78.5569 106.006 79.2196 106.006C79.9009 106.006 80.4376 105.796 80.8296 105.376C81.2216 104.956 81.4176 104.345 81.4176 103.542V99.328H82.6916ZM84.6897 103.136C84.6897 102.352 84.8484 101.666 85.1657 101.078C85.483 100.481 85.917 100.019 86.4677 99.692C87.0277 99.3653 87.6484 99.202 88.3297 99.202C89.0017 99.202 89.585 99.3467 90.0797 99.636C90.5744 99.9253 90.943 100.289 91.1857 100.728V99.328H92.4737V107H91.1857V105.572C90.9337 106.02 90.5557 106.393 90.0517 106.692C89.557 106.981 88.9784 107.126 88.3157 107.126C87.6344 107.126 87.0184 106.958 86.4677 106.622C85.917 106.286 85.483 105.815 85.1657 105.208C84.8484 104.601 84.6897 103.911 84.6897 103.136ZM91.1857 103.15C91.1857 102.571 91.069 102.067 90.8357 101.638C90.6024 101.209 90.285 100.882 89.8837 100.658C89.4917 100.425 89.0577 100.308 88.5817 100.308C88.1057 100.308 87.6717 100.42 87.2797 100.644C86.8877 100.868 86.575 101.195 86.3417 101.624C86.1084 102.053 85.9917 102.557 85.9917 103.136C85.9917 103.724 86.1084 104.237 86.3417 104.676C86.575 105.105 86.8877 105.437 87.2797 105.67C87.6717 105.894 88.1057 106.006 88.5817 106.006C89.0577 106.006 89.4917 105.894 89.8837 105.67C90.285 105.437 90.6024 105.105 90.8357 104.676C91.069 104.237 91.1857 103.729 91.1857 103.15ZM96.5037 100.378V104.9C96.5037 105.273 96.5831 105.539 96.7417 105.698C96.9004 105.847 97.1757 105.922 97.5677 105.922H98.5057V107H97.3577C96.6484 107 96.1164 106.837 95.7617 106.51C95.4071 106.183 95.2297 105.647 95.2297 104.9V100.378H94.2357V99.328H95.2297V97.396H96.5037V99.328H98.5057V100.378H96.5037ZM100.778 107.084C100.536 107.084 100.33 107 100.162 106.832C99.9944 106.664 99.9104 106.459 99.9104 106.216C99.9104 105.973 99.9944 105.768 100.162 105.6C100.33 105.432 100.536 105.348 100.778 105.348C101.012 105.348 101.208 105.432 101.366 105.6C101.534 105.768 101.618 105.973 101.618 106.216C101.618 106.459 101.534 106.664 101.366 106.832C101.208 107 101.012 107.084 100.778 107.084ZM110.728 97.242C111.792 97.242 112.712 97.4427 113.486 97.844C114.27 98.236 114.868 98.8007 115.278 99.538C115.698 100.275 115.908 101.143 115.908 102.142C115.908 103.141 115.698 104.009 115.278 104.746C114.868 105.474 114.27 106.034 113.486 106.426C112.712 106.809 111.792 107 110.728 107H107.69V97.242H110.728ZM110.728 105.95C111.988 105.95 112.95 105.619 113.612 104.956C114.275 104.284 114.606 103.346 114.606 102.142C114.606 100.929 114.27 99.9813 113.598 99.3C112.936 98.6187 111.979 98.278 110.728 98.278H108.964V105.95H110.728ZM124.716 99.328V107H123.442V105.866C123.199 106.258 122.859 106.566 122.42 106.79C121.991 107.005 121.515 107.112 120.992 107.112C120.395 107.112 119.858 106.991 119.382 106.748C118.906 106.496 118.528 106.123 118.248 105.628C117.977 105.133 117.842 104.531 117.842 103.822V99.328H119.102V103.654C119.102 104.41 119.293 104.993 119.676 105.404C120.059 105.805 120.581 106.006 121.244 106.006C121.925 106.006 122.462 105.796 122.854 105.376C123.246 104.956 123.442 104.345 123.442 103.542V99.328H124.716ZM127.848 98.082C127.605 98.082 127.4 97.998 127.232 97.83C127.064 97.662 126.98 97.4567 126.98 97.214C126.98 96.9713 127.064 96.766 127.232 96.598C127.4 96.43 127.605 96.346 127.848 96.346C128.081 96.346 128.277 96.43 128.436 96.598C128.604 96.766 128.688 96.9713 128.688 97.214C128.688 97.4567 128.604 97.662 128.436 97.83C128.277 97.998 128.081 98.082 127.848 98.082ZM128.464 99.328V107H127.19V99.328H128.464ZM133.675 107.126C133.087 107.126 132.559 107.028 132.093 106.832C131.626 106.627 131.257 106.347 130.987 105.992C130.716 105.628 130.567 105.213 130.539 104.746H131.855C131.892 105.129 132.069 105.441 132.387 105.684C132.713 105.927 133.138 106.048 133.661 106.048C134.146 106.048 134.529 105.941 134.809 105.726C135.089 105.511 135.229 105.241 135.229 104.914C135.229 104.578 135.079 104.331 134.781 104.172C134.482 104.004 134.02 103.841 133.395 103.682C132.825 103.533 132.359 103.383 131.995 103.234C131.64 103.075 131.332 102.847 131.071 102.548C130.819 102.24 130.693 101.839 130.693 101.344C130.693 100.952 130.809 100.593 131.043 100.266C131.276 99.9393 131.607 99.6827 132.037 99.496C132.466 99.3 132.956 99.202 133.507 99.202C134.356 99.202 135.042 99.4167 135.565 99.846C136.087 100.275 136.367 100.863 136.405 101.61H135.131C135.103 101.209 134.939 100.887 134.641 100.644C134.351 100.401 133.959 100.28 133.465 100.28C133.007 100.28 132.643 100.378 132.373 100.574C132.102 100.77 131.967 101.027 131.967 101.344C131.967 101.596 132.046 101.806 132.205 101.974C132.373 102.133 132.578 102.263 132.821 102.366C133.073 102.459 133.418 102.567 133.857 102.688C134.407 102.837 134.855 102.987 135.201 103.136C135.546 103.276 135.84 103.491 136.083 103.78C136.335 104.069 136.465 104.447 136.475 104.914C136.475 105.334 136.358 105.712 136.125 106.048C135.891 106.384 135.56 106.65 135.131 106.846C134.711 107.033 134.225 107.126 133.675 107.126ZM142.176 103.136C142.176 102.352 142.334 101.666 142.652 101.078C142.969 100.481 143.403 100.019 143.954 99.692C144.514 99.3653 145.134 99.202 145.816 99.202C146.488 99.202 147.071 99.3467 147.566 99.636C148.06 99.9253 148.429 100.289 148.672 100.728V99.328H149.96V107H148.672V105.572C148.42 106.02 148.042 106.393 147.538 106.692C147.043 106.981 146.464 107.126 145.802 107.126C145.12 107.126 144.504 106.958 143.954 106.622C143.403 106.286 142.969 105.815 142.652 105.208C142.334 104.601 142.176 103.911 142.176 103.136ZM148.672 103.15C148.672 102.571 148.555 102.067 148.322 101.638C148.088 101.209 147.771 100.882 147.37 100.658C146.978 100.425 146.544 100.308 146.068 100.308C145.592 100.308 145.158 100.42 144.766 100.644C144.374 100.868 144.061 101.195 143.828 101.624C143.594 102.053 143.478 102.557 143.478 103.136C143.478 103.724 143.594 104.237 143.828 104.676C144.061 105.105 144.374 105.437 144.766 105.67C145.158 105.894 145.592 106.006 146.068 106.006C146.544 106.006 146.978 105.894 147.37 105.67C147.771 105.437 148.088 105.105 148.322 104.676C148.555 104.237 148.672 103.729 148.672 103.15ZM159.24 99.328V107H157.966V105.866C157.723 106.258 157.382 106.566 156.944 106.79C156.514 107.005 156.038 107.112 155.516 107.112C154.918 107.112 154.382 106.991 153.906 106.748C153.43 106.496 153.052 106.123 152.772 105.628C152.501 105.133 152.366 104.531 152.366 103.822V99.328H153.626V103.654C153.626 104.41 153.817 104.993 154.2 105.404C154.582 105.805 155.105 106.006 155.768 106.006C156.449 106.006 156.986 105.796 157.378 105.376C157.77 104.956 157.966 104.345 157.966 103.542V99.328H159.24ZM163.268 100.378V104.9C163.268 105.273 163.347 105.539 163.506 105.698C163.664 105.847 163.94 105.922 164.332 105.922H165.27V107H164.122C163.412 107 162.88 106.837 162.526 106.51C162.171 106.183 161.994 105.647 161.994 104.9V100.378H161V99.328H161.994V97.396H163.268V99.328H165.27V100.378H163.268ZM174.136 102.87C174.136 103.113 174.122 103.369 174.094 103.64H167.962C168.009 104.396 168.266 104.989 168.732 105.418C169.208 105.838 169.782 106.048 170.454 106.048C171.005 106.048 171.462 105.922 171.826 105.67C172.2 105.409 172.461 105.063 172.61 104.634H173.982C173.777 105.371 173.366 105.973 172.75 106.44C172.134 106.897 171.369 107.126 170.454 107.126C169.726 107.126 169.073 106.963 168.494 106.636C167.925 106.309 167.477 105.847 167.15 105.25C166.824 104.643 166.66 103.943 166.66 103.15C166.66 102.357 166.819 101.661 167.136 101.064C167.454 100.467 167.897 100.009 168.466 99.692C169.045 99.3653 169.708 99.202 170.454 99.202C171.182 99.202 171.826 99.3607 172.386 99.678C172.946 99.9953 173.376 100.434 173.674 100.994C173.982 101.545 174.136 102.17 174.136 102.87ZM172.82 102.604C172.82 102.119 172.713 101.703 172.498 101.358C172.284 101.003 171.99 100.737 171.616 100.56C171.252 100.373 170.846 100.28 170.398 100.28C169.754 100.28 169.204 100.485 168.746 100.896C168.298 101.307 168.042 101.876 167.976 102.604H172.82ZM180.855 98.082C180.612 98.082 180.407 97.998 180.239 97.83C180.071 97.662 179.987 97.4567 179.987 97.214C179.987 96.9713 180.071 96.766 180.239 96.598C180.407 96.43 180.612 96.346 180.855 96.346C181.088 96.346 181.284 96.43 181.443 96.598C181.611 96.766 181.695 96.9713 181.695 97.214C181.695 97.4567 181.611 97.662 181.443 97.83C181.284 97.998 181.088 98.082 180.855 98.082ZM181.471 99.328V107H180.197V99.328H181.471ZM185.239 100.574C185.463 100.135 185.78 99.7947 186.191 99.552C186.611 99.3093 187.12 99.188 187.717 99.188V100.504H187.381C185.953 100.504 185.239 101.279 185.239 102.828V107H183.965V99.328H185.239V100.574ZM196.315 99.328V107H195.041V105.866C194.798 106.258 194.457 106.566 194.019 106.79C193.589 107.005 193.113 107.112 192.591 107.112C191.993 107.112 191.457 106.991 190.981 106.748C190.505 106.496 190.127 106.123 189.847 105.628C189.576 105.133 189.441 104.531 189.441 103.822V99.328H190.701V103.654C190.701 104.41 190.892 104.993 191.275 105.404C191.657 105.805 192.18 106.006 192.843 106.006C193.524 106.006 194.061 105.796 194.453 105.376C194.845 104.956 195.041 104.345 195.041 103.542V99.328H196.315ZM200.063 100.574C200.287 100.135 200.604 99.7947 201.015 99.552C201.435 99.3093 201.944 99.188 202.541 99.188V100.504H202.205C200.777 100.504 200.063 101.279 200.063 102.828V107H198.789V99.328H200.063V100.574ZM211.335 102.87C211.335 103.113 211.321 103.369 211.293 103.64H205.161C205.207 104.396 205.464 104.989 205.931 105.418C206.407 105.838 206.981 106.048 207.653 106.048C208.203 106.048 208.661 105.922 209.025 105.67C209.398 105.409 209.659 105.063 209.809 104.634H211.181C210.975 105.371 210.565 105.973 209.949 106.44C209.333 106.897 208.567 107.126 207.653 107.126C206.925 107.126 206.271 106.963 205.693 106.636C205.123 106.309 204.675 105.847 204.349 105.25C204.022 104.643 203.859 103.943 203.859 103.15C203.859 102.357 204.017 101.661 204.335 101.064C204.652 100.467 205.095 100.009 205.665 99.692C206.243 99.3653 206.906 99.202 207.653 99.202C208.381 99.202 209.025 99.3607 209.585 99.678C210.145 99.9953 210.574 100.434 210.873 100.994C211.181 101.545 211.335 102.17 211.335 102.87ZM210.019 102.604C210.019 102.119 209.911 101.703 209.697 101.358C209.482 101.003 209.188 100.737 208.815 100.56C208.451 100.373 208.045 100.28 207.597 100.28C206.953 100.28 206.402 100.485 205.945 100.896C205.497 101.307 205.24 101.876 205.175 102.604H210.019ZM216.919 103.136C216.919 102.352 217.078 101.666 217.395 101.078C217.712 100.481 218.146 100.019 218.697 99.692C219.257 99.3653 219.882 99.202 220.573 99.202C221.17 99.202 221.726 99.342 222.239 99.622C222.752 99.8927 223.144 100.252 223.415 100.7V96.64H224.703V107H223.415V105.558C223.163 106.015 222.79 106.393 222.295 106.692C221.8 106.981 221.222 107.126 220.559 107.126C219.878 107.126 219.257 106.958 218.697 106.622C218.146 106.286 217.712 105.815 217.395 105.208C217.078 104.601 216.919 103.911 216.919 103.136ZM223.415 103.15C223.415 102.571 223.298 102.067 223.065 101.638C222.832 101.209 222.514 100.882 222.113 100.658C221.721 100.425 221.287 100.308 220.811 100.308C220.335 100.308 219.901 100.42 219.509 100.644C219.117 100.868 218.804 101.195 218.571 101.624C218.338 102.053 218.221 102.557 218.221 103.136C218.221 103.724 218.338 104.237 218.571 104.676C218.804 105.105 219.117 105.437 219.509 105.67C219.901 105.894 220.335 106.006 220.811 106.006C221.287 106.006 221.721 105.894 222.113 105.67C222.514 105.437 222.832 105.105 223.065 104.676C223.298 104.237 223.415 103.729 223.415 103.15ZM230.525 107.126C229.806 107.126 229.153 106.963 228.565 106.636C227.986 106.309 227.529 105.847 227.193 105.25C226.866 104.643 226.703 103.943 226.703 103.15C226.703 102.366 226.871 101.675 227.207 101.078C227.552 100.471 228.019 100.009 228.607 99.692C229.195 99.3653 229.853 99.202 230.581 99.202C231.309 99.202 231.967 99.3653 232.555 99.692C233.143 100.009 233.605 100.467 233.941 101.064C234.286 101.661 234.459 102.357 234.459 103.15C234.459 103.943 234.282 104.643 233.927 105.25C233.582 105.847 233.11 106.309 232.513 106.636C231.916 106.963 231.253 107.126 230.525 107.126ZM230.525 106.006C230.982 106.006 231.412 105.899 231.813 105.684C232.214 105.469 232.536 105.147 232.779 104.718C233.031 104.289 233.157 103.766 233.157 103.15C233.157 102.534 233.036 102.011 232.793 101.582C232.55 101.153 232.233 100.835 231.841 100.63C231.449 100.415 231.024 100.308 230.567 100.308C230.1 100.308 229.671 100.415 229.279 100.63C228.896 100.835 228.588 101.153 228.355 101.582C228.122 102.011 228.005 102.534 228.005 103.15C228.005 103.775 228.117 104.303 228.341 104.732C228.574 105.161 228.882 105.483 229.265 105.698C229.648 105.903 230.068 106.006 230.525 106.006ZM237.731 96.64V107H236.457V96.64H237.731ZM243.571 107.126C242.853 107.126 242.199 106.963 241.611 106.636C241.033 106.309 240.575 105.847 240.239 105.25C239.913 104.643 239.749 103.943 239.749 103.15C239.749 102.366 239.917 101.675 240.253 101.078C240.599 100.471 241.065 100.009 241.653 99.692C242.241 99.3653 242.899 99.202 243.627 99.202C244.355 99.202 245.013 99.3653 245.601 99.692C246.189 100.009 246.651 100.467 246.987 101.064C247.333 101.661 247.505 102.357 247.505 103.15C247.505 103.943 247.328 104.643 246.973 105.25C246.628 105.847 246.157 106.309 245.559 106.636C244.962 106.963 244.299 107.126 243.571 107.126ZM243.571 106.006C244.029 106.006 244.458 105.899 244.859 105.684C245.261 105.469 245.583 105.147 245.825 104.718C246.077 104.289 246.203 103.766 246.203 103.15C246.203 102.534 246.082 102.011 245.839 101.582C245.597 101.153 245.279 100.835 244.887 100.63C244.495 100.415 244.071 100.308 243.613 100.308C243.147 100.308 242.717 100.415 242.325 100.63C241.943 100.835 241.635 101.153 241.401 101.582C241.168 102.011 241.051 102.534 241.051 103.15C241.051 103.775 241.163 104.303 241.387 104.732C241.621 105.161 241.929 105.483 242.311 105.698C242.694 105.903 243.114 106.006 243.571 106.006ZM250.778 100.574C251.002 100.135 251.319 99.7947 251.73 99.552C252.15 99.3093 252.658 99.188 253.256 99.188V100.504H252.92C251.492 100.504 250.778 101.279 250.778 102.828V107H249.504V99.328H250.778V100.574ZM259.763 98.082C259.52 98.082 259.315 97.998 259.147 97.83C258.979 97.662 258.895 97.4567 258.895 97.214C258.895 96.9713 258.979 96.766 259.147 96.598C259.315 96.43 259.52 96.346 259.763 96.346C259.996 96.346 260.192 96.43 260.351 96.598C260.519 96.766 260.603 96.9713 260.603 97.214C260.603 97.4567 260.519 97.662 260.351 97.83C260.192 97.998 259.996 98.082 259.763 98.082ZM260.379 99.328V107H259.105V99.328H260.379ZM266.611 99.188C267.544 99.188 268.3 99.4727 268.879 100.042C269.458 100.602 269.747 101.414 269.747 102.478V107H268.487V102.66C268.487 101.895 268.296 101.311 267.913 100.91C267.53 100.499 267.008 100.294 266.345 100.294C265.673 100.294 265.136 100.504 264.735 100.924C264.343 101.344 264.147 101.955 264.147 102.758V107H262.873V99.328H264.147V100.42C264.399 100.028 264.74 99.7247 265.169 99.51C265.608 99.2953 266.088 99.188 266.611 99.188Z" fill="white"/>
<path d="M28.455 16.005H24.285L23.595 18H21.39L25.155 7.515H27.6L31.365 18H29.145L28.455 16.005ZM27.885 14.325L26.37 9.945L24.855 14.325H27.885ZM40.4431 12.63C41.0331 12.74 41.5181 13.035 41.8981 13.515C42.2781 13.995 42.4681 14.545 42.4681 15.165C42.4681 15.725 42.3281 16.22 42.0481 16.65C41.7781 17.07 41.3831 17.4 40.8631 17.64C40.3431 17.88 39.7281 18 39.0181 18H34.5031V7.53H38.8231C39.5331 7.53 40.1431 7.645 40.6531 7.875C41.1731 8.105 41.5631 8.425 41.8231 8.835C42.0931 9.245 42.2281 9.71 42.2281 10.23C42.2281 10.84 42.0631 11.35 41.7331 11.76C41.4131 12.17 40.9831 12.46 40.4431 12.63ZM36.6031 11.85H38.5231C39.0231 11.85 39.4081 11.74 39.6781 11.52C39.9481 11.29 40.0831 10.965 40.0831 10.545C40.0831 10.125 39.9481 9.8 39.6781 9.57C39.4081 9.34 39.0231 9.225 38.5231 9.225H36.6031V11.85ZM38.7181 16.29C39.2281 16.29 39.6231 16.17 39.9031 15.93C40.1931 15.69 40.3381 15.35 40.3381 14.91C40.3381 14.46 40.1881 14.11 39.8881 13.86C39.5881 13.6 39.1831 13.47 38.6731 13.47H36.6031V16.29H38.7181ZM50.7325 18.105C49.7525 18.105 48.8525 17.875 48.0325 17.415C47.2125 16.955 46.5625 16.32 46.0825 15.51C45.6025 14.69 45.3625 13.765 45.3625 12.735C45.3625 11.715 45.6025 10.8 46.0825 9.99C46.5625 9.17 47.2125 8.53 48.0325 8.07C48.8525 7.61 49.7525 7.38 50.7325 7.38C51.7225 7.38 52.6225 7.61 53.4325 8.07C54.2525 8.53 54.8975 9.17 55.3675 9.99C55.8475 10.8 56.0875 11.715 56.0875 12.735C56.0875 13.765 55.8475 14.69 55.3675 15.51C54.8975 16.32 54.2525 16.955 53.4325 17.415C52.6125 17.875 51.7125 18.105 50.7325 18.105ZM50.7325 16.23C51.3625 16.23 51.9175 16.09 52.3975 15.81C52.8775 15.52 53.2525 15.11 53.5225 14.58C53.7925 14.05 53.9275 13.435 53.9275 12.735C53.9275 12.035 53.7925 11.425 53.5225 10.905C53.2525 10.375 52.8775 9.97 52.3975 9.69C51.9175 9.41 51.3625 9.27 50.7325 9.27C50.1025 9.27 49.5425 9.41 49.0525 9.69C48.5725 9.97 48.1975 10.375 47.9275 10.905C47.6575 11.425 47.5225 12.035 47.5225 12.735C47.5225 13.435 47.6575 14.05 47.9275 14.58C48.1975 15.11 48.5725 15.52 49.0525 15.81C49.5425 16.09 50.1025 16.23 50.7325 16.23ZM61.4506 7.53V14.01C61.4506 14.72 61.6356 15.265 62.0056 15.645C62.3756 16.015 62.8956 16.2 63.5656 16.2C64.2456 16.2 64.7706 16.015 65.1406 15.645C65.5106 15.265 65.6956 14.72 65.6956 14.01V7.53H67.8106V13.995C67.8106 14.885 67.6156 15.64 67.2256 16.26C66.8456 16.87 66.3306 17.33 65.6806 17.64C65.0406 17.95 64.3256 18.105 63.5356 18.105C62.7556 18.105 62.0456 17.95 61.4056 17.64C60.7756 17.33 60.2756 16.87 59.9056 16.26C59.5356 15.64 59.3506 14.885 59.3506 13.995V7.53H61.4506ZM78.6954 7.53V9.225H75.9054V18H73.8054V9.225H71.0154V7.53H78.6954Z" fill="white"/>
<path d="M0.5 0V25" stroke="white"/>
</g>
<defs>
<clipPath id="clip0_0_15">
<rect width="311" height="116" fill="white"/>
</clipPath>
</defs>
</svg>
